<svg xmlns="http://www.w3.org/2000/svg" width="240" height="234" viewBox="0 0 240 234">
  <defs>
    <style>
      .cls-1 {
        fill: #000b1d;
      }

      .cls-2 {
        fill: #fff;
        fill-rule: evenodd;
      }
    </style>
  </defs>
  <g id="Layer_2" data-name="Layer 2">
    <g id="Layer_1-2" data-name="Layer 1">
      <g id="Surfaces">
        <g id="Utility_Surface" data-name="Utility Surface">
          <g id="Outline_no_shadow" data-name="Outline no shadow">
            <rect class="cls-1" width="240" height="234" rx="42.5"/>
          </g>
        </g>
      </g>
      <g id="Outlined_Mnemonics_Logos" data-name="Outlined Mnemonics Logos">
        <g id="Adobe_Color" data-name="Adobe Color">
          <path class="cls-2" d="M178.22568,163.99361a12.52465,12.52465,0,0,0-8.17578,3.07547l-15.507-15.50705A57.7922,57.7922,0,0,0,167.287,115.65377,55.97705,55.97705,0,0,0,155.55026,81.5376l14.69579-14.89527a12.53132,12.53132,0,1,0-3.521-4.55836L151.85637,77.16544a56.06682,56.06682,0,0,0-40.91547-17.871A56.8215,56.8215,0,0,0,54.41865,115.6571c0,30.56858,25.332,57.43992,56.52225,57.43992a55.45831,55.45831,0,0,0,39.84821-17.23264L166.58875,171.684a12.63435,12.63435,0,1,0,11.63693-7.69036Zm-22.25649-48.26337a46.21524,46.21524,0,0,1-9.49905,27.75244l-20.30147-20.30146a13.92108,13.92108,0,0,0,.48875-12.3418l20.80019-21.0961A44.43972,44.43972,0,0,1,155.96919,115.73024ZM111.2335,161.613c-24.79332,0-44.88532-21.63474-44.88532-45.88277A45.21782,45.21782,0,0,1,111.2335,70.91808a44.46642,44.46642,0,0,1,32.58343,14.38658l-20.51758,20.81016a15.29431,15.29431,0,0,0-10.51979-4.16934,14.62929,14.62929,0,1,0-.01471,29.25858h.01471a15.23775,15.23775,0,0,0,9.775-3.57088l20.225,20.225A43.85127,43.85127,0,0,1,111.2335,161.623Z"/>
        </g>
      </g>
    </g>
  </g>
</svg>
