<svg width="128" height="128" viewBox="0 0 128 128" fill="none" xmlns="http://www.w3.org/2000/svg">
  <rect width="128" height="128" fill="none" />
  <path
    d="M63.6998 9.12528L101.539 8.3544C111.036 8.16091 118.896 15.696 119.091 25.1813L120.643 100.761C120.838 110.25 113.294 118.095 103.796 118.289L65.9577 119.06C56.4601 119.253 48.6003 111.722 48.4054 102.233L46.8531 26.6529C46.6583 17.1677 54.2023 9.31877 63.6998 9.12528Z"
    fill="#E6E9EB" />
  <path
    d="M47.2901 29.3888C66.9789 30.3876 82.1286 47.1424 81.1242 66.8075C80.1199 86.4727 63.3414 101.608 43.6526 100.609C23.9639 99.61 8.81417 82.8552 9.81854 63.1901C10.8229 43.5249 27.6013 28.3899 47.2901 29.3888Z"
    fill="#1E1E1E" />
  <path
    d="M83.2686 66.9184C82.2644 86.5825 65.4875 101.717 45.8006 100.718L47.6191 65.1097L49.4376 29.5015C69.1246 30.5003 84.2729 47.2543 83.2686 66.9184Z"
    fill="#1E1E1E" />
</svg>