<!DOCTYPE svg PUBLIC "-//W3C//DTD SVG 1.1//EN" "http://www.w3.org/Graphics/SVG/1.1/DTD/svg11.dtd">
<!-- Uploaded to: SVG Repo, www.svgrepo.com, Transformed by: SVG Repo Mixer Tools -->
<svg fill="#53b8af" width="800px" height="800px" viewBox="0 0 24 24" role="img" xmlns="http://www.w3.org/2000/svg">
<g id="SVGRepo_bgCarrier" stroke-width="0"/>
<g id="SVGRepo_tracerCarrier" stroke-linecap="round" stroke-linejoin="round" stroke="#CCCCCC" stroke-width="0.144"/>
<g id="SVGRepo_iconCarrier">
<path d="M12 0C5.352 0 0 5.352 0 12s5.352 12 12 12 12-5.352 12-12S18.648 0 12 0zm2.8 4.333c.13-.004.248.136.171.278l-3.044 5.58a.187.187 0 0 0 .164.276h5.26c.17 0 .252.207.128.323l-9.22 8.605c-.165.154-.41-.063-.278-.246l4.364-6.021a.187.187 0 0 0-.151-.296H6.627a.187.187 0 0 1-.131-.32l8.18-8.123a.182.182 0 0 1 .125-.056z"/>
</g>
</svg>