<?xml version="1.0" standalone="no"?>
<!DOCTYPE svg PUBLIC "-//W3C//DTD SVG 20010904//EN"
 "http://www.w3.org/TR/2001/REC-SVG-20010904/DTD/svg10.dtd">
<svg version="1.0" xmlns="http://www.w3.org/2000/svg"
 width="1280.000000pt" height="723.000000pt" viewBox="0 0 1280.000000 723.000000"
 preserveAspectRatio="xMidYMid meet">
<metadata>
Created by potrace 1.15, written by Peter Selinger 2001-2017
</metadata>
<g transform="translate(0.000000,723.000000) scale(0.100000,-0.100000)"
fill="#000000" stroke="none">
<path d="M11905 7224 c-725 -56 -1846 -375 -3147 -895 -232 -93 -223 -88 -210
-101 7 -7 86 19 239 80 1070 425 1998 703 2688 807 643 96 1040 28 1156 -197
31 -60 38 -186 14 -276 -138 -531 -1021 -1393 -2450 -2394 -256 -179 -586
-400 -591 -396 -2 3 87 66 199 140 1182 792 2078 1543 2519 2109 340 437 401
762 172 920 -107 73 -251 109 -475 116 -645 23 -1791 -273 -3179 -819 -140
-55 -258 -104 -262 -107 -4 -4 18 -32 50 -64 l57 -57 160 61 c683 259 1322
454 1815 554 667 136 1094 121 1273 -44 178 -165 92 -463 -258 -889 -107 -130
-441 -465 -620 -621 -360 -315 -807 -660 -1295 -999 -143 -100 -187 -125 -193
-115 -5 8 -7 16 -5 17 1 2 104 74 228 161 1185 834 1929 1557 2081 2021 33 99
33 212 -1 277 -150 295 -824 283 -1933 -33 -238 -68 -806 -257 -1058 -353
l-167 -62 34 -40 c85 -99 297 -388 309 -422 1 -1 30 5 65 13 104 24 285 52
415 64 280 25 485 -38 511 -158 3 -15 7 -36 9 -46 15 -72 -57 -235 -170 -386
-85 -113 -462 -497 -476 -483 -4 4 -24 50 -45 101 -53 134 -191 409 -267 534
-345 565 -832 1021 -1397 1308 -340 172 -656 270 -1022 315 -142 17 -516 20
-635 5 -484 -64 -862 -203 -1228 -451 -152 -103 -257 -191 -396 -329 -938
-932 -1152 -2457 -530 -3783 66 -140 146 -283 238 -426 41 -62 73 -114 71
-116 -2 -1 -52 -16 -113 -33 -511 -145 -866 -197 -1085 -158 -139 25 -213 76
-235 164 -49 187 165 488 654 923 l73 65 -16 71 c-18 80 -51 309 -61 425 l-7
78 -157 -107 c-1186 -809 -2026 -1573 -2262 -2059 -266 -547 178 -738 1229
-529 564 113 1347 360 2108 667 129 52 208 79 220 74 10 -4 14 -10 8 -15 -5
-5 -135 -58 -289 -119 -1101 -434 -1949 -677 -2605 -748 -181 -19 -421 -14
-540 11 -161 35 -275 113 -315 217 -27 73 -17 199 24 304 197 504 1065 1310
2370 2199 l206 141 3 88 c2 69 0 87 -10 83 -39 -15 -627 -410 -908 -611 -1472
-1050 -2310 -1922 -2310 -2404 0 -383 541 -483 1525 -281 746 153 1846 523
2895 974 47 20 80 31 75 26 -13 -13 -259 -117 -597 -252 -1454 -581 -2637
-890 -3307 -866 -364 14 -547 98 -607 279 -22 68 -15 198 16 288 100 289 382
644 885 1114 498 466 1241 1029 2142 1625 112 73 203 140 203 147 0 8 -3 14
-6 14 -9 0 -316 -201 -564 -368 -905 -612 -1596 -1159 -2111 -1672 -248 -247
-399 -422 -520 -603 -211 -315 -260 -550 -149 -712 321 -467 2096 -111 4464
894 l190 80 85 -72 c344 -291 697 -495 1086 -625 207 -70 394 -113 625 -143
122 -16 507 -16 630 0 541 70 1000 263 1410 594 122 98 326 305 421 427 367
471 582 1019 650 1657 11 108 7 598 -7 734 l-6 57 59 35 c86 53 572 385 778
532 1204 862 2001 1613 2258 2131 71 143 92 214 92 324 0 89 -2 99 -34 158
-41 76 -81 111 -179 158 -112 55 -225 75 -442 78 -102 2 -207 2 -235 0z"/>
</g>
</svg>
