<?xml version="1.0" encoding="utf-8"?>
<!DOCTYPE svg PUBLIC "-//W3C//DTD SVG 1.1//EN" "http://www.w3.org/Graphics/SVG/1.1/DTD/svg11.dtd">
<svg version="1.1" xmlns="http://www.w3.org/2000/svg" xmlns:xlink="http://www.w3.org/1999/xlink" x="0px" y="0px"
	 width="128px" height="21px" viewBox="0 0 128 21" enable-background="new 0 0 128 21" xml:space="preserve">
<g>
	<path fill="#0066ff" d="M30.128,0c-5.772,0-10.452,4.702-10.452,10.5c0,5.798,4.68,10.5,10.452,10.5
		c5.772,0,10.451-4.701,10.451-10.5C40.58,4.702,35.901,0,30.128,0 M30.128,15.154c-2.559,0-4.633-2.084-4.633-4.654
		c0-2.57,2.075-4.654,4.633-4.654c2.558,0,4.632,2.084,4.632,4.654C34.761,13.07,32.687,15.154,30.128,15.154"/>
	<path fill="#0066ff" d="M51.728,0c-5.772,0-10.452,4.702-10.452,10.5c0,5.798,4.68,10.5,10.452,10.5
		c5.772,0,10.45-4.701,10.45-10.5C62.18,4.702,57.5,0,51.728,0 M51.728,15.154c-2.559,0-4.633-2.084-4.633-4.654
		c0-2.57,2.075-4.654,4.633-4.654c2.558,0,4.632,2.084,4.632,4.654C56.36,13.07,54.286,15.154,51.728,15.154"/>
	<path fill="#0066ff" d="M85.235,0c-5.772,0-10.451,4.702-10.451,10.5c0,5.798,4.679,10.5,10.451,10.5
		c5.771,0,10.451-4.701,10.451-10.5C95.687,4.702,91.007,0,85.235,0 M85.235,15.154c-2.559,0-4.633-2.084-4.633-4.654
		c0-2.57,2.074-4.654,4.633-4.654c2.56,0,4.633,2.084,4.633,4.654C89.868,13.07,87.795,15.154,85.235,15.154"/>
	<path fill="#0066ff" d="M18.332,12.314c-1.33-0.9-3.134-0.551-4.035,0.781c-0.003,0.004-0.006,0.01-0.01,0.014
		c-0.011,0.016-0.021,0.031-0.03,0.047h-0.002c-0.836,1.207-2.227,1.998-3.804,1.998c-2.558,0-4.632-2.084-4.632-4.654
		c0-2.57,2.074-4.654,4.632-4.654c1.596,0,3.003,0.81,3.835,2.044c0.004,0.005,0.008,0.011,0.012,0.017
		c0.9,1.331,2.704,1.68,4.034,0.779c1.332-0.903,1.683-2.719,0.783-4.058c-0.006-0.01-0.013-0.018-0.019-0.028L19.097,4.6
		C17.216,1.823,14.045,0,10.451,0C4.679,0,0,4.701,0,10.5S4.679,21,10.451,21c3.584,0,6.747-1.812,8.63-4.574l-0.002-0.002
		c0.011-0.016,0.024-0.033,0.036-0.053C20.014,15.033,19.663,13.217,18.332,12.314"/>
	<path fill="#0066ff" d="M14.255,13.154l0.003,0.002c0.01-0.016,0.02-0.031,0.03-0.047C14.277,13.125,14.267,13.141,14.255,13.154"
		/>
	<polyline fill="#0066ff" points="14.292,13.104 14.288,13.109 14.298,13.096 14.292,13.104 	"/>
	<path fill="#0066ff" d="M14.298,7.906c-0.004-0.005-0.007-0.011-0.011-0.017c0.002,0.003,0.003,0.006,0.005,0.009
		C14.294,7.9,14.296,7.903,14.298,7.906"/>
	<path fill="#0066ff" d="M73.335,21c0.004,0,0.008,0,0.012,0c-0.006,0-0.01,0-0.016,0H73.335z"/>
	<path fill="#0066ff" d="M73.347,15.154c-0.006,0-0.012,0-0.016,0h0.004c-2.553-0.006-4.622-2.088-4.622-4.654V2.923
		c0-0.587-0.171-1.131-0.467-1.589C67.728,0.531,66.829,0,65.805,0c-1.607,0-2.911,1.308-2.911,2.923V10.5
		c0,5.794,4.674,10.494,10.441,10.5c0.004,0,0.008,0,0.012,0c-0.004,0-0.008,0-0.012,0h-0.004c0.006,0,0.01,0,0.016,0
		c1.606,0,2.91-1.309,2.91-2.922C76.257,16.463,74.953,15.154,73.347,15.154"/>
	<path fill="#0066ff" d="M106.85,0c0.005,0,0.009,0,0.012,0c-0.005,0-0.01,0-0.016,0H106.85z"/>
	<path fill="#0066ff" d="M106.861,5.846c-0.005,0-0.011,0-0.016,0h0.005c-2.553,0.006-4.623,2.087-4.623,4.654v7.578
		c0,0.586-0.17,1.131-0.467,1.588C101.242,20.469,100.343,21,99.319,21c-1.606,0-2.91-1.309-2.91-2.922V10.5
		c0-5.795,4.674-10.493,10.441-10.5h0.011c-0.004,0-0.007,0-0.011,0h-0.005c0.005,0,0.011,0,0.016,0
		c1.606,0,2.909,1.308,2.909,2.923C109.771,4.538,108.468,5.846,106.861,5.846"/>
	<polyline fill="#0066ff" points="115.004,13.115 115.004,13.115 114.999,13.105 115.004,13.115 	"/>
	<polyline fill="#0066ff" points="122.677,13.104 122.675,13.107 122.682,13.098 122.677,13.104 	"/>
	<polyline fill="#0066ff" points="114.994,13.1 114.998,13.105 114.996,13.104 114.994,13.1 	"/>
	<path fill="#0066ff" d="M126.716,12.314c-0.087-0.061-0.18-0.113-0.271-0.162l-9.699-5.803c0.629-0.321,1.34-0.503,2.092-0.503
		c1.586,0,2.985,0.801,3.821,2.024l0.002-0.001c0.507,0.774,1.372,1.293,2.364,1.315c1.606,0.036,2.938-1.242,2.975-2.856
		c0.014-0.653-0.188-1.259-0.539-1.753c0.006,0.008,0.012,0.015,0.019,0.023l0.002-0.002C125.599,1.822,122.43,0,118.837,0
		c-3.587,0-6.75,1.816-8.633,4.582l0.002,0.001c-0.012,0.016-0.023,0.03-0.034,0.046c-0.898,1.338-0.547,3.155,0.786,4.058
		c0.089,0.06,0.181,0.115,0.273,0.164l9.697,5.802c-0.629,0.32-1.338,0.502-2.092,0.502c-1.594,0-2.999-0.809-3.832-2.039h-0.002
		c0.002,0.002,0.002,0.004,0.004,0.004c-0.004-0.004-0.006-0.008-0.008-0.014c-0.002-0.002-0.004-0.004-0.005-0.006
		c-0.898-1.334-2.706-1.688-4.036-0.785c-1.333,0.902-1.685,2.721-0.786,4.057c0.002,0.004,0.005,0.008,0.007,0.01v0.002
		c1.879,2.785,5.055,4.617,8.658,4.617c3.597,0,6.766-1.826,8.646-4.604c0.006-0.008,0.014-0.016,0.02-0.025
		c0-0.002,0.002-0.004,0.004-0.006c0.004-0.006,0.008-0.01,0.012-0.016l-0.002-0.002C128.396,15.012,128.042,13.213,126.716,12.314"
		/>
</g>
</svg>
