<svg width="98" height="24" viewBox="0 0 98 24" fill="none" xmlns="http://www.w3.org/2000/svg">
<g clip-path="url(#clip0)">
<path d="M2.136 7.008V7.2H0.36C0.12 7.2 0 7.32 0 7.56V8.28C0 8.52 0.12 8.64 0.36 8.64C2.088 8.64 2.112 10.08 2.112 11.376V15.48C2.136 16.776 1.536 17.76 0.36 17.76C0.12 17.76 0 17.88 0 18.12V18.84C0 19.08 0.12 19.2 0.36 19.2H7.128C7.344 19.2 7.488 19.08 7.488 18.84V18.12C7.488 17.88 7.344 17.76 7.128 17.76C5.952 17.76 5.352 16.776 5.352 15.48V8.952H8.568C8.784 8.952 8.928 8.832 8.928 8.592V7.56C8.928 7.32 8.784 7.2 8.568 7.2H5.352V5.616C5.352 3.792 5.52 2.568 6.12 1.848C6.408 1.488 6.768 1.32 7.128 1.32C7.704 1.32 8.256 1.8 8.256 2.688C8.256 3.144 8.112 3.672 7.8 4.272C7.68 4.488 7.704 4.776 7.92 4.776L7.968 4.752L10.488 4.2C10.848 4.104 10.992 3.984 11.088 3.744C11.256 3.336 11.328 2.928 11.328 2.544C11.328 1.104 10.104 0 7.56 0C3.36 0 2.136 4.152 2.136 7.008Z" fill="#010101"/>
<path d="M12.7699 7.41611C10.4899 8.42411 9.16992 10.6801 9.16992 13.0561C9.16992 13.9441 9.36192 14.8321 9.72192 15.6961C10.7779 18.0721 13.0819 19.4881 15.4819 19.4881C16.2979 19.4881 17.1139 19.3201 17.9059 18.9601C20.1619 17.9521 21.5059 15.7201 21.5059 13.3201C21.5059 12.4561 21.3139 11.5681 20.9299 10.7041C19.8739 8.32811 17.5699 6.91211 15.1939 6.91211C14.3779 6.91211 13.5619 7.08011 12.7699 7.41611ZM13.4899 9.04811C13.8019 8.90411 14.1379 8.83211 14.4499 8.83211C15.9139 8.83211 17.2099 10.3201 17.9539 12.0241C18.3619 12.9361 18.6259 13.9441 18.6259 14.8321C18.6259 15.9361 18.2179 16.8961 17.1859 17.3521C16.8499 17.4961 16.5379 17.5681 16.2259 17.5681C14.7379 17.5681 13.4659 16.0801 12.6979 14.3761C12.2899 13.4401 12.0259 12.4561 12.0259 11.5681C12.0259 10.4641 12.4339 9.50411 13.4899 9.04811Z" fill="#010101"/>
<path d="M37.2875 17.7601H37.1675C35.9915 17.7601 35.4155 16.7761 35.4155 15.4801V11.5201C35.4155 9.21605 34.7675 6.88805 31.3355 6.88805C29.1275 6.88805 27.8555 8.56805 27.1835 9.64805L27.6155 6.48005C27.6155 6.45605 27.5915 6.45605 27.5675 6.45605H27.5195C27.4715 6.45605 27.4475 6.48005 27.3995 6.50405C26.7755 6.96005 24.9515 7.89605 22.6715 8.25605C22.4315 8.30405 22.3115 8.37605 22.3115 8.56805V9.38405C22.3115 9.55205 22.3595 9.67205 22.5995 9.69605C23.9195 9.84005 24.0155 11.1841 24.0155 12.4561V15.4801C24.0155 16.7761 23.4395 17.7601 22.2635 17.7601H22.2155C21.9755 17.7601 21.8555 17.8801 21.8555 18.1201V18.8401C21.8555 19.0801 21.9755 19.2001 22.2155 19.2001H29.1995C29.4395 19.2001 29.5595 19.0801 29.5595 18.8401V18.1201C29.5595 17.8801 29.4395 17.7601 29.1995 17.7601H29.1515C27.9755 17.7601 27.3995 16.7761 27.3995 15.4801V11.0641C27.8075 10.0321 29.1275 9.00005 30.3035 9.00005C32.1515 9.00005 32.0315 10.5601 32.0315 11.8561V15.4801C32.0555 16.7761 31.6955 17.7601 30.7835 17.7601C30.5435 17.7601 30.3995 17.8801 30.3995 18.1201V18.8401C30.3995 19.0801 30.5435 19.2001 30.7595 19.2001H37.2875C37.5035 19.2001 37.6475 19.0801 37.6475 18.8401V18.1201C37.6475 17.8801 37.5035 17.7601 37.2875 17.7601Z" fill="#010101"/>
<path d="M45.9788 17.4721L45.5948 16.8481C45.4988 16.7281 45.4028 16.6801 45.3068 16.6801C45.2348 16.6801 45.1628 16.7041 45.0908 16.7521H45.0668C44.5628 17.0641 43.8908 17.4481 43.3628 17.4481C42.7868 17.4481 42.3548 17.0641 42.3548 15.8161V8.95212H45.5708C45.7868 8.95212 45.9308 8.83212 45.9308 8.59212V7.56012C45.9308 7.32012 45.7868 7.20012 45.5708 7.20012H42.3548V3.16812C42.3548 3.12012 42.3308 3.12012 42.2828 3.12012H42.2588C42.2108 3.12012 42.1868 3.14412 42.1388 3.16812C41.1788 4.00812 39.9068 4.77612 39.2108 5.16012C39.0428 5.25612 38.9948 5.40012 38.9948 5.59212V7.20012H37.2428C37.0028 7.20012 36.8828 7.32012 36.8828 7.56012V8.28012C36.8828 8.52012 37.0028 8.64012 37.2428 8.64012C38.9708 8.64012 38.9948 10.0801 38.9948 11.3761V15.8161C38.9948 18.6481 40.2908 19.5121 41.7548 19.5121C42.9548 19.5121 44.2748 18.9601 45.1388 18.4081L45.8588 17.9521C45.9788 17.8801 46.0508 17.7841 46.0508 17.6881C46.0508 17.6161 46.0268 17.5441 45.9788 17.4721Z" fill="#010101"/>
<path d="M51.9053 9.07226L52.1693 6.93626C52.1693 6.88826 52.1693 6.86426 52.1453 6.86426H52.0733C52.0013 6.86426 51.9293 6.88826 51.8813 6.91226C50.8013 7.36826 49.8413 7.82426 47.4653 7.82426C47.2253 7.82426 47.1293 7.94426 47.1293 8.13626V8.95226C47.1053 9.12026 47.1533 9.24026 47.3933 9.26426C48.7373 9.40826 48.8093 10.7523 48.8093 12.0243V20.2803C48.8333 21.5763 48.2573 22.5603 47.0813 22.5603C46.8173 22.5603 46.6973 22.6803 46.6973 22.9203V23.6403C46.6973 23.8803 46.8173 24.0003 47.0573 24.0003H53.9213C54.1613 24.0003 54.2813 23.8803 54.2813 23.6403V22.9203C54.2813 22.6803 54.1613 22.5603 53.9213 22.5603C52.7453 22.5603 52.1693 21.5763 52.1693 20.2803V18.3603C53.0093 19.1043 54.0653 19.4883 55.2893 19.4883C58.1933 19.4883 60.8813 17.6403 60.8813 13.2003C60.8813 8.54426 57.7373 6.86426 55.5773 6.86426C53.1053 6.86426 52.1693 8.42426 51.9053 9.07226ZM52.1693 14.9283V10.5603C52.1693 10.5603 52.6973 8.97626 54.4733 8.97626C56.4413 8.97626 57.8093 10.8963 57.8093 13.9683C57.8093 15.9603 57.1613 17.9283 54.8573 17.9283C53.2493 17.9283 52.3373 16.4403 52.1693 14.9283Z" fill="#010101"/>
<path d="M73.8904 14.7597V6.9357C73.8904 6.8877 73.8904 6.8877 73.8664 6.8877H73.7944C73.7704 6.8877 73.7224 6.9117 73.6984 6.9357C73.1944 7.2957 72.6664 7.7277 71.3224 8.2797C70.3144 7.3917 68.9944 6.8877 67.4344 6.8877C64.5304 6.8877 61.8184 8.7357 61.8184 13.1757C61.8184 17.8317 64.9624 19.5117 67.1464 19.5117C69.5944 19.5117 70.5304 17.9517 70.7944 17.3037L70.5304 19.4397C70.5304 19.4877 70.5304 19.5117 70.5544 19.5117H70.6024C70.6744 19.5117 70.7704 19.4877 70.8184 19.4637C71.8984 18.9837 72.8824 18.5517 75.2344 18.5517C75.4744 18.5517 75.5944 18.4317 75.5944 18.2157V17.4237C75.5944 17.2557 75.5464 17.1357 75.3064 17.1117C74.1304 16.9677 73.9144 15.9117 73.8904 14.7597ZM70.5304 10.9917V15.8157C70.5304 15.8157 70.0024 17.3997 68.2264 17.3997C66.2584 17.3997 64.9144 15.4797 64.9144 12.4077C64.9144 10.4157 65.5384 8.4957 67.8664 8.4957C69.7384 8.4957 70.3624 10.0317 70.5304 10.9917Z" fill="#010101"/>
<path d="M80.1327 5.03945C80.5647 5.03945 80.9007 4.87145 81.3327 4.43945C81.7647 4.03145 81.9327 3.67145 81.9327 3.23945C81.9327 2.80745 81.7647 2.47145 81.3327 2.03945C80.9007 1.60745 80.5647 1.43945 80.1327 1.43945C79.7007 1.43945 79.3407 1.60745 78.9327 2.03945C78.5007 2.47145 78.3327 2.80745 78.3327 3.23945C78.3327 3.67145 78.5007 4.03145 78.9327 4.43945C79.3407 4.87145 79.7007 5.03945 80.1327 5.03945ZM83.6367 17.7595H83.5647C82.3887 17.7595 81.8127 16.7755 81.8127 15.4795V6.47945C81.7887 6.45545 81.7887 6.45545 81.7407 6.45545H81.6927C81.6687 6.45545 81.6207 6.47945 81.5967 6.50345C80.9487 7.17545 79.7007 8.11145 77.1807 8.95145C76.9407 9.02345 76.8207 9.07145 76.8207 9.26345V10.0795C76.8207 10.2475 76.8687 10.3675 77.1087 10.3915C78.4287 10.5355 78.5247 11.8555 78.5247 12.9355V15.4795C78.5487 16.7755 77.9727 17.7595 76.7967 17.7595H76.7487C76.5087 17.7595 76.3887 17.8795 76.3887 18.1195V18.8395C76.3887 19.0795 76.5567 19.1995 76.7967 19.1995H83.5887C83.8287 19.1995 83.9967 19.0795 83.9967 18.8395V18.1195C83.9967 17.8795 83.8767 17.7595 83.6367 17.7595Z" fill="#010101"/>
<path d="M90.1742 9.72005L90.7502 6.48005C90.7502 6.45605 90.7262 6.45605 90.7022 6.45605H90.6542C90.6062 6.45605 90.5822 6.48005 90.5342 6.50405C89.9102 6.96005 88.0862 7.89605 85.8062 8.25605C85.5662 8.30405 85.4462 8.37605 85.4462 8.56805V9.38405C85.4462 9.55205 85.4942 9.67205 85.7342 9.69605C87.0542 9.84005 87.1502 11.1841 87.1502 12.4561V15.4801C87.1502 16.7761 86.5742 17.7601 85.3982 17.7601H85.3502C85.1102 17.7601 84.9902 17.8801 84.9902 18.1201V18.8401C84.9902 19.0801 85.1102 19.2001 85.3502 19.2001H92.3342C92.5742 19.2001 92.6942 19.0801 92.6942 18.8401V18.1201C92.6942 17.8801 92.5742 17.7601 92.3342 17.7601H92.2862C91.1102 17.7601 90.5342 16.7761 90.5342 15.4801V11.0641C90.8702 10.1761 91.8302 8.97605 92.9342 8.97605C93.5822 8.97605 94.0622 9.36005 94.0622 10.2241C94.0622 10.5601 94.0382 10.9681 93.8462 11.4241C93.8222 11.4961 93.7982 11.5681 93.7982 11.6401C93.7982 11.7601 93.8702 11.8561 94.0142 11.8561C94.0862 11.8561 94.1582 11.8561 94.2302 11.8081L96.4862 10.8961C97.0622 10.6561 97.1102 10.0801 97.1102 9.36005C97.1102 7.72805 95.8862 6.88805 94.3982 6.88805C92.6942 6.88805 91.0382 7.87205 90.1742 9.72005Z" fill="#010101"/>
</g>
<defs>
<clipPath id="clip0">
<rect width="97.128" height="24" fill="white"/>
</clipPath>
</defs>
</svg>
