<svg xmlns="http://www.w3.org/2000/svg" viewBox="0 0 200 29.049999"><script xmlns=""/><div xmlns="" id="__jumpCutterBridgeElement"/>
<g transform="matrix(1.1172997,0,0,1.1172997,-1.6759496,-6.7037983)">
<g id="g1">
<path fill="#fbbc04" d="M 1.5,29 C 1.5,29 16,6 16,6 c 0,0 9,0 9,0 0,0 0,3.1999998 0,3.1999998 C 25,9.1999998 12.5,29 12.5,29" id="path58"/>
<path fill="#1a73e8" d="m 25,29 c 0,0 -9,0 -9,0 0,0 0,-23 0,-23 0,0 9,0 9,0 0,0 0,23 0,23 z" id="path64"/>
<path fill="#34a853" d="m 31.5,22.5 c 0,3.59 -2.91,6.5 -6.5,6.5 0,0 0,-13 0,-13 3.59,0 6.5,2.91 6.5,6.5 z" id="path70"/>
<path fill="#0d652d" d="m 25,29 c -3.59,0 -6.5,-2.91 -6.5,-6.5 0,-3.59 2.91,-6.5 6.5,-6.5 0,0 0,13 0,13 z" id="path76"/>
<path fill="#1a73e8" d="m 30,11 c 0,2.761 -2.238,5 -5,5 0,0 0,-10 0,-10 2.762,0 5,2.2390001 5,5 z" id="path82"/>
<path fill="#174ea6" d="m 25,16 c -2.762,0 -5,-2.239 -5,-5 0,-2.7609999 2.238,-5 5,-5 0,0 0,10 0,10 z" id="path88"/>
<path fill="#ea4335" d="M 2,10.5 C 2,8.0150001 4.0150001,6 6.5,6 8.9849999,6 11,8.0150001 11,10.5 11,12.985 8.9849999,15 6.5,15 4.0150001,15 2,12.985 2,10.5 Z" id="path94"/>
</g>
<g id="g2">
<path fill="#5f6368" d="M 55.487,26.618 C 50.334,26.618 46,22.441 46,17.309 46,12.178 50.334,8 55.487,8 c 2.852,0 4.881,1.1129999 6.41,2.566 0,0 -1.804,1.793 -1.804,1.793 -1.094,-1.021 -2.576,-1.816 -4.606,-1.816 -3.763,0 -6.705,3.02 -6.705,6.766 0,3.747 2.942,6.767 6.705,6.767 2.44,0 3.832,-0.977 4.722,-1.862 0.729,-0.727 1.209,-1.771 1.39,-3.202 0,0 -6.112,0 -6.112,0 0,0 0,-2.543 0,-2.543 0,0 8.599,0 8.599,0 0.091,0.454 0.136,1 0.136,1.59 0,1.907 -0.525,4.268 -2.213,5.949 -1.642,1.702 -3.739,2.61 -6.522,2.61 z" id="path32"/>
<path fill="#5f6368" d="m 77.522999,20.624 c 0,3.451 -2.666,5.994 -5.936,5.994 -3.269,0 -5.934,-2.543 -5.934,-5.994 0,-3.474 2.665,-5.994 5.934,-5.994 3.27,0 5.936,2.52 5.936,5.994 z m -2.598,0 c 0,-2.157 -1.547,-3.633 -3.338,-3.633 -1.791,0 -3.337,1.476 -3.337,3.633 0,2.134 1.546,3.633 3.337,3.633 1.791,0 3.338,-1.499 3.338,-3.633 z" id="path36"/>
<path fill="#5f6368" d="m 90.825999,20.624 c 0,3.451 -2.666,5.994 -5.936,5.994 -3.268,0 -5.934,-2.543 -5.934,-5.994 0,-3.474 2.666,-5.994 5.934,-5.994 3.27,0 5.936,2.52 5.936,5.994 z m -2.598,0 c 0,-2.157 -1.546,-3.633 -3.338,-3.633 -1.791,0 -3.336,1.476 -3.336,3.633 0,2.134 1.545,3.633 3.336,3.633 1.792,0 3.338,-1.499 3.338,-3.633 z" id="path40"/>
<path fill="#5f6368" d="m 103.795,14.993001 c 0,0 0,10.762999 0,10.762999 0,4.428 -2.622,6.244 -5.723998,6.244 -2.919,0 -4.675,-1.953 -5.336,-3.542 0,0 2.302,-0.954 2.302,-0.954 0.411,0.976 1.414,2.134 3.034,2.134 1.983998,0 3.215998,-1.225 3.215998,-3.519 0,0 0,-0.863 0,-0.863 0,0 -0.091,0 -0.091,0 -0.593,0.727 -1.733998,1.362 -3.169998,1.362 -3.011,0 -5.771,-2.61 -5.771,-5.971 0,-3.383 2.76,-6.017 5.771,-6.017 1.436,0 2.576998,0.636 3.169998,1.34 0,0 0.091,0 0.091,0 0,0 0,-0.976999 0,-0.976999 0,0 2.508,0 2.508,0 z M 101.469,20.647 c 0,-2.111 -1.414,-3.656 -3.214998,-3.656 -1.825,0 -3.353,1.545 -3.353,3.656 0,2.089 1.528,3.61 3.353,3.61 1.800998,0 3.214998,-1.521 3.214998,-3.61 z" id="path44"/>
<path fill="#5f6368" d="m 108.433,26.254 c 0,0 -2.646,0 -2.646,0 0,0 0,-17.618 0,-17.618 0,0 2.646,0 2.646,0 0,0 0,17.618 0,17.618 z" id="path48"/>
<path fill="#5f6368" d="m 118.832,22.599 c 0,0 2.053,1.362 2.053,1.362 -0.66,0.977 -2.258,2.656 -5.017,2.656 -3.42,0 -5.891,-2.632 -5.891,-5.992 0,-3.565 2.492,-5.994 5.595,-5.994 3.125,0 4.653,2.474 5.154,3.813 0,0 0.273,0.681 0.273,0.681 0,0 -8.05,3.315 -8.05,3.315 0.616,1.203 1.573,1.817 2.919,1.817 1.345,0 2.281,-0.659 2.964,-1.658 z m -6.317,-2.157 c 0,0 5.383,-2.224 5.383,-2.224 -0.297,-0.749 -1.186,-1.272 -2.236,-1.272 -1.345,0 -3.214,1.18 -3.147,3.496 z" id="path52"/>
</g>
<g id="g3">
<path fill="#5f6368" d="m 130.117,19.195 c 0,0 0,7.061 0,7.061 0,0 -2.116,0 -2.116,0 0,0 0,-16.4680002 0,-16.4680002 0,0 9.614,0 9.614,0 0,0 0,2.0230002 0,2.0230002 0,0 -7.498,0 -7.498,0 0,0 0,5.405 0,5.405 0,0 6.763,0 6.763,0 0,0 0,1.979 0,1.979 0,0 -6.763,0 -6.763,0 z" id="path10"/>
<path fill="#5f6368" d="m 138.574,20.621 c 0,-1.732 0.544,-3.166 1.633,-4.301 1.104,-1.135 2.492,-1.702 4.163,-1.702 1.672,0 3.051,0.567 4.14,1.702 1.104,1.135 1.656,2.569 1.656,4.301 0,1.748 -0.552,3.182 -1.656,4.301 -1.089,1.135 -2.468,1.702 -4.14,1.702 -1.671,0 -3.059,-0.567 -4.163,-1.702 -1.089,-1.135 -1.633,-2.569 -1.633,-4.301 z m 2.116,0 c 0,1.211 0.353,2.192 1.058,2.943 0.705,0.752 1.579,1.127 2.622,1.127 1.043,0 1.917,-0.375 2.622,-1.127 0.705,-0.751 1.058,-1.732 1.058,-2.943 0,-1.196 -0.353,-2.17 -1.058,-2.921 -0.721,-0.767 -1.595,-1.15 -2.622,-1.15 -1.028,0 -1.902,0.383 -2.622,1.15 -0.705,0.751 -1.058,1.725 -1.058,2.921 z" id="path14"/>
<path fill="#5f6368" d="m 151.965,14.986 c 0,0 2.024,0 2.024,0 0,0 0,1.563 0,1.563 0,0 0.092,0 0.092,0 0.322,-0.551 0.817,-1.011 1.484,-1.379 0.667,-0.369 1.36,-0.552 2.082,-0.552 1.38,0 2.441,0.394 3.184,1.184 0.744,0.789 1.116,1.913 1.116,3.37 0,0 0,7.084 0,7.084 0,0 -2.116,0 -2.116,0 0,0 0,-6.947 0,-6.947 -0.046,-1.84 -0.973,-2.76 -2.783,-2.76 -0.844,0 -1.549,0.342 -2.116,1.024 -0.568,0.683 -0.851,1.499 -0.851,2.449 0,0 0,6.234 0,6.234 0,0 -2.116,0 -2.116,0 0,0 0,-11.27 0,-11.27 z" id="path18"/>
<path fill="#5f6368" d="m 168.458,26.44 c -0.92,0 -1.684,-0.284 -2.289,-0.852 -0.606,-0.567 -0.916,-1.356 -0.932,-2.368 0,0 0,-6.302 0,-6.302 0,0 -1.977,0 -1.977,0 0,0 0,-1.931 0,-1.931 0,0 1.977,0 1.977,0 0,0 0,-3.451 0,-3.451 0,0 2.117,0 2.117,0 0,0 0,3.451 0,3.451 0,0 2.759,0 2.759,0 0,0 0,1.931 0,1.931 0,0 -2.759,0 -2.759,0 0,0 0,5.612 0,5.612 0,0.751 0.145,1.262 0.437,1.53 0.291,0.269 0.621,0.401 0.988,0.401 0.169,0 0.334,-0.018 0.495,-0.056 0.162,-0.038 0.311,-0.089 0.449,-0.151 0,0 0.667,1.886 0.667,1.886 -0.552,0.199 -1.197,0.3 -1.932,0.3 z" id="path22"/>
<path fill="#5f6368" d="m 180.503,23.128 c 0,0.981 -0.43,1.81 -1.288,2.484 -0.859,0.674 -1.941,1.012 -3.243,1.012 -1.135,0 -2.133,-0.296 -2.991,-0.886 -0.859,-0.589 -1.472,-1.368 -1.84,-2.334 0,0 1.885,-0.805 1.885,-0.805 0.277,0.675 0.679,1.2 1.208,1.576 0.529,0.375 1.109,0.563 1.738,0.563 0.675,0 1.238,-0.145 1.69,-0.437 0.452,-0.291 0.678,-0.636 0.678,-1.035 0,-0.721 -0.551,-1.249 -1.655,-1.587 0,0 -1.933,-0.483 -1.933,-0.483 -2.193,-0.552 -3.289,-1.61 -3.289,-3.174 0,-1.027 0.417,-1.852 1.253,-2.472 0.836,-0.621 1.906,-0.932 3.21,-0.932 0.996,0 1.897,0.238 2.702,0.713 0.805,0.476 1.368,1.111 1.689,1.909 0,0 -1.885,0.782 -1.885,0.782 -0.215,-0.475 -0.563,-0.847 -1.046,-1.116 -0.483,-0.267 -1.025,-0.402 -1.622,-0.402 -0.552,0 -1.047,0.138 -1.484,0.414 -0.437,0.276 -0.655,0.613 -0.655,1.012 0,0.644 0.606,1.104 1.816,1.38 0,0 1.704,0.437 1.704,0.437 2.238,0.552 3.358,1.679 3.358,3.381 z" id="path26"/>
</g>
</g>
<div xmlns="" id="divScriptsUsed" style="display: none"/><script xmlns="" id="globalVarsDetection" src="moz-extension://03c4ce15-fcbd-4695-aa01-4153fa7845d0/js/wrs_env.js"/></svg>