<svg viewBox="0 0 203 30" fill="none" xmlns="http://www.w3.org/2000/svg">
  <!-- Logo circle bottom -->
  <path className="face" d="M39.7356 1.5C46.9537 1.5 52.8051 7.35143 52.8051 14.5695C52.8051 21.7876 46.9537 27.6391 39.7356 27.6391C32.5174 27.6391 26.666 21.7876 26.666 14.5695C26.666 7.35143 32.5174 1.5 39.7356 1.5Z" fill="#FBDD74" stroke="#1f1235" stroke-width="3"></path>
  <!-- Logo circle middle -->
  <path className="face" d="M27.8137 1.5C35.0318 1.5 40.8832 7.35143 40.8832 14.5695C40.8832 21.7876 35.0318 27.6391 27.8137 27.6391C20.5956 27.6391 14.7441 21.7876 14.7441 14.5695C14.7441 7.35143 20.5956 1.5 27.8137 1.5Z" fill="#67568c" stroke="#1f1235" stroke-width="3"></path>
  <!-- Logo circle top -->
  <path className="face" d="M14.5695 1.5C21.7876 1.5 27.6391 7.35143 27.6391 14.5695C27.6391 21.7876 21.7876 27.6391 14.5695 27.6391C7.35143 27.6391 1.5 21.7876 1.5 14.5695C1.5 7.35143 7.35143 1.5 14.5695 1.5Z" fill="#F25A4E" stroke="#1f1235" stroke-width="3"></path>

  <path d="M81.6124 22H85.0609V5.91522H81.6124V12.2334H74.0161V5.91522H70.5918V22H74.0161V15.2478H81.6124V22Z" fill="#1f1235"></path>
  <path d="M95.1517 22H98.2143V14.4761C98.2143 11.1241 95.7787 10.063 93.126 10.063C91.2933 10.063 89.4605 10.6418 88.0378 11.8958L89.1953 13.9455C90.184 13.0292 91.3415 12.571 92.5955 12.571C94.1389 12.571 95.1517 13.3427 95.1517 14.5243V16.14C94.38 15.1995 93.0055 14.7172 91.4621 14.7172C89.6052 14.7172 87.4108 15.706 87.4108 18.431C87.4108 21.0354 89.6052 22.2894 91.4621 22.2894C92.9813 22.2894 94.3559 21.7347 95.1517 20.7942V22ZM95.1517 19.2026C94.6453 19.8779 93.6807 20.2155 92.692 20.2155C91.4862 20.2155 90.4975 19.5885 90.4975 18.5033C90.4975 17.394 91.4862 16.7429 92.692 16.7429C93.6807 16.7429 94.6453 17.0805 95.1517 17.7557V19.2026Z" fill="#1f1235"></path>
  <path d="M104.315 26.4372V20.5049C105.255 21.7106 106.533 22.2894 107.908 22.2894C110.898 22.2894 113.068 20.0467 113.068 16.1641C113.068 12.2816 110.898 10.063 107.908 10.063C106.485 10.063 105.207 10.69 104.315 11.8234V10.3524H101.252V26.4372H104.315ZM109.885 16.1641C109.885 18.1898 108.704 19.5644 106.943 19.5644C105.955 19.5644 104.821 18.9615 104.315 18.238V14.1144C104.821 13.3668 105.955 12.788 106.943 12.788C108.704 12.788 109.885 14.1626 109.885 16.1641Z" fill="#1f1235"></path>
  <path d="M118.421 26.4372V20.5049C119.362 21.7106 120.64 22.2894 122.014 22.2894C125.005 22.2894 127.175 20.0467 127.175 16.1641C127.175 12.2816 125.005 10.063 122.014 10.063C120.591 10.063 119.313 10.69 118.421 11.8234V10.3524H115.358V26.4372H118.421ZM123.992 16.1641C123.992 18.1898 122.81 19.5644 121.05 19.5644C120.061 19.5644 118.927 18.9615 118.421 18.238V14.1144C118.927 13.3668 120.061 12.788 121.05 12.788C122.81 12.788 123.992 14.1626 123.992 16.1641Z" fill="#1f1235"></path>
  <path d="M129.513 23.8086L129.055 26.5577C129.441 26.6542 130.212 26.7266 130.574 26.7266C132.576 26.6783 134.119 26.0996 134.987 23.9051L140.461 10.3524H137.158L134.119 18.4551L131.081 10.3524H127.801L132.527 22.1688L132.093 23.1575C131.804 23.7845 131.273 24.0015 130.478 24.0015C130.188 24.0015 129.778 23.9292 129.513 23.8086Z" fill="#1f1235"></path>
  <path d="M159.092 22H162.54V5.91522H159.092V12.2334H151.495V5.91522H148.071V22H151.495V15.2478H159.092V22Z" fill="#1f1235"></path>
  <path d="M173.499 22H176.562V10.3524H173.499V18.238C172.968 18.9133 172.028 19.5644 170.846 19.5644C169.544 19.5644 168.7 19.0338 168.7 17.4181V10.3524H165.637V18.6239C165.637 20.8907 166.843 22.2894 169.399 22.2894C171.305 22.2894 172.703 21.4212 173.499 20.529V22Z" fill="#1f1235"></path>
  <path d="M178.855 16.1641C178.855 19.902 181.532 22.2894 185.077 22.2894C186.885 22.2894 188.694 21.7588 189.876 20.6737L188.525 18.6962C187.778 19.4197 186.5 19.8537 185.414 19.8537C183.437 19.8537 182.255 18.6239 182.062 17.1529H190.72V16.4776C190.72 12.6674 188.356 10.063 184.884 10.063C181.339 10.063 178.855 12.788 178.855 16.1641ZM184.884 12.4986C186.909 12.4986 187.681 13.9697 187.753 15.079H182.014C182.159 13.9214 182.979 12.4986 184.884 12.4986Z" fill="#1f1235"></path>
  <path d="M191.919 20.4807C193.149 21.6142 195.102 22.2894 197.128 22.2894C200.359 22.2894 202.168 20.6978 202.168 18.5515C202.168 15.6577 199.491 15.1272 197.49 14.7413C196.187 14.4761 195.271 14.2108 195.271 13.4874C195.271 12.8121 195.994 12.4022 197.104 12.4022C198.527 12.4022 199.853 13.0051 200.552 13.7526L201.758 11.6546C200.625 10.7382 199.057 10.063 197.08 10.063C194.017 10.063 192.305 11.7752 192.305 13.7285C192.305 16.5018 194.885 16.9841 196.887 17.3699C198.213 17.6352 199.226 17.9245 199.226 18.7445C199.226 19.4679 198.599 19.9261 197.273 19.9261C195.826 19.9261 194.089 19.1303 193.245 18.3345L191.919 20.4807Z" fill="#1f1235"></path>

  <!-- Logo Eyes -->
  <circle cx="7.93819" cy="13.9382" r="1.93819" fill="#1f1235"></circle>
  <circle cx="21.9382" cy="13.9382" r="1.93819" fill="#1f1235"></circle>
  <!-- Logo Smile = -->
  <path d="M17 17C16.7135 17.3477 15.8807 18.5 14.5 18.5C13.1193 18.5 12.199 17.3477 12 17" stroke="#1f1235" stroke-width="1.93819" stroke-linecap="round"></path>
</svg>