<svg width="80" height="150" viewBox="0 0 70 150" fill="black" xmlns="http://www.w3.org/2000/svg">
<path fill-rule="evenodd" clip-rule="evenodd" d="M31.059 48L33.4319 50.2574C39.4133 55.9473 47.4809 59.432 56.3663 59.432C56.5077 59.432 56.649 59.4311 56.79 59.4294L59.3207 59.3978L60.1112 61.8128C61.4143 65.7941 62.1179 70.0446 62.1179 74.4532C62.1179 93.302 49.2835 109.131 31.9191 113.62L31.059 113.843L30.1988 113.62C12.8344 109.131 0 93.302 0 74.4532C0 70.0446 0.703574 65.7941 2.00672 61.8128L2.7972 59.3978L5.32792 59.4294C5.46894 59.4311 5.61019 59.432 5.75166 59.432C14.637 59.432 22.7046 55.9473 28.686 50.2574L31.059 48ZM7.89346 66.3085C7.24622 68.913 6.90199 71.6407 6.90199 74.4532C6.90199 89.7494 17.1086 102.659 31.0589 106.671C45.0093 102.659 55.2159 89.7494 55.2159 74.4532C55.2159 71.6407 54.8717 68.913 54.2245 66.3085C45.4708 65.8472 37.454 62.5752 31.059 57.3783C24.6639 62.5752 16.6471 65.8472 7.89346 66.3085Z" fill="black"/>
</svg>