<?xml version="1.0" standalone="no"?>
<!DOCTYPE svg PUBLIC "-//W3C//DTD SVG 20010904//EN"
 "http://www.w3.org/TR/2001/REC-SVG-20010904/DTD/svg10.dtd">
<svg version="1.0" xmlns="http://www.w3.org/2000/svg"
 width="400.000000pt" height="100.000000pt" viewBox="0 0 400.000000 100.000000"
 preserveAspectRatio="xMidYMid meet">

<g transform="translate(0.000000,100.000000) scale(0.100000,-0.100000)"
fill="#000000" stroke="none">
<path d="M308 793 c-59 -27 -69 -41 -43 -63 12 -10 15 -46 15 -205 0 -159 -3
-195 -15 -205 -8 -7 -15 -19 -15 -26 0 -11 21 -14 95 -14 52 0 95 3 95 8 0 4
-7 18 -16 30 -12 18 -16 48 -16 130 1 98 3 108 23 125 19 15 25 16 43 4 11 -8
24 -32 29 -53 9 -44 4 -187 -8 -221 -7 -23 -6 -23 77 -23 47 0 88 3 91 7 4 3
0 17 -8 29 -8 13 -19 67 -24 123 -10 109 -26 148 -71 175 -35 20 -100 21 -126
1 -10 -8 -22 -15 -26 -15 -5 0 -8 50 -8 110 0 127 2 125 -92 83z"/>
<path d="M750 621 c-64 -9 -75 -18 -57 -45 9 -13 16 -58 19 -117 3 -69 9 -104
21 -122 39 -61 117 -82 179 -49 34 18 38 18 53 3 10 -10 32 -16 61 -15 56 1
74 16 51 42 -13 15 -17 45 -19 162 l-3 145 -54 -3 c-30 -2 -65 -8 -78 -13 -23
-8 -23 -10 -7 -34 13 -20 16 -47 15 -127 -2 -108 -9 -128 -46 -128 -39 0 -44
20 -47 166 -3 157 2 148 -88 135z"/>
<path d="M1183 600 c-35 -16 -63 -32 -63 -35 0 -4 9 -18 20 -32 16 -21 20 -41
20 -107 0 -57 -5 -88 -15 -102 -29 -39 -20 -44 75 -44 95 0 101 4 74 45 -13
19 -15 46 -12 130 3 92 6 109 22 121 26 19 32 18 57 -7 18 -18 20 -30 16 -132
-2 -62 -7 -122 -11 -134 -8 -23 -7 -23 79 -23 86 0 87 0 80 23 -13 36 -21 220
-12 248 10 31 39 42 63 24 13 -9 19 -38 27 -119 9 -94 8 -111 -6 -135 -9 -16
-14 -31 -10 -35 11 -11 173 -7 173 4 0 6 -6 23 -14 38 -7 15 -16 66 -19 114
-8 119 -38 172 -105 184 -43 8 -109 -11 -122 -36 -10 -19 -11 -19 -31 1 -43
43 -114 51 -166 19 -33 -20 -33 -20 -33 0 0 26 -13 25 -87 -10z"/>
<path d="M1860 619 c-60 -24 -82 -86 -40 -109 32 -17 58 -3 79 46 14 30 26 44
39 44 29 0 42 -22 49 -80 6 -52 6 -52 -17 -40 -31 17 -106 7 -139 -17 -53 -40
-52 -127 2 -167 36 -27 138 -30 163 -4 16 16 18 16 30 0 9 -12 26 -16 68 -15
72 2 80 8 57 41 -12 17 -24 59 -30 111 -14 109 -35 150 -91 179 -47 24 -125
29 -170 11z m130 -188 c11 -22 13 -80 4 -105 -9 -22 -51 -20 -64 3 -11 22 -14
104 -3 114 13 14 53 6 63 -12z"/>
<path d="M2260 619 c-60 -24 -82 -86 -40 -109 32 -17 58 -3 79 46 14 30 26 44
39 44 29 0 42 -22 49 -80 6 -52 6 -52 -17 -40 -31 17 -106 7 -139 -17 -53 -40
-52 -127 2 -167 36 -27 138 -30 163 -4 16 16 18 16 30 0 9 -12 26 -16 68 -15
72 2 80 8 57 41 -12 17 -24 59 -30 111 -14 109 -35 150 -91 179 -47 24 -125
29 -170 11z m130 -188 c11 -22 13 -80 4 -105 -9 -22 -51 -20 -64 3 -11 22 -14
104 -3 114 13 14 53 6 63 -12z"/>
<path d="M2653 616 c-17 -8 -39 -26 -48 -40 -16 -24 -16 -28 -1 -51 29 -43 63
-32 92 30 12 26 27 41 41 43 26 4 39 -16 48 -80 l7 -47 -35 11 c-120 37 -222
-89 -139 -172 38 -38 110 -50 159 -26 28 13 38 14 50 4 18 -15 111 -14 126 1
7 7 6 16 -6 28 -10 12 -20 54 -28 111 -13 99 -31 138 -82 176 -35 26 -138 33
-184 12z m135 -191 c26 -56 10 -115 -30 -115 -30 0 -57 85 -38 121 15 28 54
24 68 -6z"/>
<path d="M3043 600 c-35 -16 -63 -33 -63 -38 0 -5 9 -17 20 -27 17 -16 20 -31
20 -110 0 -70 -4 -96 -15 -105 -8 -7 -15 -19 -15 -26 0 -11 21 -14 95 -14 52
0 95 3 95 8 0 4 -7 17 -15 28 -10 15 -15 53 -16 130 -1 100 0 109 21 126 16
13 27 15 40 8 26 -14 31 -34 37 -142 5 -79 3 -102 -10 -121 -9 -14 -13 -27
-10 -31 4 -3 44 -6 91 -6 83 0 84 0 77 23 -4 12 -12 54 -17 92 -19 140 -28
171 -58 200 -36 35 -103 44 -148 21 -18 -9 -32 -21 -32 -26 0 -6 -4 -10 -10
-10 -5 0 -9 10 -7 21 3 32 -11 31 -80 -1z"/>
<path d="M3503 611 c-47 -22 -63 -45 -63 -93 0 -50 23 -73 101 -103 48 -19 74
-35 81 -51 13 -27 5 -52 -18 -61 -24 -9 -46 8 -69 53 -16 31 -27 40 -51 42
-38 4 -59 -18 -50 -53 20 -78 213 -99 282 -30 29 30 33 92 7 123 -10 12 -43
31 -73 42 -30 12 -63 29 -72 37 -22 20 -23 56 -3 73 22 18 44 5 61 -35 8 -20
26 -41 40 -47 21 -10 28 -8 47 10 20 21 21 24 7 50 -33 59 -144 80 -227 43z"/>
</g>
</svg>
