<svg xmlns="http://www.w3.org/2000/svg" xml:space="preserve" viewBox="0 0 542 542">
  <path
    d="M221.321671 526.832275c-8.327942-.962036-16.235871-1.609436-24.035126-2.908935-15.000183-2.499268-30.096131-4.70929-44.866394-8.236694-22.506378-5.37497-43.707016-14.468567-62.575302-27.883362-16.547425-11.76474-30.106873-26.646088-40.493939-44.34552-14.967006-25.503632-23.078432-53.257691-27.227255-82.23642-2.317442-16.18689-4.23065-32.509125-4.938789-48.830536-1.023829-23.597565-1.657881-47.277954-.891167-70.87207 1.195006-36.773865 5.565922-73.186524 17.84033-108.223938C51.678452 83.214111 85.843239 50.007862 135.98114 33.192097c22.541046-7.560046 45.822891-11.595406 69.443573-14.312458 32.022308-3.683482 64.13794-3.540755 96.195374-2.596623 37.452758 1.103029 74.520843 5.602671 110.193969 18.335297 49.879364 17.803192 82.598633 52.026592 99.149048 102.087772 6.560578 19.844055 10.336273 40.235077 13.166596 60.926316 4.910644 35.900405 4.624206 71.963668 3.464904 107.962875-1.112731 34.557037-5.449951 68.848602-16.652801 101.868927-8.271942 24.381348-20.392426 46.506988-38.809479 64.821106-20.909881 20.792908-46.373077 33.552917-74.374756 41.640655-23.121734 6.678284-46.723419 11.094544-70.77893 11.964051-29.747284 1.075195-59.523499 1.384277-89.289734 1.868835-5.293045.086182-10.598435-.584961-16.367233-.926575m22.755218-485.169002c-6.042511.384361-12.085037.768726-19.038666 1.016247-9.699966 1.057068-19.399948 2.114135-29.971069 3.102028-11.020798 2.128097-22.041611 4.256198-33.828842 6.360424-5.087265 1.597202-10.174515 3.194408-16.019043 4.800514-3.21019 1.273689-6.42038 2.547375-10.192414 3.843151-.340637.148834-.681289.297665-1.708251.568268-6.002221 3.081367-12.004441 6.162727-18.653801 9.325424-1.623108 1.072639-3.246224 2.145271-5.528382 3.373154-6.403511 5.263565-12.807014 10.52713-19.829437 16.066124-11.539108 11.744529-20.520546 25.156776-27.027046 41.010894-1.780148 4.951249-3.560295 9.902497-5.833321 15.367554-.729427 2.504257-1.458855 5.008499-2.478626 8.221863-.386349 1.737457-.772694 3.47493-1.630131 5.736709-.167427 1.160126-.334854 2.320267-.996242 4.052582-2.794625 19.830567-5.589249 39.661118-8.680806 60.272598-.408134 8.368042-.816269 16.736084-1.450794 25.889084-.013622 4.109467-.027241 8.218933-.186405 13.253785.048092 5.357482.096188 10.714965.002796 16.748382.056038.453705.112076.90741.042565 2.139008.064804 1.042999.129612 2.085968.07135 3.822815.041603.466095.083206.932159-.027596 1.863891 0 0 .152126.465698.053936 1.346924.163643 2.053253.32729 4.106476.21574 6.922455.240754 3.41095.481507 6.821899.580696 11.082092.068615 1.716705.13723 3.433441.106038 5.84668.221496 1.125671.442993 2.251373.518051 4.237213.183315 2.022461.36663 4.044891.428531 6.884644.330727 2.393676.661454 4.787323.867951 8.037933.175144 1.715637.350288 3.431274.502991 5.922119.462062 2.857269.924125 5.714539 1.306953 9.358154.40266 2.286988.805321 4.573944 1.120285 7.633118.362255 1.744415.724506 3.4888 1.003086 6.074524 1.026459 4.719543 2.052918 9.439056 3.020325 14.973541.907608 3.444428 1.81522 6.888886 2.846725 11.128388 2.147251 6.35202 4.294506 12.70404 6.453171 19.791717 5.572891 10.467285 10.324028 21.486572 16.901665 31.278961 11.2714 16.780152 26.387291 29.575745 45.384201 38.556671 4.859871 2.098908 9.719734 4.197815 15.159813 6.749085 9.804809 2.884582 19.609619 5.769165 30.114593 9.01004 8.091141 1.480194 16.182297 2.960388 25.094071 4.666504 15.401169 1.317536 30.802353 2.635071 47.032806 4.17627 8.72464.217773 17.449295.435547 27.101608.795532 7.023224-.089569 14.046448-.179138 21.76413-.11438.463623-.073334.927216-.146667 2.231628-.073669 2.510193-.22287 5.020386-.44571 8.315705-.412262 1.92041-.140412 3.84082-.280823 6.674865-.266114 5.69571-.4039 11.391388-.807769 17.751374-1.083557.44458-.06076.88919-.121521 2.186981-.082916 6.776886-.785248 13.553741-1.570496 21.205414-2.359711 10.997253-2.127807 21.994537-4.255615 33.797882-6.386627 11.440979-3.906067 22.881958-7.812134 35.036713-11.927948 6.059356-3.355957 12.118682-6.711914 18.853118-10.248657 3.119629-2.324738 6.239258-4.649445 9.994812-7.174561 2.799408-2.595642 5.598816-5.191284 9.014527-8.034515 2.735534-3.414307 5.471069-6.828613 8.722626-10.609009 2.98468-4.000519 5.96939-8.001068 9.42749-12.486847 2.374176-4.566925 4.748321-9.13385 7.674499-14.134643 3.778412-10.852509 7.556855-21.705017 11.698212-33.160401.306091-1.591675.612213-3.183349 1.386749-5.173279.043732-.400512.087464-.801025.345886-1.701049-.018249-.180359-.036468-.360688.309876-1.218201.255188-1.776337.510376-3.552673.868469-6.062134.527558-2.086304 1.055145-4.172638 1.838898-7.040283 2.169159-23.063141 4.338318-46.126251 6.728973-69.928253-.05838-.762757-.11676-1.525513.015351-3.147705-.021149-2.047943-.042298-4.095917.104553-7.066712-.015351-6.02539-.030701-12.050781.085785-18.92511-.307678-7.383422-.615387-14.766815-.745758-23.071853-.457856-7.360092-.915711-14.720185-1.308197-22.895798-.337586-2.728744-.675171-5.457474-.942017-9.031067-.313293-1.079773-.77829-2.140686-.915436-3.242386-.914123-7.343231-1.758209-14.695175-2.684387-22.873306-.360931-1.742767-.663879-3.499939-1.092438-5.225922-2.332122-9.392929-4.695221-18.778152-7.069824-28.905883-4.134338-9.863221-8.268677-19.726441-12.452881-29.684754 0 0-.097809-.044357.024384-.371811-.257202-.200653-.514374-.401306-1.131348-1.225479-5.535187-11.426552-13.073303-21.329277-22.872833-30.326164-3.430481-2.808441-6.860962-5.61689-10.619843-8.93293-.375396-.076286-.750793-.152573-1.571746-.35949 0 0-.460907-.056159-.765717-.693038-1.1745-.843522-2.318268-1.734215-3.528198-2.523423-15.516907-10.121132-32.313721-17.289081-51.077881-22.007412-5.021454-1.248432-9.977814-3.019413-15.075684-3.65401-21.042389-2.619427-42.079712-5.557103-63.212311-7.086197-16.899566-1.222802-33.934234-.578442-51.579895-.894863-.447067.072139-.894134.144279-2.157714.047569-2.395691.227814-4.791367.455627-8.103867.469696z" />
  <path
    d="M129.194778 225.457748c2.594742-6.510131 5.161499-12.620391 7.77472-19.09053 7.526016-14.037842 15.405304-27.586029 27.053421-38.103638 10.027725-9.054519 21.073349-16.98172 31.888977-25.649078 16.795959-9.342102 34.222641-15.955574 53.027374-18.764732 37.970612-5.672265 72.963287 2.2024 105.220306 22.800682.69925.446518 1.410798.873748 2.451996 1.413589 13.6922 10.143051 26.447205 20.940491 35.746247 34.94043 6.689972 10.071884 12.143035 20.965347 18.37677 31.75148.490997 1.073624.753082 1.888077 1.197265 3.288605.428345.903564.674591 1.221023.920838 1.538467 2.901214 13.771011 6.683502 27.427841 8.486511 41.341171 2.398071 18.505066-.412384 36.820282-5.886353 54.639374-.69519 2.263062-2.291992 4.423218-3.946563 6.184296-4.668427 4.969055-9.584473 9.705444-14.834229 14.991699-3.548035 3.695709-6.664825 6.933258-9.781616 10.170776-.000031 0 .087067.061921-.203064.08313-.477875.324738-.665558.628266-.853272.931793-16.583221 16.463196-33.166473 32.926362-49.891235 49.698975-4.345062 4.396545-8.548614 8.483643-12.888061 12.869202-7.174256 7.173675-16.67688 7.353149-25.429383 9.237426-6.44989 1.388581-13.168915 1.5271-20.615143 2.243531-2.22995.077453-3.612732.134002-4.995544.190552-1.0737-.043824-2.14743-.087647-3.866791-.140046-.81195.030457-.97818.069489-1.144378.10846-1.766816-.110443-3.533661-.220917-5.641571-.274658-13.270539-2.757569-26.527726-4.555848-39.060807-8.598847-25.711303-8.293915-46.959366-23.728912-64.935714-44.262817-.277268-.47934-.38469-.745941-.945679-1.353577-1.340943-1.517822-2.355332-2.643432-3.369721-3.769012-8.921341-12.912293-17.171539-26.185822-22.37033-41.540528-5.262948-15.49826-8.313775-31.025024-8.6764-47.045807-.382103-16.881103 2.283478-33.314849 7.191429-49.830368m233.729142 112.37526c2.412384-2.518158 4.824737-5.036316 7.837249-7.869568 2.848877-2.938782 5.697754-5.877564 9.122986-9.122925 2.809876-2.897919 5.619751-5.795837 9.010987-9.007324 1.983062-2.569641 5.031341-4.86673 5.770202-7.7547 3.781372-14.780273 5.776001-29.794311 3.363861-45.902679-.649902-3.724762-1.299774-7.449509-1.936554-11.992234-3.967437-10.84082-7.934875-21.68164-12.020904-33.204284-6.50409-9.049881-13.008148-18.099747-19.842163-27.777207-4.372254-3.745452-8.744507-7.490921-13.358704-11.882827-1.36441-1.193253-2.638672-2.512757-4.106537-3.561142-30.472473-21.763642-64.194763-28.944123-100.787918-21.548935-19.300598 3.900482-37.006225 11.765243-52.774734 24.913955-1.435593 1.276551-2.871186 2.553101-4.855194 4.064682-.832825.833512-1.66565 1.667008-3.097718 2.819977-2.188003 2.281555-4.375992 4.563126-7.098083 7.216507-5.013718 6.927429-10.027451 13.854843-15.509537 21.29538-1.889206 3.82344-3.778412 7.646881-6.177612 11.930527-1.097946 2.518005-2.195893 5.03601-3.478501 8.302063-.870407 3.005493-1.740814 6.011001-2.9449 9.64096-.641602 2.871079-1.283203 5.742172-2.16658 9.341477-.25531 1.758117-.51062 3.51622-1.039887 6.071411-.473373 5.08139-1.264252 10.156708-1.361465 15.2453-.309281 16.19101 1.850418 32.005737 8.225967 47.843994 4.66185 12.39209 10.537415 24.091126 19.644959 34.689728 7.638199 7.373718 14.633133 15.596863 23.03627 21.960449 24.332107 18.426392 52.008911 26.857025 83.446182 25.172882 8.493744-1.522796 16.987518-3.045593 26.158386-4.552459 2.053833-1.947663 4.107636-3.895295 6.76709-6.161408 4.199555-4.293182 8.399078-8.586365 13.175324-13.16513 10.80487-10.905426 21.609741-21.810883 32.982879-32.974183 1.150147-1.239227 2.300293-2.478454 4.014649-4.032287z" />
  <path
    d="M233.486084 231.936005c3.506638 5.023071 4.46196 10.338592 2.981964 16.744018-2.43483 3.521347-4.559601 6.356674-6.684372 9.192017-12.346664 4.949402-20.420975 2.294494-26.112457-8.775086-.319336-3.497299-.438812-6.739837-.557251-10.418945 3.64888-8.073791 8.682541-13.852585 18.13118-12.582626 2.994613.402496 5.838134 1.929168 9.102966 2.993698 1.19165.936645 2.031143 1.820999 3.13797 2.846924zM331.799896 326.535645c-1.325561 1.391113-2.493927 2.476562-3.781799 3.836364-17.497894 15.771332-37.740784 23.376374-61.556336 22.469757-9.863433-2.508148-19.745636-3.992797-28.567428-7.882446-17.072724-7.527588-30.16333-19.816101-37.933457-37.606049.85466-3.433074 1.816788-6.514709 2.930451-9.916259 11.784439-5.218842 13.883346-4.474945 21.867432 7.737488 16.024719 21.834167 44.275909 30.377929 67.234161 20.71408 2.139587-.890503 4.279205-1.780975 7.041565-2.927765 3.606232-2.412139 6.589661-4.568023 9.880493-6.821167 2.464264-2.339325 4.621033-4.58142 6.777832-6.823516 2.090515-2.79715 4.18103-5.5943 6.657837-8.912079 8.044769-7.305237 15.697937-5.383087 20.760376 4.596466-1.371704 4.076904-2.743439 8.153808-4.225891 12.571014-2.383179 3.113007-4.655609 5.885712-7.085236 8.964112zM332.170532 258.618713c-12.42572 3.995545-20.056152.727539-25.028717-10.983062-1.037567-2.443589-.287964-5.646027-.305877-8.938614 3.195739-9.392075 8.330413-12.92833 17.86087-12.702088 7.040222.167115 13.425964 4.971878 15.633148 11.76265 2.555206 7.861435-.225769 15.060348-8.159424 20.861114z" />
</svg>