<?xml version="1.0" standalone="no"?>
<!DOCTYPE svg PUBLIC "-//W3C//DTD SVG 20010904//EN"
 "http://www.w3.org/TR/2001/REC-SVG-20010904/DTD/svg10.dtd">
<svg version="1.0" xmlns="http://www.w3.org/2000/svg"
 width="204.000000pt" height="204.000000pt" viewBox="0 0 204.000000 204.000000"
 preserveAspectRatio="xMidYMid meet">

<g transform="translate(0.000000,204.000000) scale(0.100000,-0.100000)"
fill="#000000" stroke="none">
<path d="M1008 1733 c6 -2 18 -2 25 0 6 3 1 5 -13 5 -14 0 -19 -2 -12 -5z"/>
<path d="M1050 1726 c0 -2 8 -10 18 -17 15 -13 16 -12 3 4 -13 16 -21 21 -21
13z"/>
<path d="M1136 1639 c31 -37 32 -42 25 -167 -1 -7 -15 3 -32 23 -17 19 -35 35
-39 35 -5 0 32 -43 82 -95 82 -86 94 -95 127 -95 45 0 61 14 61 55 0 26 -19
49 -127 155 -70 69 -113 109 -97 89z"/>
<path d="M1458 1259 c-10 -5 -18 -15 -18 -20 0 -6 7 -3 16 5 22 23 48 20 86
-10 l33 -26 -33 31 c-34 32 -55 37 -84 20z"/>
<path d="M1431 1204 c0 -11 3 -14 6 -6 3 7 2 16 -1 19 -3 4 -6 -2 -5 -13z"/>
<path d="M1570 1198 c3 -2 28 -24 55 -48 48 -42 48 -42 15 -6 -19 21 -44 42
-55 48 -11 6 -18 9 -15 6z"/>
<path d="M1450 1157 c0 -2 19 -19 43 -37 37 -29 39 -30 17 -6 -23 25 -60 52
-60 43z"/>
<path d="M924 1098 l-19 -23 23 19 c21 18 27 26 19 26 -2 0 -12 -10 -23 -22z"/>
<path d="M1105 1100 c10 -11 20 -20 23 -20 3 0 -3 9 -13 20 -10 11 -20 20 -23
20 -3 0 3 -9 13 -20z"/>
<path d="M823 1085 c-3 -9 -3 -18 -1 -21 3 -3 8 4 11 16 6 23 -1 27 -10 5z"/>
<path d="M1211 1064 c0 -11 3 -14 6 -6 3 7 2 16 -1 19 -3 4 -6 -2 -5 -13z"/>
<path d="M1542 1058 c7 -15 15 -23 17 -17 2 6 -4 18 -13 27 -15 15 -15 15 -4
-10z"/>
<path d="M1717 1053 c17 -32 17 -34 0 -65 l-17 -33 20 24 c11 13 20 31 20 41
0 10 -9 28 -20 41 l-20 24 17 -32z"/>
<path d="M812 1020 c0 -14 2 -19 5 -12 2 6 2 18 0 25 -3 6 -5 1 -5 -13z"/>
<path d="M891 1014 c0 -11 3 -14 6 -6 3 7 2 16 -1 19 -3 4 -6 -2 -5 -13z"/>
<path d="M1141 1014 c0 -11 3 -14 6 -6 3 7 2 16 -1 19 -3 4 -6 -2 -5 -13z"/>
<path d="M1221 1014 c0 -11 3 -14 6 -6 3 7 2 16 -1 19 -3 4 -6 -2 -5 -13z"/>
<path d="M820 970 c0 -51 104 -151 156 -149 13 0 11 3 -8 9 -56 17 -97 51
-122 102 -14 29 -26 46 -26 38z"/>
<path d="M1192 929 c-23 -48 -65 -82 -120 -99 -19 -6 -21 -9 -8 -9 35 -2 105
48 132 94 14 25 24 49 22 53 -1 5 -13 -13 -26 -39z"/>
<path d="M930 935 c13 -14 26 -25 28 -25 3 0 -5 11 -18 25 -13 14 -26 25 -28
25 -3 0 5 -11 18 -25z"/>
<path d="M1099 933 l-24 -28 28 24 c25 23 32 31 24 31 -2 0 -14 -12 -28 -27z"/>
<path d="M1629 893 l-24 -28 28 24 c25 23 32 31 24 31 -2 0 -14 -12 -28 -27z"/>
<path d="M980 900 c8 -5 26 -10 39 -10 32 0 24 6 -19 14 -25 4 -31 3 -20 -4z"/>
<path d="M1008 813 c6 -2 18 -2 25 0 6 3 1 5 -13 5 -14 0 -19 -2 -12 -5z"/>
<path d="M1167 600 c-53 -56 -88 -96 -78 -91 10 6 31 24 45 42 25 30 26 30 27
7 6 -95 0 -131 -27 -162 -16 -17 29 25 99 94 108 106 127 129 127 155 0 41
-16 55 -60 55 -33 0 -46 -9 -133 -100z"/>
<path d="M1059 323 c-13 -16 -12 -17 4 -4 9 7 17 15 17 17 0 8 -8 3 -21 -13z"/>
<path d="M1008 303 c6 -2 18 -2 25 0 6 3 1 5 -13 5 -14 0 -19 -2 -12 -5z"/>
</g>
</svg>
