<?xml version="1.0" standalone="no"?>
<!DOCTYPE svg PUBLIC "-//W3C//DTD SVG 20010904//EN"
 "http://www.w3.org/TR/2001/REC-SVG-20010904/DTD/svg10.dtd">
<svg version="1.0" xmlns="http://www.w3.org/2000/svg"
 width="300.000000pt" height="300.000000pt" viewBox="0 0 300.000000 300.000000"
 preserveAspectRatio="xMidYMid meet">

<g transform="translate(0.000000,300.000000) scale(0.100000,-0.100000)"
fill="#000000" stroke="none">
<path d="M1002 2007 c-402 -202 -506 -258 -522 -282 -18 -28 -20 -48 -20 -265
0 -216 2 -238 20 -267 16 -27 82 -64 429 -238 226 -113 413 -205 416 -205 3 0
5 123 5 274 l0 273 -175 84 c-96 46 -175 87 -175 91 0 4 89 51 198 104 108 53
230 112 270 131 l72 36 0 258 c0 143 -3 259 -7 258 -5 0 -234 -114 -511 -252z"/>
<path d="M1680 2000 l0 -261 181 -87 182 -87 -174 -85 c-96 -47 -219 -107
-274 -135 l-100 -50 -3 -272 c-1 -150 0 -273 3 -273 3 0 233 114 513 254 424
212 510 259 525 284 15 26 17 59 17 264 0 213 -2 236 -20 265 -16 27 -82 64
-429 238 -226 113 -413 205 -416 205 -3 0 -5 -117 -5 -260z"/>
</g>
</svg>
