<svg xmlns="http://www.w3.org/2000/svg" xmlns:xlink="http://www.w3.org/1999/xlink" width="24px" height="24px"
  viewBox="0 0 24 24" version="1.1">
  <script xmlns="" />
  <title>logo (1)</title>
  <g id="页面-1" stroke="none" stroke-width="1" fill="none" fill-rule="evenodd">
    <g id="logo-(1)" fill-rule="nonzero">
      <rect id="矩形" fill-opacity="0.01" fill="#FFFFFF" x="0" y="0" width="24" height="24" />
      <path
        d="M1.94935,3.91175 C1.97329,3.48082 2.43073,3.21536 2.81675,3.40838 L7.65268,5.82634 C7.86403,5.93201 7.99367,6.15189 7.98383,6.38798 L7.51526,17.6338 C7.50589,17.8586 7.37152,18.0593 7.16721,18.1536 L1.90585,20.5819 C1.49508,20.7715 1.03025,20.4556 1.05534,20.0039 L1.94935,3.91175 Z"
        id="路径" fill="#000000" />
      <path
        d="M22.0507,3.91175 C22.0267,3.48082 21.5693,3.21536 21.1832,3.40838 L16.3473,5.82634 C16.136,5.93201 16.0063,6.15189 16.0162,6.38798 L16.4847,17.6338 C16.4941,17.8586 16.6285,18.0593 16.8328,18.1536 L22.0941,20.5819 C22.5049,20.7715 22.9698,20.4556 22.9447,20.0039 L22.0507,3.91175 Z"
        id="路径" fill="#000000" />
      <path
        d="M8.96907,6.77336 C8.98357,6.41065 9.36759,6.1838 9.69227,6.34614 L11.5528,7.27639 C11.8343,7.41716 12.1657,7.41716 12.4472,7.27639 L14.3077,6.34614 C14.6324,6.1838 15.0164,6.41065 15.0309,6.77337 L15.4784,17.9603 C15.4919,18.2971 15.3348,18.618 15.0604,18.814 L12.3487,20.7509 C12.1401,20.8999 11.8599,20.8999 11.6513,20.7509 L8.93955,18.814 C8.66525,18.618 8.50812,18.2971 8.52159,17.9603 L8.96907,6.77336 Z"
        id="路径" fill="#000000" />
    </g>
  </g>
</svg>