<svg version="1.0" xmlns="http://www.w3.org/2000/svg"
 width="192.000000pt" height="192.000000pt" viewBox="0 0 192.000000 192.000000"
 preserveAspectRatio="xMidYMid meet">

<g transform="translate(0.000000,192.000000) scale(0.100000,-0.100000)"
fill="#000000" stroke="none">
<path d="M0 960 l0 -960 960 0 960 0 0 960 0 960 -960 0 -960 0 0 -960z m1041
407 l76 -242 251 -5 251 -5 -191 -130 c-105 -71 -195 -133 -201 -136 -6 -5 17
-91 62 -234 40 -125 71 -231 69 -236 -2 -5 -89 52 -193 127 -105 75 -194 138
-200 140 -5 2 -98 -59 -205 -135 -107 -77 -196 -136 -198 -131 -2 4 29 110 69
234 39 125 70 228 68 230 -2 1 -83 56 -179 121 -96 65 -183 125 -194 134 -17
15 2 16 230 21 l248 5 75 242 c42 134 78 243 81 243 3 0 39 -109 81 -243z"/>
</g>
</svg>