<?xml version="1.0" standalone="no"?>
<!DOCTYPE svg PUBLIC "-//W3C//DTD SVG 20010904//EN"
 "http://www.w3.org/TR/2001/REC-SVG-20010904/DTD/svg10.dtd">
<svg version="1.0" xmlns="http://www.w3.org/2000/svg"
 width="474.000000pt" height="106.000000pt" viewBox="0 0 474.000000 106.000000"
 preserveAspectRatio="xMidYMid meet">

<g transform="translate(0.000000,106.000000) scale(0.100000,-0.100000)"
fill="#000000" stroke="none">
<path d="M452 597 c-325 -325 -340 -344 -294 -362 20 -7 674 642 670 665 -2 8
-14 16 -28 18 -21 2 -78 -50 -348 -321z"/>
<path d="M3946 513 c-42 -159 -80 -296 -82 -305 -4 -15 1 -18 34 -18 l39 0 78
293 c43 160 80 298 83 305 3 8 -8 12 -35 12 l-39 0 -78 -287z"/>
<path d="M4602 788 c-30 -30 7 -95 47 -81 20 7 41 32 41 49 0 35 -62 58 -88
32z"/>
<path d="M1770 525 l0 -255 45 0 45 0 0 129 c0 147 8 167 72 177 30 5 41 2 62
-19 25 -25 26 -30 26 -157 l0 -130 45 0 45 0 0 135 c0 154 -14 206 -61 230
-56 29 -153 12 -178 -32 -8 -13 -10 8 -11 80 l0 97 -45 0 -45 0 0 -255z"/>
<path d="M2870 685 l0 -97 -35 31 c-29 25 -44 31 -84 31 -96 0 -153 -70 -155
-188 0 -92 31 -157 88 -183 70 -32 119 -23 163 29 l23 27 0 -32 c0 -32 1 -33
45 -33 l45 0 -2 253 -3 252 -42 3 -43 3 0 -96z m-35 -129 c47 -47 45 -148 -5
-198 -34 -34 -70 -36 -105 -5 -42 36 -51 105 -23 178 19 51 93 65 133 25z"/>
<path d="M1444 636 c-43 -19 -64 -53 -64 -102 0 -55 37 -88 117 -105 71 -15
103 -33 103 -59 0 -25 -29 -40 -79 -40 -31 0 -43 6 -58 26 -17 22 -24 25 -56
19 -44 -8 -46 -23 -11 -64 43 -52 144 -66 220 -32 52 24 74 55 74 104 0 47
-31 81 -89 96 -22 6 -59 16 -81 21 -73 19 -72 74 2 86 31 5 41 2 64 -21 22
-22 32 -26 60 -20 19 3 34 11 34 18 0 21 -30 56 -60 72 -36 19 -134 19 -176 1z"/>
<path d="M2274 636 c-29 -13 -74 -59 -74 -77 0 -4 16 -11 36 -15 28 -5 40 -2
58 15 12 11 36 24 53 27 26 5 37 1 57 -19 46 -46 30 -66 -63 -77 -118 -15
-151 -42 -151 -122 0 -36 6 -50 29 -72 52 -50 159 -45 196 8 15 20 15 20 15
-7 0 -25 3 -27 45 -27 l45 0 -1 133 c0 153 -10 192 -58 224 -40 27 -135 31
-187 9z m156 -217 c0 -43 -16 -69 -54 -84 -45 -19 -88 -7 -100 28 -16 44 18
63 147 86 4 0 7 -13 7 -30z"/>
<path d="M3128 630 c-50 -27 -79 -78 -85 -150 -13 -141 79 -237 209 -216 76
12 110 41 132 114 7 20 4 22 -36 22 -37 0 -45 -4 -60 -30 -32 -57 -118 -47
-144 16 -28 67 -10 159 35 184 37 19 78 12 104 -20 21 -24 34 -30 65 -30 37 0
40 2 35 23 -10 38 -44 79 -79 93 -48 20 -132 17 -176 -6z"/>
<path d="M3460 460 l0 -190 45 0 45 0 0 120 c0 129 9 162 47 179 37 17 62 13
88 -14 24 -23 25 -29 25 -155 l0 -130 45 0 45 0 0 140 c0 155 -11 194 -60 224
-16 9 -50 16 -78 16 -43 0 -55 -5 -81 -31 l-31 -31 0 31 c0 30 -1 31 -45 31
l-45 0 0 -190z"/>
<path d="M4162 498 c3 -140 5 -156 26 -185 43 -61 137 -67 192 -11 l30 30 0
-31 c0 -30 1 -31 45 -31 l45 0 0 190 0 190 -45 0 -45 0 0 -126 c0 -125 0 -126
-29 -155 -36 -36 -73 -37 -106 -4 -24 23 -25 29 -25 155 l0 130 -46 0 -46 0 4
-152z"/>
<path d="M4590 460 l0 -190 45 0 45 0 0 190 0 190 -45 0 -45 0 0 -190z"/>
<path d="M671 387 c-173 -175 -195 -206 -147 -215 27 -6 368 335 364 363 -7
50 -42 27 -217 -148z"/>
</g>
</svg>
