<?xml version="1.0" standalone="no"?>
<!DOCTYPE svg PUBLIC "-//W3C//DTD SVG 20010904//EN"
 "http://www.w3.org/TR/2001/REC-SVG-20010904/DTD/svg10.dtd">
<svg version="1.0" xmlns="http://www.w3.org/2000/svg"
 width="400" height="100" viewBox="0 0 640.000000 5.000000"
 preserveAspectRatio="xMidYMid meet">

<g transform="translate(0.000000,215.000000) scale(0.100000,-0.100000)"
fill="#6b82eb" stroke="none">

<path d="M1345 2810 c-240 -33 -447 -203 -538 -442 -29 -78 -31 -92 -31 -218
-1 -116 2 -145 23 -205 74 -221 230 -373 456 -445 105 -33 271 -32 380 4 210
68 360 213 441 428 26 67 28 84 28 213 0 129 -2 146 -28 213 -81 214 -233 362
-436 426 -86 27 -208 38 -295 26z m273 -374 c174 -87 196 -103 190 -132 -3
-17 -338 -193 -368 -194 -8 0 -94 40 -190 88 -174 88 -195 104 -173 138 9 13
342 183 360 183 6 1 88 -37 181 -83z m-340 -337 l161 -81 162 81 c90 45 172
81 184 79 13 -2 21 -12 23 -30 3 -26 -5 -32 -182 -120 l-186 -93 -185 93
c-161 80 -185 95 -185 115 0 55 20 51 208 -44z m2 -169 l160 -80 161 81 c160
80 201 91 207 56 6 -31 -20 -49 -197 -137 l-171 -85 -180 90 c-138 68 -182 95
-186 112 -7 28 2 43 27 43 10 0 91 -36 179 -80z"/>
<path d="M1310 2376 l-125 -64 127 -63 127 -63 128 63 127 64 -125 63 c-68 35
-126 63 -129 63 -3 0 -61 -29 -130 -63z"/>
<path d="M2540 2345 l0 -35 75 0 75 0 0 -205 0 -205 35 0 35 0 0 205 0 205 75
0 75 0 0 35 0 35 -185 0 -185 0 0 -35z"/>
<path d="M3230 2361 c-16 -31 4 -63 37 -59 34 4 52 32 37 56 -16 26 -60 28
-74 3z"/>
<path d="M3380 2140 l0 -240 35 0 35 0 0 240 0 240 -35 0 -35 0 0 -240z"/>
<path d="M3530 2140 l0 -240 35 0 c31 0 35 3 35 27 l0 27 29 -28 c37 -36 95
-44 144 -21 102 48 117 242 26 320 -42 35 -112 35 -163 0 l-36 -24 0 89 0 90
-35 0 -35 0 0 -240z m221 21 c24 -25 29 -37 29 -81 0 -55 -19 -104 -45 -114
-9 -3 -30 -6 -46 -6 -84 0 -115 153 -42 210 36 28 69 25 104 -9z"/>
<path d="M3920 2140 l0 -240 35 0 35 0 0 240 0 240 -35 0 -35 0 0 -240z"/>
<path d="M4797 2374 c-4 -4 -7 -112 -7 -241 l0 -233 40 0 40 0 0 64 c0 97 15
99 83 10 55 -70 60 -74 97 -74 22 0 40 2 40 5 0 3 -31 47 -69 97 l-69 92 68
75 69 76 -41 3 c-39 3 -43 1 -107 -69 l-66 -73 -5 135 -5 134 -30 3 c-17 2
-34 0 -38 -4z"/>
<path d="M2933 2230 c-33 -20 -53 -48 -53 -74 0 -26 49 -19 76 9 43 46 124 27
124 -30 0 -21 -6 -25 -47 -30 -102 -13 -117 -17 -145 -45 -38 -39 -38 -88 1
-132 25 -28 34 -32 84 -32 45 -1 60 3 81 23 26 24 26 24 26 3 0 -19 6 -22 40
-22 l40 0 0 125 c0 143 -12 185 -59 209 -43 22 -128 21 -168 -4z m147 -203 c0
-35 -27 -66 -64 -73 -47 -8 -76 9 -76 47 0 36 23 47 93 48 42 1 47 -1 47 -22z"/>
<path d="M3230 2075 l0 -175 35 0 35 0 0 175 0 175 -35 0 -35 0 0 -175z"/>
<path d="M4145 2240 c-114 -47 -127 -247 -22 -324 40 -30 144 -30 184 0 99 72
94 261 -7 315 -36 20 -119 25 -155 9z m128 -76 c28 -28 36 -67 26 -128 -9 -51
-39 -80 -84 -80 -45 0 -75 29 -84 80 -21 116 71 199 142 128z"/>
<path d="M4500 2227 c-54 -35 -75 -81 -74 -157 1 -110 49 -167 147 -176 77 -8
142 34 162 104 6 20 3 22 -28 22 -26 0 -39 -6 -51 -25 -37 -56 -112 -52 -143
8 -24 48 -13 134 21 164 15 13 39 23 54 23 32 0 72 -25 72 -46 0 -10 12 -14
40 -14 38 0 39 1 30 26 -19 48 -29 61 -64 78 -50 24 -126 21 -166 -7z"/>
<path d="M5168 2234 c-34 -18 -48 -43 -48 -84 0 -61 28 -86 125 -109 58 -14
75 -26 75 -52 0 -44 -88 -53 -124 -14 -26 28 -86 36 -86 11 0 -26 51 -75 90
-87 52 -16 123 -4 160 27 25 22 30 33 30 70 0 56 -20 77 -96 98 -86 24 -104
33 -104 55 0 49 80 61 114 18 16 -19 31 -27 54 -27 18 0 32 2 32 5 0 25 -34
77 -59 89 -38 20 -127 20 -163 0z"/>
</g>
</svg>
