<?xml version="1.0" standalone="no"?>
<!DOCTYPE svg PUBLIC "-//W3C//DTD SVG 20010904//EN"
 "http://www.w3.org/TR/2001/REC-SVG-20010904/DTD/svg10.dtd">
<svg version="1.0" xmlns="http://www.w3.org/2000/svg"
 width="512.000000pt" height="206.000000pt" viewBox="0 0 512.000000 206.000000"
 preserveAspectRatio="xMidYMid meet">

<g transform="translate(0.000000,206.000000) scale(0.100000,-0.100000)"
fill="#000000" stroke="none">
<path d="M4623 1990 c-70 -28 -72 -118 -7 -333 4 -12 -24 2 -86 43 -137 90
-194 98 -246 37 -22 -26 -25 -38 -21 -71 10 -70 59 -93 229 -104 l99 -7 -67
-50 c-81 -61 -141 -127 -149 -165 -13 -61 54 -128 114 -115 51 11 105 90 145
212 10 29 21 55 25 57 3 2 23 -39 44 -93 21 -57 51 -114 71 -136 29 -34 39
-40 76 -40 35 0 47 6 71 33 62 70 37 115 -155 275 l-29 24 99 6 c168 12 226
40 226 110 0 49 -23 82 -65 97 -44 14 -103 -7 -206 -74 -40 -26 -75 -45 -78
-43 -2 3 7 44 21 93 27 92 33 172 16 205 -12 22 -61 49 -87 48 -10 0 -28 -4
-40 -9z"/>
<path d="M2058 1932 l-208 -46 0 -42 c0 -46 1 -47 77 -59 l42 -7 3 -561 c4
-602 3 -595 56 -665 49 -67 119 -94 244 -94 124 0 213 40 273 121 l25 35 -25
26 -26 27 -50 -25 c-44 -22 -54 -24 -88 -13 -73 21 -71 -1 -71 701 0 581 -1
624 -17 636 -10 7 -20 13 -23 13 -3 -1 -98 -22 -212 -47z"/>
<path d="M2718 1932 l-208 -46 0 -42 c0 -47 1 -48 83 -59 l47 -6 0 -553 c0
-623 0 -626 69 -695 50 -50 118 -73 219 -73 95 0 143 12 203 51 43 27 99 87
99 106 0 5 -10 19 -22 32 -21 23 -21 23 -52 4 -72 -45 -137 -33 -168 29 -17
32 -18 85 -18 657 0 605 -1 623 -19 633 -11 5 -21 9 -23 9 -2 -1 -96 -22 -210
-47z"/>
<path d="M253 1753 c-65 -187 -108 -246 -202 -280 l-51 -18 0 -57 0 -58 65 0
65 0 0 -323 c0 -347 5 -395 51 -461 50 -74 178 -113 309 -95 83 12 139 39 189
94 47 51 50 64 19 93 -21 18 -25 19 -43 6 -38 -28 -91 -36 -130 -20 -62 26
-65 44 -65 396 l0 310 110 0 110 0 0 70 0 70 -110 0 -110 0 0 145 0 145 -100
0 c-87 0 -101 -2 -107 -17z"/>
<path d="M1110 1499 c-187 -30 -299 -121 -303 -244 -1 -19 5 -46 13 -60 18
-34 78 -65 126 -65 93 0 143 65 152 196 l5 74 64 0 c121 0 153 -39 161 -200
l4 -95 -140 -42 c-231 -69 -330 -125 -382 -215 -25 -45 -30 -64 -30 -122 0
-87 15 -136 56 -185 48 -56 118 -83 215 -83 96 0 164 28 238 97 l49 46 26 -45
c38 -65 105 -96 206 -96 100 0 169 32 211 98 16 25 29 49 29 52 0 4 -11 12
-24 20 -22 11 -28 10 -52 -9 -32 -25 -47 -26 -68 -5 -14 13 -16 54 -16 287 0
150 -5 301 -10 337 -22 138 -94 223 -215 255 -65 16 -224 19 -315 4z m220
-653 l0 -165 -26 -20 c-36 -28 -90 -44 -128 -37 -107 20 -130 193 -38 289 33
35 143 92 185 96 4 1 7 -73 7 -163z"/>
<path d="M3100 1435 c0 -43 1 -44 38 -50 20 -3 43 -10 51 -14 14 -7 46 -79
310 -703 l114 -266 -37 -74 c-37 -75 -103 -167 -121 -167 -5 0 -23 23 -40 51
-43 73 -74 93 -143 92 -105 -1 -167 -57 -159 -145 10 -123 151 -189 305 -144
78 23 150 95 208 207 26 51 138 329 249 617 221 572 199 531 288 546 36 6 37
7 37 50 l0 45 -195 0 -195 0 0 -44 0 -44 50 -11 c28 -6 58 -11 65 -11 8 0 15
-6 15 -12 0 -25 -185 -537 -191 -530 -4 4 -48 120 -97 257 -50 138 -93 257
-97 266 -5 13 3 18 42 23 94 14 93 14 93 62 l0 44 -295 0 -295 0 0 -45z"/>
</g>
</svg>
