<svg version="1.0" xmlns="http://www.w3.org/2000/svg"
 width="100" height="100" viewBox="0 0 700 1400"
 style="margin-top: 40px;">

<g transform="translate(0.000000,799.000000) scale(0.100000,-0.100000)"
fill="#000000" stroke="none">
<path d="M3890 7899 c-1764 -120 -3205 -1418 -3500 -3154 -41 -243 -53 -388
-53 -660 0 -267 11 -397 54 -655 109 -651 392 -1270 816 -1781 122 -148 407
-428 548 -540 631 -501 1336 -772 2155 -830 379 -26 527 15 710 200 92 92 144
182 175 298 20 71 22 242 5 315 -19 78 -70 173 -139 258 -81 99 -158 252 -173
348 -39 234 105 497 338 615 121 61 110 60 719 67 609 7 631 9 865 71 740 196
1318 783 1499 1521 52 211 64 312 64 543 0 242 -11 363 -59 600 -186 934 -804
1750 -1719 2270 -479 272 -1064 453 -1635 505 -169 15 -515 20 -670 9z m-675
-904 c148 -31 302 -138 391 -273 156 -235 120 -538 -89 -742 -190 -185 -439
-227 -674 -114 -112 54 -226 169 -281 284 -47 99 -62 163 -62 263 0 183 108
377 271 488 74 50 131 75 217 93 87 19 141 19 227 1z m2177 -21 c98 -32 181
-87 257 -170 226 -246 216 -581 -24 -820 -94 -94 -186 -145 -307 -170 -349
-75 -709 225 -710 591 -1 165 67 311 202 439 162 152 374 200 582 130z m-3374
-1683 c355 -124 519 -506 356 -830 -102 -203 -293 -329 -516 -339 -168 -8
-310 50 -438 178 -245 245 -245 597 0 841 123 123 251 177 420 178 80 1 108
-4 178 -28z m4595 14 c109 -28 186 -74 278 -165 66 -65 95 -102 123 -160 116
-239 73 -483 -119 -676 -123 -124 -259 -184 -420 -184 -222 0 -430 131 -540
341 -170 323 12 721 385 840 69 23 215 24 293 4z"/>
</g>
</svg>