<?xml version="1.0" standalone="no"?>
<!DOCTYPE svg PUBLIC "-//W3C//DTD SVG 20010904//EN"
 "http://www.w3.org/TR/2001/REC-SVG-20010904/DTD/svg10.dtd">
<svg version="1.0" xmlns="http://www.w3.org/2000/svg"
 width="472.000000pt" height="139.000000pt" viewBox="0 0 472.000000 139.000000"
 preserveAspectRatio="xMidYMid meet">

<g transform="translate(0.000000,139.000000) scale(0.100000,-0.100000)"
fill="#000000" stroke="none">
<path d="M340 1261 c-25 -10 -66 -25 -92 -35 l-48 -18 0 -99 0 -99 -65 0 -65
0 0 -80 0 -80 59 0 60 0 3 -207 c3 -208 3 -208 31 -256 40 -67 103 -97 207
-97 123 0 120 -2 120 96 l0 84 -51 0 c-98 0 -109 23 -109 231 l0 149 80 0 80
0 0 80 0 80 -80 0 -79 0 -3 134 -3 134 -45 -17z"/>
<path d="M1005 1025 c-23 -8 -58 -33 -82 -60 l-43 -47 0 46 0 46 -100 0 -100
0 0 -350 0 -350 100 0 100 0 0 200 c0 214 4 233 52 276 39 36 67 46 129 45
l59 0 0 98 c0 94 -1 99 -22 105 -33 8 -48 7 -93 -9z"/>
<path d="M1477 1029 c-64 -10 -145 -50 -189 -93 -148 -143 -144 -415 6 -554
71 -65 123 -84 244 -90 113 -5 166 5 249 45 l53 26 0 87 0 86 -67 -33 c-123
-61 -250 -65 -324 -11 -27 20 -59 73 -59 97 0 8 75 11 250 11 l250 0 0 70 c0
123 -57 247 -139 304 -71 49 -180 71 -274 55z m133 -177 c35 -17 80 -73 80
-98 0 -11 -31 -14 -151 -14 l-150 0 7 23 c27 87 132 131 214 89z"/>
<path d="M2353 1030 c-49 -10 -79 -25 -110 -53 l-23 -20 0 26 0 27 -100 0
-100 0 0 -350 0 -350 100 0 100 0 0 234 0 234 40 36 c33 30 48 36 83 36 23 0
53 -7 66 -16 45 -32 51 -67 51 -304 l0 -220 100 0 100 0 0 238 c0 235 0 239
23 259 58 53 120 58 169 14 l33 -29 3 -241 3 -241 100 0 99 0 0 268 0 268 -27
54 c-36 69 -82 105 -162 126 -53 13 -74 14 -120 5 -53 -11 -161 -71 -161 -90
0 -4 -18 9 -40 30 -54 52 -146 75 -227 59z"/>
<path d="M3524 1030 c-183 -27 -314 -178 -314 -363 0 -153 77 -280 209 -345
71 -34 209 -43 293 -18 110 32 208 124 245 231 39 112 14 271 -58 362 -79 99
-234 154 -375 133z m142 -199 c72 -33 112 -112 100 -199 -13 -97 -66 -145
-166 -150 -55 -3 -70 0 -100 20 -97 66 -109 220 -23 301 52 48 121 59 189 28z"/>
<path d="M4440 1028 c-46 -13 -88 -44 -111 -82 l-19 -31 0 48 0 47 -100 0
-100 0 0 -350 0 -350 100 0 100 0 0 209 c0 200 1 209 22 237 47 60 80 76 161
75 l57 -1 0 99 c0 94 -1 99 -22 105 -29 7 -45 6 -88 -6z"/>
</g>
</svg>
