<?xml version="1.0" standalone="no"?>
<!DOCTYPE svg PUBLIC "-//W3C//DTD SVG 20010904//EN"
 "http://www.w3.org/TR/2001/REC-SVG-20010904/DTD/svg10.dtd">
<svg version="1.0" xmlns="http://www.w3.org/2000/svg"
 width="300.000000pt" height="117.000000pt" viewBox="0 0 300.000000 117.000000"
 preserveAspectRatio="xMidYMid meet">

<g transform="translate(0.000000,117.000000) scale(0.100000,-0.100000)"
fill="#000000" stroke="none">
<path d="M642 848 c-17 -17 -15 -35 5 -47 23 -12 53 4 53 28 0 28 -37 40 -58
19z"/>
<path d="M941 847 c-24 -29 17 -70 46 -46 20 17 12 53 -13 57 -11 2 -26 -3
-33 -11z"/>
<path d="M1933 853 c-17 -6 -16 -38 1 -52 11 -9 20 -10 35 -1 44 23 10 72 -36
53z"/>
<path d="M1090 634 l0 -215 23 3 c16 2 21 9 20 26 -3 28 0 28 31 -3 20 -20 35
-25 73 -25 60 0 89 19 114 74 37 82 12 198 -50 230 -43 23 -103 20 -135 -5
l-26 -20 0 75 c0 74 -1 76 -25 76 l-25 0 0 -216z m196 43 c52 -45 42 -176 -15
-207 -34 -18 -76 -12 -101 15 -19 20 -25 40 -28 88 -4 57 -1 66 23 95 34 40
81 43 121 9z"/>
<path d="M1790 635 l0 -215 25 0 25 0 0 215 0 215 -25 0 -25 0 0 -215z"/>
<path d="M2390 635 l0 -215 25 0 c24 0 25 3 25 58 0 45 4 63 19 76 18 16 21
14 77 -58 52 -66 63 -75 92 -76 l32 0 -71 90 -72 90 62 70 63 70 -30 0 c-25 0
-42 -13 -94 -70 -35 -38 -66 -70 -70 -70 -5 0 -8 56 -8 125 l0 125 -25 0 -25
0 0 -215z"/>
<path d="M299 733 c-4 -48 4 -216 12 -244 11 -45 46 -69 99 -69 30 0 47 7 66
25 31 31 34 31 31 3 -1 -18 3 -23 21 -23 23 0 23 1 25 158 l2 157 -27 0 -28 0
0 -113 c0 -100 -2 -116 -20 -135 -15 -15 -33 -22 -60 -22 -60 0 -70 22 -70
157 l0 113 -25 0 c-14 0 -25 -3 -26 -7z"/>
<path d="M640 580 l0 -160 25 0 25 0 0 160 0 160 -25 0 -25 0 0 -160z"/>
<path d="M940 580 l0 -160 25 0 25 0 0 160 0 160 -25 0 -25 0 0 -160z"/>
<path d="M1485 707 c-69 -69 -71 -183 -5 -249 35 -35 42 -38 93 -38 65 0 101
14 123 47 18 28 17 30 -11 34 -11 2 -30 -6 -43 -19 -24 -24 -79 -30 -114 -11
-16 9 -48 64 -48 83 0 3 53 7 118 8 l117 3 -4 40 c-7 88 -55 135 -138 135 -49
0 -59 -4 -88 -33z m150 -32 c14 -13 25 -33 25 -45 0 -19 -6 -20 -90 -20 -49 0
-90 2 -90 5 0 15 32 65 47 74 33 19 82 13 108 -14z"/>
<path d="M1930 580 l0 -160 25 0 25 0 0 160 0 160 -25 0 -25 0 0 -160z"/>
<path d="M2109 713 c-60 -51 -76 -141 -39 -218 25 -53 64 -75 130 -75 46 0 56
4 86 34 19 19 34 39 34 45 0 20 -42 11 -66 -14 -16 -18 -33 -25 -59 -25 -66 0
-107 70 -90 156 15 82 99 113 148 54 28 -32 67 -41 67 -14 0 9 -15 31 -34 50
-30 30 -40 34 -89 34 -46 0 -61 -5 -88 -27z"/>
<path d="M789 474 c-9 -11 -10 -20 -2 -32 15 -24 44 -27 59 -7 28 38 -27 75
-57 39z"/>
</g>
</svg>
