<svg version="1.1" id="Layer_1" xmlns="http://www.w3.org/2000/svg" xmlns:xlink="http://www.w3.org/1999/xlink" x="0px" y="0px"
	 width="100%" viewBox="0 0 250 85" enable-background="new 0 0 252 85" xml:space="preserve">
<path fill="#FDFDFD" opacity="1.000000" stroke="none" 
	d="
M21.000000,86.000000 
	C14.338018,86.000000 7.676036,86.000000 1.010541,86.000000 
	C1.007027,57.691265 1.007027,29.382526 1.007027,1.036894 
	C84.916359,1.036894 168.832733,1.036894 252.874557,1.036894 
	C252.874557,29.229301 252.874557,57.459347 252.874557,86.000000 
	C192.979462,86.000000 132.958389,86.000000 72.653488,85.684128 
	C82.456245,83.008904 88.876625,75.324722 88.966743,65.076485 
	C89.088333,51.247330 89.060326,37.415939 88.979530,23.586187 
	C88.905334,10.884967 79.949104,2.072122 67.111168,2.014942 
	C53.781101,1.955571 40.450424,1.964213 27.120260,2.012193 
	C13.762731,2.060271 5.047093,10.877304 5.009583,24.354422 
	C4.972945,37.518024 4.968709,50.681976 5.034780,63.845352 
	C5.045519,65.984909 5.314530,68.161705 5.772751,70.253700 
	C7.601112,78.601021 13.855005,82.749390 21.000000,86.000000 
M102.743347,40.596611 
	C98.939346,57.775700 109.549362,69.173286 125.644707,65.197914 
	C130.403625,64.022514 130.413193,64.005775 129.200729,58.821613 
	C122.613594,61.411484 116.166916,62.218536 111.006454,56.083328 
	C107.267624,51.638275 107.165733,43.221401 110.437042,38.168293 
	C114.087074,32.530209 119.470322,31.347631 129.558273,33.959404 
	C131.160110,29.417116 128.993851,27.764025 124.737259,27.126827 
	C115.011780,25.670959 107.080780,30.177670 102.743347,40.596611 
M152.510925,37.654213 
	C143.565582,35.739853 136.893311,39.270634 134.886063,46.980778 
	C132.603760,55.747410 136.275070,63.333511 143.835938,65.474068 
	C150.816620,67.450371 157.692993,64.225876 160.256165,57.774204 
	C163.495026,49.621796 160.672897,41.570148 152.510925,37.654213 
M194.330200,36.984287 
	C185.749222,37.399658 181.038620,41.173717 179.901627,48.544235 
	C178.681366,56.454514 181.716293,62.763184 187.849930,65.066223 
	C195.603958,67.977692 203.659760,64.276436 205.978714,56.736916 
	C208.968994,47.014637 204.733292,39.291031 194.330200,36.984287 
M245.470215,64.164642 
	C251.227509,59.057060 250.509872,53.458374 243.629242,50.081383 
	C241.993088,49.278362 240.123016,48.860191 238.653931,47.841789 
	C237.717285,47.192501 236.751190,45.712826 236.843109,44.700344 
	C236.933426,43.705635 238.257385,42.150257 239.191727,42.031128 
	C241.981491,41.675442 244.845657,41.903378 247.818359,41.903378 
	C248.821869,38.911736 247.230942,37.195309 243.955902,37.167759 
	C241.345535,37.145805 238.296616,37.001450 236.233170,38.234638 
	C233.958801,39.593884 231.240219,42.429779 231.183289,44.684742 
	C231.120392,47.175991 233.519882,50.053032 235.490280,52.160480 
	C236.848892,53.613590 239.458847,53.814995 241.206024,55.017021 
	C242.263809,55.744762 243.440765,57.417915 243.284286,58.477249 
	C243.127914,59.535866 241.386215,61.127594 240.323074,61.140545 
	C237.183533,61.178799 234.035873,60.551765 230.649643,60.156837 
	C230.709717,61.424171 230.785904,63.031403 230.929489,66.060425 
	C235.850113,65.537933 240.321625,65.063126 245.470215,64.164642 
M173.301163,41.502537 
	C173.301163,36.420406 173.301163,31.338278 173.301163,26.305605 
	C171.086884,26.305605 169.513107,26.305605 168.016281,26.305605 
	C168.016281,39.314018 168.016281,52.022591 168.016281,64.694534 
	C169.912781,64.694534 171.486557,64.694534 173.301224,64.694534 
	C173.301224,57.099972 173.301224,49.800667 173.301163,41.502537 
M227.117905,37.378201 
	C224.319458,38.122059 221.521027,38.865913 219.183914,39.487144 
	C217.266281,38.905525 215.255585,38.295681 212.976273,37.604366 
	C212.976273,47.294392 212.976273,56.000175 212.976273,64.738693 
	C214.856140,64.738693 216.432449,64.738693 218.324158,64.738693 
	C218.324158,60.517048 218.303665,56.559505 218.328476,52.602253 
	C218.377808,44.741909 219.986557,42.809811 227.717194,41.436462 
	C227.666306,40.322845 227.614288,39.184315 227.117905,37.378201 
z"/>
<path fill="#28282C" opacity="1.000000" stroke="none" 
	d="
M21.468658,86.000000 
	C13.855005,82.749390 7.601112,78.601021 5.772751,70.253700 
	C5.314530,68.161705 5.045519,65.984909 5.034780,63.845352 
	C4.968709,50.681976 4.972945,37.518024 5.009583,24.354422 
	C5.047093,10.877304 13.762731,2.060271 27.120260,2.012193 
	C40.450424,1.964213 53.781101,1.955571 67.111168,2.014942 
	C79.949104,2.072122 88.905334,10.884967 88.979530,23.586187 
	C89.060326,37.415939 89.088333,51.247330 88.966743,65.076485 
	C88.876625,75.324722 82.456245,83.008904 72.184830,85.684128 
	C55.312439,86.000000 38.624878,86.000000 21.468658,86.000000 
M66.764832,62.504402 
	C66.839523,52.375542 66.932976,42.246708 66.945282,32.117771 
	C66.946075,31.466362 66.320129,30.814192 65.084618,30.016672 
	C63.667149,30.101927 62.249680,30.187183 60.914314,30.267502 
	C60.914314,41.351006 60.914314,51.962189 60.914314,62.837620 
	C62.752316,62.837620 64.369049,62.837620 66.764832,62.504402 
M49.984032,59.456497 
	C50.973148,57.204613 52.702534,54.989052 52.815144,52.694160 
	C53.179909,45.260448 52.951378,37.797619 52.951378,30.299170 
	C50.925762,30.299170 49.208118,30.299170 47.063026,30.299170 
	C47.063026,37.419712 47.191864,44.230015 47.013447,51.032261 
	C46.910686,54.950077 45.020027,57.700882 40.707264,57.982613 
	C36.504040,58.257195 34.120113,56.015076 33.261623,52.132317 
	C32.871845,50.369427 32.941597,48.489380 32.928860,46.661598 
	C32.890869,41.209503 32.915222,35.756973 32.915222,30.300142 
	C30.665102,30.300142 28.939444,30.300142 26.947399,30.300142 
	C26.947399,36.593624 26.966722,42.572067 26.941650,48.550327 
	C26.919170,53.910255 27.408241,59.344681 32.994476,61.745029 
	C38.551651,64.132896 44.344326,64.110970 49.984032,59.456497 
z"/>
<path fill="#313134" opacity="1.000000" stroke="none" 
	d="
M102.851280,40.204536 
	C107.080780,30.177670 115.011780,25.670959 124.737259,27.126827 
	C128.993851,27.764025 131.160110,29.417116 129.558273,33.959404 
	C119.470322,31.347631 114.087074,32.530209 110.437042,38.168293 
	C107.165733,43.221401 107.267624,51.638275 111.006454,56.083328 
	C116.166916,62.218536 122.613594,61.411484 129.200729,58.821613 
	C130.413193,64.005775 130.403625,64.022514 125.644707,65.197914 
	C109.549362,69.173286 98.939346,57.775700 102.851280,40.204536 
z"/>
<path fill="#323235" opacity="1.000000" stroke="none" 
	d="
M152.897110,37.767246 
	C160.672897,41.570148 163.495026,49.621796 160.256165,57.774204 
	C157.692993,64.225876 150.816620,67.450371 143.835938,65.474068 
	C136.275070,63.333511 132.603760,55.747410 134.886063,46.980778 
	C136.893311,39.270634 143.565582,35.739853 152.897110,37.767246 
M140.998581,56.205910 
	C142.611679,60.548649 145.960007,61.879189 150.125153,60.894779 
	C154.203873,59.930798 155.158813,56.467110 155.316360,52.822762 
	C155.499313,48.590694 155.301544,44.296036 150.732071,42.232899 
	C147.033524,40.562992 142.516510,42.349564 141.370743,46.255913 
	C140.527664,49.130203 140.926971,52.368900 140.998581,56.205910 
z"/>
<path fill="#323234" opacity="1.000000" stroke="none" 
	d="
M194.747299,37.000931 
	C204.733292,39.291031 208.968994,47.014637 205.978714,56.736916 
	C203.659760,64.276436 195.603958,67.977692 187.849930,65.066223 
	C181.716293,62.763184 178.681366,56.454514 179.901627,48.544235 
	C181.038620,41.173717 185.749222,37.399658 194.747299,37.000931 
M199.440201,57.785564 
	C199.763031,54.564762 200.525620,51.310989 200.287292,48.132263 
	C200.039749,44.830734 198.173004,42.281887 194.363586,41.901089 
	C190.344879,41.499378 187.660919,43.173878 186.291107,46.919651 
	C184.546005,51.691669 185.869766,58.096264 189.285721,60.018055 
	C192.773697,61.980373 196.237640,61.897171 199.440201,57.785564 
z"/>
<path fill="#333335" opacity="1.000000" stroke="none" 
	d="
M245.131668,64.376480 
	C240.321625,65.063126 235.850113,65.537933 230.929489,66.060425 
	C230.785904,63.031403 230.709717,61.424171 230.649643,60.156837 
	C234.035873,60.551765 237.183533,61.178799 240.323074,61.140545 
	C241.386215,61.127594 243.127914,59.535866 243.284286,58.477249 
	C243.440765,57.417915 242.263809,55.744762 241.206024,55.017021 
	C239.458847,53.814995 236.848892,53.613590 235.490280,52.160480 
	C233.519882,50.053032 231.120392,47.175991 231.183289,44.684742 
	C231.240219,42.429779 233.958801,39.593884 236.233170,38.234638 
	C238.296616,37.001450 241.345535,37.145805 243.955902,37.167759 
	C247.230942,37.195309 248.821869,38.911736 247.818359,41.903378 
	C244.845657,41.903378 241.981491,41.675442 239.191727,42.031128 
	C238.257385,42.150257 236.933426,43.705635 236.843109,44.700344 
	C236.751190,45.712826 237.717285,47.192501 238.653931,47.841789 
	C240.123016,48.860191 241.993088,49.278362 243.629242,50.081383 
	C250.509872,53.458374 251.227509,59.057060 245.131668,64.376480 
z"/>
<path fill="#27272A" opacity="1.000000" stroke="none" 
	d="
M173.301193,42.001949 
	C173.301224,49.800667 173.301224,57.099972 173.301224,64.694534 
	C171.486557,64.694534 169.912781,64.694534 168.016281,64.694534 
	C168.016281,52.022591 168.016281,39.314018 168.016281,26.305605 
	C169.513107,26.305605 171.086884,26.305605 173.301163,26.305605 
	C173.301163,31.338278 173.301163,36.420406 173.301193,42.001949 
z"/>
<path fill="#2D2D30" opacity="1.000000" stroke="none" 
	d="
M227.340088,37.711990 
	C227.614288,39.184315 227.666306,40.322845 227.717194,41.436462 
	C219.986557,42.809811 218.377808,44.741909 218.328476,52.602253 
	C218.303665,56.559505 218.324158,60.517048 218.324158,64.738693 
	C216.432449,64.738693 214.856140,64.738693 212.976273,64.738693 
	C212.976273,56.000175 212.976273,47.294392 212.976273,37.604366 
	C215.255585,38.295681 217.266281,38.905525 219.183914,39.487144 
	C221.521027,38.865913 224.319458,38.122059 227.340088,37.711990 
z"/>
<path fill="#F3F7F4" opacity="1.000000" stroke="none" 
	d="
M49.724579,59.740784 
	C44.344326,64.110970 38.551651,64.132896 32.994476,61.745029 
	C27.408241,59.344681 26.919170,53.910255 26.941650,48.550327 
	C26.966722,42.572067 26.947399,36.593624 26.947399,30.300142 
	C28.939444,30.300142 30.665102,30.300142 32.915222,30.300142 
	C32.915222,35.756973 32.890869,41.209503 32.928860,46.661598 
	C32.941597,48.489380 32.871845,50.369427 33.261623,52.132317 
	C34.120113,56.015076 36.504040,58.257195 40.707264,57.982613 
	C45.020027,57.700882 46.910686,54.950077 47.013447,51.032261 
	C47.191864,44.230015 47.063026,37.419712 47.063026,30.299170 
	C49.208118,30.299170 50.925762,30.299170 52.951378,30.299170 
	C52.951378,37.797619 53.179909,45.260448 52.815144,52.694160 
	C52.702534,54.989052 50.973148,57.204613 49.724579,59.740784 
z"/>
<path fill="#FCFFFF" opacity="1.000000" stroke="none" 
	d="
M65.985779,62.837620 
	C64.369049,62.837620 62.752316,62.837620 60.914314,62.837620 
	C60.914314,51.962189 60.914314,41.351006 60.914314,30.267502 
	C62.249680,30.187183 63.667149,30.101927 65.540619,30.546719 
	C65.992996,41.663715 65.989388,52.250668 65.985779,62.837620 
z"/>
<path fill="#DCAD2A" opacity="1.000000" stroke="none" 
	d="
M66.375305,62.671013 
	C65.989388,52.250668 65.992996,41.663715 65.991180,30.619568 
	C66.320129,30.814192 66.946075,31.466362 66.945282,32.117771 
	C66.932976,42.246708 66.839523,52.375542 66.375305,62.671013 
z"/>
<path fill="#F8F8F8" opacity="1.000000" stroke="none" 
	d="
M140.885620,55.825562 
	C140.926971,52.368900 140.527664,49.130203 141.370743,46.255913 
	C142.516510,42.349564 147.033524,40.562992 150.732071,42.232899 
	C155.301544,44.296036 155.499313,48.590694 155.316360,52.822762 
	C155.158813,56.467110 154.203873,59.930798 150.125153,60.894779 
	C145.960007,61.879189 142.611679,60.548649 140.885620,55.825562 
z"/>
<path fill="#F8F8F8" opacity="1.000000" stroke="none" 
	d="
M199.225861,58.123966 
	C196.237640,61.897171 192.773697,61.980373 189.285721,60.018055 
	C185.869766,58.096264 184.546005,51.691669 186.291107,46.919651 
	C187.660919,43.173878 190.344879,41.499378 194.363586,41.901089 
	C198.173004,42.281887 200.039749,44.830734 200.287292,48.132263 
	C200.525620,51.310989 199.763031,54.564762 199.225861,58.123966 
z"/>
</svg>