<svg width="397" height="94" viewBox="0 0 397 94" fill="none" xmlns="http://www.w3.org/2000/svg">
<path d="M128.72 39.9429L138.387 5.10122C139.027 2.79347 141.139 1.19507 143.547 1.19507H150.18C153.843 1.19507 156.423 4.76704 155.253 8.21447L136.91 62.2543C136.175 64.417 134.134 65.8735 131.837 65.8735H122.921C120.624 65.8735 118.583 64.417 117.848 62.2543L99.5067 8.21605C98.3361 4.76861 100.917 1.19664 104.579 1.19664H111.213C113.621 1.19664 115.734 2.79504 116.373 5.10279L126.039 39.9444C126.415 41.2969 128.344 41.2969 128.72 39.9444V39.9429Z" fill="black"/>
<path d="M195.231 67.0714C185.686 67.0714 177.916 64.163 171.922 58.3432C165.926 52.525 162.93 44.7741 162.93 35.0891V33.4151C162.93 26.9206 164.194 21.1118 166.719 15.9903C169.246 10.8704 172.825 6.92483 177.456 4.15364C182.088 1.38402 187.372 0 193.307 0C202.209 0 209.217 2.79011 214.33 8.36875C219.442 13.949 221.999 21.859 221.999 32.1004V33.8344C221.999 36.7727 219.602 39.1545 216.645 39.1545H182.207C181.32 39.1545 180.659 39.9711 180.846 40.8317C181.596 44.2855 183.195 47.1134 185.636 49.3155C188.463 51.8661 192.042 53.1413 196.374 53.1413C201.178 53.1413 205.229 51.9007 208.527 49.418C210.773 47.7266 213.935 47.9788 215.813 50.0675L217.472 51.9133C219.399 54.0587 219.291 57.369 217.163 59.3174C215.131 61.1774 212.751 62.7349 210.029 63.9896C205.578 66.042 200.645 67.0682 195.231 67.0682V67.0714ZM193.245 13.9285C189.795 13.9285 186.999 15.0902 184.854 17.4122C182.708 19.7341 181.335 23.057 180.733 27.3793H204.915V25.9984C204.834 22.1553 203.792 19.184 201.787 17.0827C199.781 14.9815 196.933 13.93 193.245 13.93V13.9285Z" fill="black"/>
<path d="M270.517 11.6886C270.472 14.6553 267.858 17.004 264.712 16.9284C264.412 16.9205 264.119 16.9173 263.833 16.9173C261.298 16.9173 259.082 17.2137 257.185 17.8048C252.99 19.1132 250.197 22.8585 250.197 27.0232V60.5565C250.197 63.4948 247.67 65.8766 244.552 65.8766H237.509C234.391 65.8766 231.864 63.4948 231.864 60.5565V5.20833C231.864 2.99201 233.771 1.19657 236.121 1.19657H245.178C247.427 1.19657 249.287 2.84541 249.428 4.96085L249.531 6.54664C249.58 7.27648 250.573 7.55076 251.027 6.95806C254.568 2.32049 259.217 0.00170898 264.972 0.00170898C265.003 0.00170898 265.033 0.00170898 265.064 0.00170898C268.175 0.0143196 270.656 2.46552 270.611 5.39907L270.515 11.6902L270.517 11.6886Z" fill="black"/>
<path d="M312.047 48.0009C312.047 45.8886 310.994 44.2256 308.889 43.0102C306.784 41.7949 303.405 40.7088 298.753 39.7519C283.273 36.5236 275.534 29.9881 275.534 20.1455C275.534 14.4061 277.929 9.61563 282.723 5.76937C287.514 1.92312 293.78 0 301.521 0C309.782 0 316.388 1.93416 321.341 5.79775C324.15 7.99043 326.163 10.5567 327.379 13.4934C328.832 17.0039 326.256 20.8612 322.435 20.8612H315.617C313.449 20.8612 311.573 19.485 310.784 17.4768C310.383 16.4553 309.782 15.5411 308.981 14.734C307.377 13.1198 304.869 12.3127 301.462 12.3127C298.535 12.3127 296.269 12.9701 294.665 14.2847C293.061 15.601 292.259 17.2734 292.259 19.3069C292.259 21.219 293.171 22.7638 294.997 23.9398C296.821 25.1157 299.898 26.1324 304.23 26.9884C308.56 27.8459 312.209 28.8106 315.178 29.8873C324.359 33.2354 328.953 39.0331 328.953 47.2821C328.953 53.1807 326.405 57.9523 321.314 61.5983C316.22 65.2444 309.644 67.0682 301.583 67.0682C296.129 67.0682 291.286 66.1019 287.056 64.1693C282.824 62.2367 279.507 59.5869 277.101 56.2183C276.29 55.0849 275.618 53.92 275.08 52.7252C273.513 49.2383 276.157 45.3085 280.001 45.3085H285.671C287.871 45.3085 289.867 46.6389 290.65 48.6803C291.22 50.162 292.137 51.3884 293.403 52.361C295.528 53.9957 298.375 54.8122 301.944 54.8122C305.272 54.8122 307.788 54.1848 309.493 52.9301C311.197 51.6753 312.05 50.0312 312.05 47.9977L312.047 48.0009Z" fill="black"/>
<path d="M370.097 67.0714C360.551 67.0714 352.782 64.163 346.787 58.3432C340.791 52.525 337.795 44.7741 337.795 35.0891V33.4151C337.795 26.9206 339.059 21.1118 341.584 15.9903C344.111 10.8704 347.69 6.92483 352.322 4.15364C356.953 1.38402 362.237 0 368.173 0C377.074 0 384.082 2.79011 389.195 8.36875C394.307 13.949 396.864 21.859 396.864 32.1004V33.8344C396.864 36.7727 394.467 39.1545 391.511 39.1545H357.072C356.186 39.1545 355.524 39.9711 355.711 40.8317C356.462 44.2855 358.06 47.1134 360.502 49.3155C363.328 51.8661 366.907 53.1413 371.239 53.1413C376.043 53.1413 380.095 51.9007 383.392 49.418C385.638 47.7266 388.8 47.9788 390.678 50.0675L392.337 51.9133C394.264 54.0587 394.156 57.369 392.028 59.3174C389.996 61.1774 387.616 62.7349 384.894 63.9896C380.444 66.042 375.51 67.0682 370.097 67.0682V67.0714ZM368.111 13.9285C364.661 13.9285 361.864 15.0902 359.72 17.4122C357.573 19.7341 356.2 23.057 355.599 27.3793H379.781V25.9984C379.7 22.1553 378.657 19.184 376.653 17.0827C374.646 14.9815 371.799 13.93 368.111 13.93V13.9285Z" fill="black"/>
<path d="M38.0481 4.82927C38.0481 2.16214 40.018 0 42.4481 0H51.2391C53.6692 0 55.6391 2.16214 55.6391 4.82927V40.1401C55.6391 48.8912 53.2343 55.6657 48.4248 60.4636C43.6153 65.2277 36.7304 67.6098 27.7701 67.6098C18.8099 67.6098 11.925 65.2953 7.11548 60.6663C2.37183 56.0036 3.8147e-06 49.2967 3.8147e-06 40.5456V4.82927C3.8147e-06 2.16213 1.96995 0 4.4 0H13.2405C15.6705 0 17.6405 2.16214 17.6405 4.82927V39.1265C17.6405 43.7892 18.4805 47.2018 20.1605 49.3642C21.8735 51.5267 24.4759 52.6079 27.9678 52.6079C31.4596 52.6079 34.0127 51.5436 35.6268 49.4149C37.241 47.2863 38.0481 43.8399 38.0481 39.0758V4.82927Z" fill="url(#paint0_linear_501_142)"/>
<path d="M86.9 61.8682C86.9 64.5353 84.9301 66.6975 82.5 66.6975H73.6595C71.2295 66.6975 69.2595 64.5353 69.2595 61.8682V4.82927C69.2595 2.16214 71.2295 0 73.6595 0H82.5C84.9301 0 86.9 2.16214 86.9 4.82927V61.8682Z" fill="url(#paint1_linear_501_142)"/>
<path d="M2.86102e-06 83.2195C2.86102e-06 80.5524 1.96995 78.3902 4.4 78.3902H83.6C86.0301 78.3902 88 80.5524 88 83.2195V89.1707C88 91.8379 86.0301 94 83.6 94H4.4C1.96995 94 0 91.8379 0 89.1707L2.86102e-06 83.2195Z" fill="url(#paint2_linear_501_142)"/>
<defs>
<linearGradient id="paint0_linear_501_142" x1="0" y1="0" x2="96.1684" y2="87.6201" gradientUnits="userSpaceOnUse">
<stop stop-color="#BF66FF"/>
<stop offset="0.510417" stop-color="#6248FF"/>
<stop offset="1" stop-color="#00DDEB"/>
</linearGradient>
<linearGradient id="paint1_linear_501_142" x1="0" y1="0" x2="96.1684" y2="87.6201" gradientUnits="userSpaceOnUse">
<stop stop-color="#BF66FF"/>
<stop offset="0.510417" stop-color="#6248FF"/>
<stop offset="1" stop-color="#00DDEB"/>
</linearGradient>
<linearGradient id="paint2_linear_501_142" x1="0" y1="0" x2="96.1684" y2="87.6201" gradientUnits="userSpaceOnUse">
<stop stop-color="#BF66FF"/>
<stop offset="0.510417" stop-color="#6248FF"/>
<stop offset="1" stop-color="#00DDEB"/>
</linearGradient>
</defs>
</svg>
