<svg xmlns="http://www.w3.org/2000/svg" viewBox="0 0 300 300" width="1.333334em" height="1.333334em"
  style="margin-right:0.3em;">
  <path fill="url(#logo-grad)"
    d="M300 150l-.081 17.622-.243 10.335-.406 8.644-.567 7.684-.731 7.018-.892 6.516-1.055 6.108-1.216 5.762-1.38 5.46-1.542 5.19-1.704 4.942-1.868 4.714-2.031 4.499-2.195 4.294-2.359 4.099-2.525 3.909-2.689 3.724-2.858 3.546-3.026 3.369-3.197 3.197-3.369 3.026-3.546 2.858-3.724 2.69-3.91 2.524-4.097 2.36-4.295 2.194-4.499 2.031-4.714 1.868-4.942 1.704-5.19 1.541-5.46 1.38-5.762 1.217-6.108 1.055-6.516.892-7.018.73-7.684.567-8.644.407-10.335.243L150 300l-17.622-.081-10.336-.243-8.644-.406-7.682-.567-7.02-.731-6.515-.892-6.108-1.055-5.761-1.216-5.46-1.38-5.19-1.542-4.944-1.704-4.714-1.868-4.498-2.031-4.294-2.195-4.098-2.359-3.909-2.525-3.725-2.689-3.545-2.858-3.37-3.026-3.197-3.197-3.026-3.369-2.858-3.546-2.69-3.724-2.524-3.91-2.36-4.097-2.194-4.295-2.031-4.499-1.868-4.714-1.704-4.942-1.542-5.19-1.38-5.46-1.216-5.762-1.055-6.108-.892-6.516-.73-7.018L.73 186.6l-.406-8.644-.243-10.335L0 150l.081-17.622.243-10.336.406-8.644.568-7.682.73-7.02.892-6.515 1.055-6.108 1.217-5.761 1.379-5.46 1.542-5.19 1.704-4.944 1.868-4.714 2.031-4.498 2.195-4.294 2.359-4.098 2.524-3.909 2.69-3.725 2.858-3.545 3.026-3.37 3.197-3.197 3.37-3.026 3.545-2.858 3.725-2.69 3.909-2.524 4.098-2.36 4.294-2.194 4.498-2.031 4.714-1.868 4.944-1.704 5.19-1.542 5.46-1.38 5.761-1.216 6.108-1.055 6.515-.892 7.02-.73 7.682-.568 8.644-.406 10.336-.243L150 0l17.622.081 10.335.243 8.644.406 7.684.568 7.018.73 6.516.892 6.108 1.055 5.762 1.217 5.46 1.379 5.19 1.542 4.942 1.704 4.714 1.868 4.499 2.031 4.294 2.195 4.099 2.359 3.909 2.524 3.724 2.69 3.546 2.858 3.369 3.026 3.197 3.197 3.026 3.37 2.858 3.545 2.69 3.725 2.524 3.909 2.36 4.098 2.194 4.294 2.031 4.498 1.868 4.714 1.704 4.944 1.541 5.19 1.38 5.46 1.217 5.761 1.055 6.108.892 6.515.73 7.02.567 7.682.407 8.644.243 10.336z">
  </path>
  <path fill="#00000" transform="translate(22 22)"
    d="M232 120v8a104 104 0 0 1-104.37 104c-54-.19-98-42.06-103.12-94.78a4 4 0 0 1 5.56-4A35.94 35.94 0 0 0 72 122.59a35.92 35.92 0 0 0 53.94 2.33a40.36 40.36 0 0 0 12.87 13A47.94 47.94 0 0 0 120 176a8 8 0 0 0 8.67 8a8.21 8.21 0 0 0 7.33-8.26A32 32 0 0 1 168 144a8 8 0 0 0 8-8.53a8.18 8.18 0 0 0-8.25-7.47H160a24 24 0 0 1-24-24V88h64a32 32 0 0 1 32 32Zm-187.27 0C55.57 119.6 64 110.37 64 99.52v-23C64 65.63 55.57 56.4 44.73 56A20 20 0 0 0 24 76v24a20 20 0 0 0 20.73 20Zm56 0c10.84-.39 19.27-9.62 19.27-20.47v-47c0-10.85-8.43-20.08-19.27-20.47A20 20 0 0 0 80 52v48a20 20 0 0 0 20.73 20ZM176 52a20 20 0 0 0-20.73-20c-10.84.4-19.27 9.63-19.27 20.48V72h36a4 4 0 0 0 4-4Z">
  </path>
</svg>