<?xml version="1.0" standalone="no"?>
<!DOCTYPE svg PUBLIC "-//W3C//DTD SVG 20010904//EN"
 "http://www.w3.org/TR/2001/REC-SVG-20010904/DTD/svg10.dtd">
<svg version="1.0" xmlns="http://www.w3.org/2000/svg"
 width="180.000000pt" height="180.000000pt" viewBox="0 0 180.000000 180.000000"
 preserveAspectRatio="xMidYMid meet">

<g transform="translate(0.000000,180.000000) scale(0.100000,-0.100000)"
fill="#000000" stroke="none">
<path d="M809 1535 c-269 -54 -500 -279 -554 -540 -89 -427 203 -817 645 -861
122 -12 297 29 413 98 208 122 333 330 344 573 6 143 -12 230 -72 352 -145
287 -461 441 -776 378z m284 -50 c86 -18 195 -71 269 -129 68 -54 161 -167
148 -180 -6 -6 -31 -4 -65 4 -52 12 -58 12 -83 -7 -32 -24 -41 -73 -18 -108 8
-13 34 -34 56 -46 44 -25 60 -60 40 -84 -17 -21 -33 -19 -90 10 -27 14 -62 25
-77 25 -22 0 -36 11 -63 48 -69 93 -181 141 -299 129 -59 -6 -77 -17 -68 -41
5 -13 23 -16 83 -16 93 0 141 -13 188 -52 76 -62 112 -172 87 -265 -15 -54
-89 -136 -142 -157 -106 -43 -240 -6 -300 80 -40 58 -56 134 -42 202 8 41 7
54 -3 63 -35 28 -54 -15 -54 -120 0 -108 40 -186 126 -247 39 -28 49 -41 50
-65 1 -17 16 -50 33 -74 35 -49 37 -58 16 -75 -21 -17 -51 -4 -74 34 -41 65
-125 82 -167 32 -30 -34 -31 -80 -4 -124 22 -35 19 -52 -8 -52 -28 0 -148 97
-196 158 -100 126 -146 255 -146 412 0 117 17 189 72 300 81 165 260 306 439
345 84 18 208 18 292 0z m472 -399 c45 -112 58 -276 30 -393 -59 -252 -263
-446 -525 -499 -97 -19 -197 -15 -300 14 l-65 18 3 37 c3 25 -3 50 -18 74 -28
47 -20 83 17 83 19 0 40 -14 73 -50 40 -43 52 -50 84 -50 46 0 86 36 86 78 0
16 -13 45 -30 68 -47 62 -42 74 33 74 88 0 148 23 211 81 72 65 100 130 99
227 -1 83 3 86 75 47 26 -14 57 -25 70 -25 38 0 79 27 91 61 16 45 -6 88 -68
132 -75 54 -69 66 34 64 l85 -2 15 -39z"/>
<path d="M747 1070 c-29 -23 -36 -57 -13 -66 19 -7 87 47 84 66 -5 23 -41 23
-71 0z"/>
</g>
</svg>
