<svg xmlns:inkscape="http://www.inkscape.org/namespaces/inkscape" xmlns:sodipodi="http://sodipodi.sourceforge.net/DTD/sodipodi-0.dtd" xmlns="http://www.w3.org/2000/svg" xmlns:svg="http://www.w3.org/2000/svg" version="1.1" id="svg2" width="220.35468" height="61.755466" viewBox="0 0 220.35468 61.755466" sodipodi:docname="LOGO_MEDELLIN_.ai">
  <defs id="defs6">
    <clipPath clipPathUnits="userSpaceOnUse" id="clipPath16">
      <path d="M 0,46.317 H 165.266 V 0 H 0 Z" id="path14"/>
    </clipPath>
    <clipPath clipPathUnits="userSpaceOnUse" id="clipPath50">
      <path d="m 10.9599,25.4315 h 8.9086 V 21.125 h -8.9086 z" id="path48"/>
    </clipPath>
    <clipPath clipPathUnits="userSpaceOnUse" id="clipPath202">
      <path d="M 0.709,23.119 C 0.709,10.661 10.808,0.562 23.266,0.562 v 0 c 12.459,0 22.558,10.099 22.558,22.557 v 0 c 0,12.458 -10.099,22.557 -22.558,22.557 v 0 C 10.808,45.676 0.709,35.577 0.709,23.119" id="path200"/>
    </clipPath>
    <clipPath clipPathUnits="userSpaceOnUse" id="clipPath288">
      <path d="M 0,46.317 H 165.266 V 0 H 0 Z" id="path286"/>
    </clipPath>
  </defs>
  <sodipodi:namedview id="namedview4" pagecolor="#ffffff" bordercolor="#000000" borderopacity="0.25" inkscape:showpageshadow="2" inkscape:pageopacity="0.0" inkscape:pagecheckerboard="0" inkscape:deskcolor="#d1d1d1"/>
  <g id="g8" inkscape:groupmode="layer" inkscape:label="LOGO_MEDELLIN_" transform="matrix(1.3333333,0,0,-1.3333333,0,61.755467)">
    <g id="g10">
      <g id="g12" clip-path="url(#clipPath16)">
        <g id="g18" transform="translate(74.8153,27.44)">
          <path d="m 0,0 c -0.377,1.886 -0.891,2.914 -1.817,3.772 -1.029,0.994 -2.914,1.577 -4.937,1.577 -4.869,0 -7.852,-3.943 -7.852,-10.355 0,-6.24 3.155,-10.217 8.126,-10.217 2.674,0 4.8,1.166 5.829,3.223 0.514,0.994 0.857,2.16 1.131,3.874 h 3.292 c -0.755,-6.617 -4.183,-9.908 -10.286,-9.908 -3.257,0 -5.726,0.925 -7.68,2.914 -2.332,2.434 -3.6,5.966 -3.6,10.08 0,4.046 1.234,7.612 3.497,10.08 1.851,2.057 4.56,3.12 7.92,3.12 5.486,0 8.64,-2.674 9.634,-8.16 z" style="fill:#000000;fill-opacity:1;fill-rule:nonzero;stroke:none" id="path20"/>
        </g>
        <path d="M 85.854,10.194 H 83.008 V 28.16 h 2.846 z m 0,21.395 h -2.88 v 3.6 h 2.88 z" style="fill:#000000;fill-opacity:1;fill-rule:nonzero;stroke:none" id="path22"/>
        <g id="g24" transform="translate(97.6126,25.8286)">
          <path d="m 0,0 h -2.949 v -12.309 c 0,-1.268 0.343,-1.611 1.578,-1.611 0.583,0 0.96,0.034 1.371,0.137 v -2.4 c -0.96,-0.171 -1.577,-0.24 -2.331,-0.24 -2.229,0 -3.463,0.994 -3.463,2.846 V 0 h -2.435 v 2.331 h 2.435 v 4.938 h 2.845 V 2.331 l 2.949,0 z" style="fill:#000000;fill-opacity:1;fill-rule:nonzero;stroke:none" id="path26"/>
        </g>
        <g id="g28" transform="translate(115.9547,28.16)">
          <path d="m 0,0 -7.989,-21.737 c -0.548,-1.44 -1.062,-2.194 -1.954,-2.846 -0.754,-0.549 -1.748,-0.857 -2.674,-0.857 -0.755,0 -1.337,0.137 -1.92,0.446 v 2.571 c 0.617,-0.137 1.028,-0.206 1.508,-0.206 1.2,0 1.818,0.48 2.297,1.749 l 1.098,2.846 L -15.703,0 h 3.051 L -8.057,-13.989 -3.086,0 Z" style="fill:#000000;fill-opacity:1;fill-rule:nonzero;stroke:none" id="path30"/>
        </g>
        <g id="g32" transform="translate(131.8968,35.1886)">
          <path d="m 0,0 v -18.754 c 0,-4.32 -2.708,-7.029 -7.063,-7.029 -4.286,0 -6.96,2.572 -6.96,6.617 v 2.194 h 3.257 v -1.611 c 0,-2.914 1.338,-4.526 3.737,-4.526 1.269,0 2.435,0.583 3.052,1.543 0.583,0.857 0.788,1.989 0.788,3.977 V 0 Z" style="fill:#000000;fill-opacity:1;fill-rule:nonzero;stroke:none" id="path34"/>
        </g>
        <g id="g36" transform="translate(152.4332,27.8516)">
          <path d="m 0,0 c -0.034,3.291 -2.263,5.074 -6.24,5.074 -3.36,0 -5.589,-1.68 -5.589,-4.217 0,-1.92 1.097,-2.88 4.115,-3.703 l 6.274,-1.68 c 3.394,-0.926 5.314,-3.189 5.314,-6.274 0,-2.16 -1.063,-4.389 -2.743,-5.726 -1.611,-1.234 -4.045,-1.92 -7.028,-1.92 -3.806,0 -6.686,1.2 -8.4,3.566 -0.995,1.371 -1.44,2.88 -1.474,5.177 h 3.017 c -0.035,-1.543 0.377,-2.743 1.302,-3.84 1.2,-1.44 3.018,-2.092 5.761,-2.092 2.022,0 3.599,0.343 4.594,1.063 1.063,0.755 1.783,2.126 1.783,3.463 0,1.955 -1.406,3.223 -4.595,4.046 l -6.205,1.646 c -3.292,0.857 -4.903,2.777 -4.903,5.828 0,4.526 3.394,7.338 8.88,7.338 C -1.92,7.749 0.994,6.24 2.366,3.36 2.914,2.194 3.017,1.714 3.017,0 Z" style="fill:#000000;fill-opacity:1;fill-rule:nonzero;stroke:none" id="path38"/>
        </g>
        <g id="g40" transform="translate(162.5231,33.1467)">
          <path d="M 0,0 -1.276,3.597 V 0 h -0.707 v 4.609 h 0.992 L 0.401,0.791 1.782,4.609 h 0.96 V 0 H 2.036 V 3.597 L 0.738,0 Z m -4.145,0 h -0.717 v 4.029 h -1.625 v 0.58 h 3.956 v -0.58 h -1.614 z" style="fill:#000000;fill-opacity:1;fill-rule:nonzero;stroke:none" id="path42"/>
        </g>
        <g id="g44">
          <g id="g46"/>
          <g id="g58">
            <g clip-path="url(#clipPath50)" id="g56">
              <g transform="translate(13.6273,25.4141)" id="g54">
                <path d="m 0,0 c 0.477,0.066 0.953,-0.059 1.337,-0.347 0.333,-0.255 0.562,-0.606 0.662,-1.005 0.155,0.052 0.317,0.081 0.48,0.081 0.192,0.011 0.377,-0.015 0.554,-0.07 0.089,0.421 0.436,0.765 0.89,0.827 0.518,0.071 1.001,-0.243 1.153,-0.727 0.07,0.018 0.144,0.029 0.214,0.029 0.495,0.03 0.92,-0.351 0.95,-0.846 0.029,-0.495 -0.351,-0.92 -0.846,-0.949 H 5.342 5.29 4.056 C 4.016,-3.295 3.89,-3.565 3.691,-3.787 3.425,-4.086 3.055,-4.267 2.649,-4.289 H 2.564 2.479 -1.467 c -0.668,0.007 -1.208,0.558 -1.2,1.226 0.007,0.625 0.498,1.146 1.115,1.194 C -1.596,-0.949 -0.927,-0.129 0,0 m -1.219,-2.165 h -0.248 c -0.491,-0.004 -0.894,-0.41 -0.901,-0.901 -0.004,-0.503 0.403,-0.916 0.905,-0.924 h 3.949 c 0.056,-0.004 0.1,-0.004 0.148,0 0.321,0.019 0.621,0.163 0.835,0.403 0.148,0.166 0.244,0.366 0.284,0.58 H 3.125 c -0.406,0 -0.735,0.329 -0.735,0.735 0,0.303 0.185,0.562 0.447,0.672 -0.111,0.026 -0.225,0.037 -0.343,0.03 H 2.486 c -0.184,0 -0.369,-0.044 -0.532,-0.126 l -0.188,-0.088 -0.03,0.203 c -0.051,0.399 -0.258,0.75 -0.58,0.994 -0.321,0.243 -0.716,0.347 -1.115,0.291 -0.82,-0.114 -1.397,-0.875 -1.282,-1.695 z m 4.533,0.698 C 3.306,-1.781 3.34,-1.851 3.325,-1.836 h -0.2 c -0.24,0 -0.436,-0.196 -0.436,-0.436 0,-0.24 0.196,-0.436 0.436,-0.436 h 2.176 0.078 c 0.329,0.019 0.58,0.303 0.561,0.632 -0.018,0.332 -0.299,0.587 -0.631,0.565 H 5.301 c -0.092,0 -0.184,-0.022 -0.266,-0.063 l -0.184,-0.088 -0.03,0.203 c -0.059,0.417 -0.443,0.705 -0.857,0.65 -0.347,-0.048 -0.61,-0.325 -0.65,-0.658" style="fill:#000000;fill-opacity:1;fill-rule:nonzero;stroke:none" id="path52"/>
              </g>
            </g>
          </g>
        </g>
        <g id="g60" transform="translate(19.8669,23.3564)">
          <path d="M 0,0 C -0.03,0.495 -0.454,0.876 -0.949,0.846 -1.02,0.846 -1.094,0.835 -1.164,0.816 -1.315,1.3 -1.799,1.614 -2.316,1.544 -2.771,1.481 -3.118,1.138 -3.207,0.717 c -0.177,0.055 -0.362,0.081 -0.554,0.07 -0.162,0 -0.325,-0.03 -0.48,-0.081 -0.1,0.399 -0.329,0.75 -0.661,1.004 C -5.287,1.999 -5.763,2.124 -6.24,2.058 -7.167,1.928 -7.836,1.108 -7.791,0.188 -8.408,0.14 -8.9,-0.381 -8.907,-1.005 c -0.007,-0.669 0.532,-1.219 1.201,-1.226 h 3.945 0.085 0.085 c 0.407,0.022 0.776,0.203 1.042,0.502 0.199,0.222 0.325,0.491 0.366,0.78 h 1.234 0.051 0.052 C -0.351,-0.92 0.03,-0.495 0,0 Z" style="fill:none;stroke:#000000;stroke-width:0.185;stroke-linecap:butt;stroke-linejoin:miter;stroke-miterlimit:10;stroke-dasharray:none;stroke-opacity:1" id="path62"/>
        </g>
        <g id="g64" transform="translate(17.0962,21.8269)">
          <path d="m 0,0 c -0.214,-0.24 -0.514,-0.384 -0.835,-0.403 -0.048,-0.003 -0.092,-0.003 -0.148,0 h -3.949 c -0.502,0.008 -0.909,0.421 -0.905,0.924 0.007,0.491 0.41,0.898 0.901,0.901 h 0.248 L -4.71,1.596 c -0.115,0.82 0.462,1.581 1.282,1.696 0.399,0.055 0.794,-0.048 1.115,-0.292 0.322,-0.244 0.529,-0.595 0.58,-0.994 l 0.03,-0.203 0.188,0.088 c 0.163,0.082 0.348,0.126 0.532,0.126 h 0.008 C -0.857,2.024 -0.743,2.013 -0.632,1.988 -0.894,1.877 -1.079,1.618 -1.079,1.315 -1.079,0.909 -0.75,0.58 -0.344,0.58 H 0.284 C 0.244,0.366 0.148,0.166 0,0 Z" style="fill:none;stroke:#000000;stroke-width:0.185;stroke-linecap:butt;stroke-linejoin:miter;stroke-miterlimit:10;stroke-dasharray:none;stroke-opacity:1" id="path66"/>
        </g>
        <g id="g68" transform="translate(19.0061,22.7062)">
          <path d="m 0,0 h -0.078 -2.176 c -0.24,0 -0.435,0.196 -0.435,0.436 0,0.24 0.195,0.436 0.435,0.436 h 0.2 c 0.015,-0.015 -0.018,0.055 -0.011,0.369 0.041,0.333 0.303,0.61 0.65,0.658 0.414,0.055 0.798,-0.233 0.857,-0.65 l 0.03,-0.204 0.184,0.089 c 0.082,0.041 0.174,0.063 0.266,0.063 H -0.07 C 0.262,1.219 0.543,0.964 0.562,0.632 0.58,0.303 0.329,0.018 0,0 Z" style="fill:none;stroke:#000000;stroke-width:0.185;stroke-linecap:butt;stroke-linejoin:miter;stroke-miterlimit:10;stroke-dasharray:none;stroke-opacity:1" id="path70"/>
        </g>
        <g id="g72" transform="translate(36.0704,26.5219)">
          <path d="m 0,0 c -0.524,0 -0.951,-0.427 -0.951,-0.951 0,-0.525 0.427,-0.951 0.951,-0.951 0.524,0 0.951,0.426 0.951,0.951 C 0.951,-0.427 0.524,0 0,0 m 0,-2.266 c -0.725,0 -1.315,0.59 -1.315,1.315 0,0.725 0.59,1.315 1.315,1.315 0.725,0 1.315,-0.59 1.315,-1.315 0,-0.725 -0.59,-1.315 -1.315,-1.315" style="fill:#000000;fill-opacity:1;fill-rule:nonzero;stroke:none" id="path74"/>
        </g>
        <g id="g76" transform="translate(36.0704,26.5219)">
          <path d="m 0,0 c -0.524,0 -0.951,-0.427 -0.951,-0.951 0,-0.525 0.427,-0.951 0.951,-0.951 0.524,0 0.951,0.426 0.951,0.951 C 0.951,-0.427 0.524,0 0,0 Z m 0,-2.266 c -0.725,0 -1.315,0.59 -1.315,1.315 0,0.725 0.59,1.315 1.315,1.315 0.725,0 1.315,-0.59 1.315,-1.315 0,-0.725 -0.59,-1.315 -1.315,-1.315 z" style="fill:none;stroke:#000000;stroke-width:0.092;stroke-linecap:butt;stroke-linejoin:miter;stroke-miterlimit:10;stroke-dasharray:none;stroke-opacity:1" id="path78"/>
        </g>
        <g id="g80" transform="translate(36.0704,27.1118)">
          <path d="m 0,0 c -0.1,0 -0.182,0.081 -0.182,0.182 v 0.296 c 0,0.1 0.082,0.182 0.182,0.182 0.1,0 0.182,-0.082 0.182,-0.182 V 0.182 C 0.182,0.081 0.1,0 0,0" style="fill:#000000;fill-opacity:1;fill-rule:nonzero;stroke:none" id="path82"/>
        </g>
        <g id="g84" transform="translate(36.0704,27.1118)">
          <path d="m 0,0 c -0.1,0 -0.182,0.081 -0.182,0.182 v 0.296 c 0,0.1 0.082,0.182 0.182,0.182 0.1,0 0.182,-0.082 0.182,-0.182 V 0.182 C 0.182,0.081 0.1,0 0,0 Z" style="fill:none;stroke:#000000;stroke-width:0.092;stroke-linecap:butt;stroke-linejoin:miter;stroke-miterlimit:10;stroke-dasharray:none;stroke-opacity:1" id="path86"/>
        </g>
        <g id="g88" transform="translate(36.0704,23.3703)">
          <path d="m 0,0 c -0.1,0 -0.182,0.081 -0.182,0.182 v 0.296 c 0,0.1 0.082,0.181 0.182,0.181 0.1,0 0.182,-0.081 0.182,-0.181 V 0.182 C 0.182,0.081 0.1,0 0,0" style="fill:#000000;fill-opacity:1;fill-rule:nonzero;stroke:none" id="path90"/>
        </g>
        <g id="g92" transform="translate(36.0704,23.3703)">
          <path d="m 0,0 c -0.1,0 -0.182,0.081 -0.182,0.182 v 0.296 c 0,0.1 0.082,0.181 0.182,0.181 0.1,0 0.182,-0.081 0.182,-0.181 V 0.182 C 0.182,0.081 0.1,0 0,0 Z" style="fill:none;stroke:#000000;stroke-width:0.092;stroke-linecap:butt;stroke-linejoin:miter;stroke-miterlimit:10;stroke-dasharray:none;stroke-opacity:1" id="path94"/>
        </g>
        <g id="g96" transform="translate(38.0888,25.3889)">
          <path d="m 0,0 h -0.296 c -0.1,0 -0.182,0.081 -0.182,0.182 0,0.1 0.082,0.182 0.182,0.182 H 0 C 0.1,0.364 0.182,0.282 0.182,0.182 0.182,0.081 0.1,0 0,0" style="fill:#000000;fill-opacity:1;fill-rule:nonzero;stroke:none" id="path98"/>
        </g>
        <g id="g100" transform="translate(38.0888,25.3889)">
          <path d="m 0,0 h -0.296 c -0.1,0 -0.182,0.081 -0.182,0.182 0,0.1 0.082,0.182 0.182,0.182 H 0 C 0.1,0.364 0.182,0.282 0.182,0.182 0.182,0.081 0.1,0 0,0 Z" style="fill:none;stroke:#000000;stroke-width:0.092;stroke-linecap:butt;stroke-linejoin:miter;stroke-miterlimit:10;stroke-dasharray:none;stroke-opacity:1" id="path102"/>
        </g>
        <g id="g104" transform="translate(34.3478,25.3889)">
          <path d="m 0,0 h -0.296 c -0.1,0 -0.182,0.081 -0.182,0.182 0,0.1 0.082,0.182 0.182,0.182 H 0 C 0.1,0.364 0.182,0.282 0.182,0.182 0.182,0.081 0.1,0 0,0" style="fill:#000000;fill-opacity:1;fill-rule:nonzero;stroke:none" id="path106"/>
        </g>
        <g id="g108" transform="translate(34.3478,25.3889)">
          <path d="m 0,0 h -0.296 c -0.1,0 -0.182,0.081 -0.182,0.182 0,0.1 0.082,0.182 0.182,0.182 H 0 C 0.1,0.364 0.182,0.282 0.182,0.182 0.182,0.081 0.1,0 0,0 Z" style="fill:none;stroke:#000000;stroke-width:0.092;stroke-linecap:butt;stroke-linejoin:miter;stroke-miterlimit:10;stroke-dasharray:none;stroke-opacity:1" id="path110"/>
        </g>
        <g id="g112" transform="translate(37.4494,26.7681)">
          <path d="m 0,0 c -0.047,0 -0.093,0.018 -0.129,0.053 -0.071,0.071 -0.071,0.186 0,0.257 l 0.237,0.237 c 0.071,0.071 0.186,0.071 0.257,0 0.071,-0.071 0.071,-0.186 0,-0.257 L 0.129,0.053 C 0.093,0.018 0.047,0 0,0" style="fill:#000000;fill-opacity:1;fill-rule:nonzero;stroke:none" id="path114"/>
        </g>
        <g id="g116" transform="translate(37.4494,26.7681)">
          <path d="m 0,0 c -0.047,0 -0.093,0.018 -0.129,0.053 -0.071,0.071 -0.071,0.186 0,0.257 l 0.237,0.237 c 0.071,0.071 0.186,0.071 0.257,0 0.071,-0.071 0.071,-0.186 0,-0.257 L 0.129,0.053 C 0.093,0.018 0.047,0 0,0 Z" style="fill:none;stroke:#000000;stroke-width:0.092;stroke-linecap:butt;stroke-linejoin:miter;stroke-miterlimit:10;stroke-dasharray:none;stroke-opacity:1" id="path118"/>
        </g>
        <g id="g120" transform="translate(34.4547,23.7729)">
          <path d="m 0,0 c -0.047,0 -0.093,0.018 -0.129,0.053 -0.071,0.071 -0.071,0.187 0,0.258 l 0.237,0.236 c 0.071,0.071 0.186,0.071 0.257,0 0.071,-0.071 0.071,-0.186 0,-0.257 L 0.129,0.053 C 0.093,0.018 0.047,0 0,0" style="fill:#000000;fill-opacity:1;fill-rule:nonzero;stroke:none" id="path122"/>
        </g>
        <g id="g124" transform="translate(34.4547,23.7729)">
          <path d="m 0,0 c -0.047,0 -0.093,0.018 -0.129,0.053 -0.071,0.071 -0.071,0.187 0,0.258 l 0.237,0.236 c 0.071,0.071 0.186,0.071 0.257,0 0.071,-0.071 0.071,-0.186 0,-0.257 L 0.129,0.053 C 0.093,0.018 0.047,0 0,0 Z" style="fill:none;stroke:#000000;stroke-width:0.092;stroke-linecap:butt;stroke-linejoin:miter;stroke-miterlimit:10;stroke-dasharray:none;stroke-opacity:1" id="path126"/>
        </g>
        <g id="g128" transform="translate(37.6861,23.7729)">
          <path d="M 0,0 C -0.047,0 -0.093,0.018 -0.129,0.053 L -0.365,0.29 c -0.071,0.071 -0.071,0.186 0,0.257 0.071,0.071 0.186,0.071 0.257,0 L 0.129,0.311 C 0.2,0.24 0.2,0.124 0.129,0.053 0.093,0.018 0.047,0 0,0" style="fill:#000000;fill-opacity:1;fill-rule:nonzero;stroke:none" id="path130"/>
        </g>
        <g id="g132" transform="translate(37.6861,23.7729)">
          <path d="M 0,0 C -0.047,0 -0.093,0.018 -0.129,0.053 L -0.365,0.29 c -0.071,0.071 -0.071,0.186 0,0.257 0.071,0.071 0.186,0.071 0.257,0 L 0.129,0.311 C 0.2,0.24 0.2,0.124 0.129,0.053 0.093,0.018 0.047,0 0,0 Z" style="fill:none;stroke:#000000;stroke-width:0.092;stroke-linecap:butt;stroke-linejoin:miter;stroke-miterlimit:10;stroke-dasharray:none;stroke-opacity:1" id="path134"/>
        </g>
        <g id="g136" transform="translate(34.6915,26.7681)">
          <path d="M 0,0 C -0.047,0 -0.093,0.018 -0.129,0.053 L -0.365,0.29 c -0.071,0.071 -0.071,0.186 0,0.257 0.071,0.071 0.186,0.071 0.257,0 L 0.129,0.31 C 0.2,0.239 0.2,0.124 0.129,0.053 0.093,0.018 0.047,0 0,0" style="fill:#000000;fill-opacity:1;fill-rule:nonzero;stroke:none" id="path138"/>
        </g>
        <g id="g140" transform="translate(34.6915,26.7681)">
          <path d="M 0,0 C -0.047,0 -0.093,0.018 -0.129,0.053 L -0.365,0.29 c -0.071,0.071 -0.071,0.186 0,0.257 0.071,0.071 0.186,0.071 0.257,0 L 0.129,0.31 C 0.2,0.239 0.2,0.124 0.129,0.053 0.093,0.018 0.047,0 0,0 Z" style="fill:none;stroke:#000000;stroke-width:0.092;stroke-linecap:butt;stroke-linejoin:miter;stroke-miterlimit:10;stroke-dasharray:none;stroke-opacity:1" id="path142"/>
        </g>
        <g id="g144" transform="translate(13.0924,12.1727)">
          <path d="m 0,0 c 0.125,1.252 1.179,2.229 2.462,2.229 0.666,0 1.269,-0.265 1.714,-0.693 L 4.972,5.17 C 5.034,5.193 5.093,5.22 5.154,5.243 2.675,5.491 0.13,4.683 -1.747,2.806 L -5.766,-1.214 -1.114,0 Z" style="fill:none;stroke:#000000;stroke-width:0.554;stroke-linecap:butt;stroke-linejoin:round;stroke-miterlimit:10;stroke-dasharray:none;stroke-opacity:1" id="path146"/>
        </g>
        <g id="g148" transform="translate(16.3408,9.4713)">
          <path d="m 0,0 h -0.443 c -0.112,-0.016 -0.226,-0.027 -0.343,-0.027 -0.117,0 -0.232,0.011 -0.344,0.027 h -9.373 l -0.036,-0.037 h 10.531 z" style="fill:none;stroke:#000000;stroke-width:0.554;stroke-linecap:butt;stroke-linejoin:round;stroke-miterlimit:10;stroke-dasharray:none;stroke-opacity:1" id="path150"/>
        </g>
        <g id="g152" transform="translate(15.5544,9.4446)">
          <path d="M 0,0 C 0.117,0 0.231,0.011 0.344,0.027 H -0.344 C -0.231,0.011 -0.117,0 0,0 Z" style="fill:none;stroke:#000000;stroke-width:0.554;stroke-linecap:butt;stroke-linejoin:round;stroke-miterlimit:10;stroke-dasharray:none;stroke-opacity:1" id="path154"/>
        </g>
        <g id="g156" transform="translate(15.5544,14.4015)">
          <path d="m 0,0 c -1.283,0 -2.337,-0.977 -2.462,-2.229 h 3.84 l 0.336,1.536 C 1.269,-0.265 0.666,0 0,0 Z" style="fill:none;stroke:#000000;stroke-width:0.554;stroke-linecap:butt;stroke-linejoin:round;stroke-miterlimit:10;stroke-dasharray:none;stroke-opacity:1" id="path158"/>
        </g>
        <g id="g160" transform="translate(16.596,10.637)">
          <path d="m 0,0 0.336,1.536 h -3.84 -1.114 L -9.27,0.322 -11.158,-0.171 v -0.995 h 0.4 9.373 0.687 0.443 l 0.047,0.218" style="fill:none;stroke:#000000;stroke-width:0.554;stroke-linecap:butt;stroke-linejoin:round;stroke-miterlimit:10;stroke-dasharray:none;stroke-opacity:1" id="path162"/>
        </g>
        <g id="g164" transform="translate(30.049,9.5933)">
          <path d="M 0,0 0.026,-0.14 H 11.288 L 5.25,5.898 C 4.208,6.94 2.978,7.672 1.676,8.11 V 1.861" style="fill:none;stroke:#000000;stroke-width:0.554;stroke-linecap:butt;stroke-linejoin:round;stroke-miterlimit:10;stroke-dasharray:none;stroke-opacity:1" id="path166"/>
        </g>
        <g id="g168" transform="translate(31.7254,11.4541)">
          <path d="M 0,0 V -0.064" style="fill:none;stroke:#000000;stroke-width:0.554;stroke-linecap:butt;stroke-linejoin:round;stroke-miterlimit:10;stroke-dasharray:none;stroke-opacity:1" id="path170"/>
        </g>
        <g id="g172" transform="translate(31.7238,11.3139)">
          <path d="m 0,0 c 0.001,0.025 0.002,0.05 0.002,0.076 v 6.313 5.516 L -6.43,12.05 c -0.129,0 -0.156,0.032 -0.277,0.006 0.861,-1.087 1.686,-2.183 2.888,-2.724 0.407,-0.183 0.589,-0.582 0.606,-1.027 l 1.27,-8.281" style="fill:none;stroke:#000000;stroke-width:0.554;stroke-linecap:butt;stroke-linejoin:round;stroke-miterlimit:10;stroke-dasharray:none;stroke-opacity:1" id="path174"/>
        </g>
        <g id="g176" transform="translate(30.049,9.5933)">
          <path d="M 0,0 V 0" style="fill:none;stroke:#000000;stroke-width:0.554;stroke-linecap:butt;stroke-linejoin:round;stroke-miterlimit:10;stroke-dasharray:none;stroke-opacity:1" id="path178"/>
        </g>
        <g id="g180" transform="translate(23.1044,11.2747)">
          <path d="m 0,0 -0.004,3.753 -0.011,9.066 0.023,1.28 v 0.02 C -0.178,10.389 -2.157,7.417 -5.081,6.141 -5.135,6.118 -5.187,6.091 -5.242,6.068 L -5.941,2.434 -6.237,0.898 -6.508,-0.514" style="fill:none;stroke:#000000;stroke-width:0.52;stroke-linecap:butt;stroke-linejoin:round;stroke-miterlimit:10;stroke-dasharray:none;stroke-opacity:1" id="path182"/>
        </g>
        <g id="g184" transform="translate(16.3734,9.6039)">
          <path d="m 0,0 -0.026,-0.133 -0.007,-0.036 h 6.766 v 0 0.2" style="fill:none;stroke:#000000;stroke-width:0.52;stroke-linecap:butt;stroke-linejoin:round;stroke-miterlimit:10;stroke-dasharray:none;stroke-opacity:1" id="path186"/>
        </g>
        <g id="g188" transform="translate(29.8805,11.2784)">
          <path d="m 0,0 -1.37,8.34 c -0.014,0.446 -0.248,0.845 -0.606,1.028 -1.057,0.541 -1.989,1.427 -2.746,2.514 -1.185,1.702 -1.939,3.901 -2.046,6.069 v -3.835 -0.02 L -6.77,3.762 V 0.06" style="fill:none;stroke:#000000;stroke-width:0.52;stroke-linecap:butt;stroke-linejoin:round;stroke-miterlimit:10;stroke-dasharray:none;stroke-opacity:1" id="path190"/>
        </g>
        <g id="g192" transform="translate(23.1103,9.6921)">
          <path d="M 0,0 V -0.257 -0.258 H 7.073" style="fill:none;stroke:#000000;stroke-width:0.52;stroke-linecap:butt;stroke-linejoin:round;stroke-miterlimit:10;stroke-dasharray:none;stroke-opacity:1" id="path194"/>
        </g>
      </g>
    </g>
    <g id="g196">
      <g id="g198" clip-path="url(#clipPath202)">
        <path d="M 5.79,7.682 H 42.639 V 8.24 H 5.79 Z" style="fill:#000000;fill-opacity:1;fill-rule:nonzero;stroke:none" id="path204"/>
        <path d="M 36.352,8.785 H 22.619 v 0.189 h 13.733 z m -13.733,1.752 h 12.549 l 1.16,-1.231 H 22.619 Z m 12.905,0.801 H 21.902 V 7.981 h 15.715 v 0.993 z" style="fill:#000000;fill-opacity:1;fill-rule:nonzero;stroke:none" id="path206"/>
        <path d="M 20.488,8.785 H 6.471 V 8.974 H 20.488 Z M 6.471,10.537 h 13.97 L 20.464,9.306 H 6.471 Z M 5.79,7.981 h 15.456 v 3.357 H 5.79 Z" style="fill:#000000;fill-opacity:1;fill-rule:nonzero;stroke:none" id="path208"/>
        <path d="m 10.523,3.87 h -0.368 v 3.815 h 0.368 z" style="fill:#000000;fill-opacity:1;fill-rule:nonzero;stroke:none" id="path210"/>
        <path d="M 9.611,3.87 H 9.464 v 3.539 h 0.147 z" style="fill:#000000;fill-opacity:1;fill-rule:nonzero;stroke:none" id="path212"/>
        <path d="M 10.518,7.39 H 9.112 v 0.294 h 1.406 z" style="fill:#000000;fill-opacity:1;fill-rule:nonzero;stroke:none" id="path214"/>
        <path d="M 9.479,3.876 H 9.111 v 3.772 h 0.368 z" style="fill:#000000;fill-opacity:1;fill-rule:nonzero;stroke:none" id="path216"/>
        <path d="m 18.988,7.39 h -1.395 v 0.294 h 1.395 z" style="fill:#000000;fill-opacity:1;fill-rule:nonzero;stroke:none" id="path218"/>
        <path d="m 18.994,3.87 h -0.368 v 3.815 h 0.368 z" style="fill:#000000;fill-opacity:1;fill-rule:nonzero;stroke:none" id="path220"/>
        <path d="m 18.082,3.876 h -0.147 v 3.525 h 0.147 z" style="fill:#000000;fill-opacity:1;fill-rule:nonzero;stroke:none" id="path222"/>
        <path d="M 17.95,3.876 H 17.582 V 7.694 H 17.95 Z" style="fill:#000000;fill-opacity:1;fill-rule:nonzero;stroke:none" id="path224"/>
        <path d="m 27.773,3.87 h -0.368 v 3.815 h 0.368 z" style="fill:#000000;fill-opacity:1;fill-rule:nonzero;stroke:none" id="path226"/>
        <path d="m 26.862,3.876 h -0.147 v 3.548 h 0.147 z" style="fill:#000000;fill-opacity:1;fill-rule:nonzero;stroke:none" id="path228"/>
        <path d="m 27.768,7.39 h -1.395 v 0.294 h 1.395 z" style="fill:#000000;fill-opacity:1;fill-rule:nonzero;stroke:none" id="path230"/>
        <path d="m 26.729,3.876 h -0.368 v 3.831 h 0.368 z" style="fill:#000000;fill-opacity:1;fill-rule:nonzero;stroke:none" id="path232"/>
        <path d="M 36.068,3.87 H 35.7 v 3.815 h 0.368 z" style="fill:#000000;fill-opacity:1;fill-rule:nonzero;stroke:none" id="path234"/>
        <path d="m 35.156,3.87 h -0.147 v 3.538 h 0.147 z" style="fill:#000000;fill-opacity:1;fill-rule:nonzero;stroke:none" id="path236"/>
        <path d="m 36.062,7.39 h -1.395 v 0.294 h 1.395 z" style="fill:#000000;fill-opacity:1;fill-rule:nonzero;stroke:none" id="path238"/>
        <path d="m 35.023,3.876 h -0.368 v 3.821 h 0.368 z" style="fill:#000000;fill-opacity:1;fill-rule:nonzero;stroke:none" id="path240"/>
        <g id="g242" transform="translate(19.72,8.3416)">
          <path d="m 0,0 c -0.001,0 -0.002,0 -0.002,0 0,0 0.001,0 0.002,0" style="fill:#ffffff;fill-opacity:1;fill-rule:nonzero;stroke:none" id="path244"/>
        </g>
        <g id="g246" transform="translate(19.7266,8.3417)">
          <path d="M 0,0 C -0.002,0 -0.004,0 -0.006,0 -0.004,0 -0.003,0 0,0" style="fill:#ffffff;fill-opacity:1;fill-rule:nonzero;stroke:none" id="path248"/>
        </g>
        <g id="g250" transform="translate(27.7287,8.3416)">
          <path d="M 0,0 C 0,0 0.001,0 0.002,0 0.001,0 0,0 0,0" style="fill:#dddbdb;fill-opacity:1;fill-rule:nonzero;stroke:none" id="path252"/>
        </g>
        <g id="g254" transform="translate(27.7313,8.3416)">
          <path d="M 0,0 C 0.001,0 0.003,0 0.005,0 0.003,0 0.001,0 0,0" style="fill:#dddbdb;fill-opacity:1;fill-rule:nonzero;stroke:none" id="path256"/>
        </g>
        <g id="g258" transform="translate(26.7867,8.3416)">
          <path d="m 0,0 c -0.001,0 -0.002,0 -0.002,0 0,0 0.001,0 0.002,0" style="fill:#ffffff;fill-opacity:1;fill-rule:nonzero;stroke:none" id="path260"/>
        </g>
        <g id="g262" transform="translate(26.7933,8.3417)">
          <path d="M 0,0 C -0.002,0 -0.004,0 -0.006,0 -0.004,0 -0.003,0 0,0" style="fill:#ffffff;fill-opacity:1;fill-rule:nonzero;stroke:none" id="path264"/>
        </g>
        <g id="g266" transform="translate(34.9948,8.3416)">
          <path d="M 0,0 C 0,0 0.001,0 0.002,0 0.001,0 0,0 0,0" style="fill:#dddbdb;fill-opacity:1;fill-rule:nonzero;stroke:none" id="path268"/>
        </g>
        <g id="g270" transform="translate(34.9974,8.3416)">
          <path d="M 0,0 C 0.001,0 0.003,0 0.005,0 0.003,0 0.001,0 0,0" style="fill:#dddbdb;fill-opacity:1;fill-rule:nonzero;stroke:none" id="path272"/>
        </g>
        <g id="g274" transform="translate(33.7265,8.3416)">
          <path d="m 0,0 c -0.001,0 -0.002,0 -0.002,0 0,0 0.001,0 0.002,0" style="fill:#ffffff;fill-opacity:1;fill-rule:nonzero;stroke:none" id="path276"/>
        </g>
        <g id="g278" transform="translate(33.7332,8.3417)">
          <path d="M 0,0 C -0.002,0 -0.004,0 -0.006,0 -0.004,0 -0.003,0 0,0" style="fill:#ffffff;fill-opacity:1;fill-rule:nonzero;stroke:none" id="path280"/>
        </g>
      </g>
    </g>
    <g id="g282">
      <g id="g284" clip-path="url(#clipPath288)">
        <g id="g290" transform="translate(45.8233,23.1189)">
          <path d="m 0,0 c 0,-12.458 -10.099,-22.557 -22.557,-22.557 -12.458,0 -22.557,10.099 -22.557,22.557 0,12.458 10.099,22.557 22.557,22.557 C -10.099,22.557 0,12.458 0,0 Z" style="fill:none;stroke:#000000;stroke-width:1.13;stroke-linecap:butt;stroke-linejoin:miter;stroke-miterlimit:10;stroke-dasharray:none;stroke-opacity:1" id="path292"/>
        </g>
        <g id="g294" transform="translate(22.0286,39.0303)">
          <path d="m 0,0 v -5.837 c 0,-1.344 -0.843,-2.187 -2.198,-2.187 -1.334,0 -2.166,0.8 -2.166,2.059 v 0.683 h 1.014 v -0.501 c 0,-0.907 0.416,-1.409 1.163,-1.409 0.394,0 0.757,0.182 0.949,0.481 0.182,0.266 0.246,0.618 0.246,1.237 l 0,5.474 z" style="fill:#000000;fill-opacity:1;fill-rule:nonzero;stroke:none" id="path296"/>
        </g>
        <g id="g298" transform="translate(28.4202,36.7468)">
          <path d="m 0,0 c -0.011,1.024 -0.704,1.579 -1.942,1.579 -1.046,0 -1.739,-0.523 -1.739,-1.312 0,-0.598 0.341,-0.896 1.28,-1.153 l 1.953,-0.522 c 1.056,-0.288 1.654,-0.993 1.654,-1.953 0,-0.672 -0.331,-1.366 -0.854,-1.782 -0.502,-0.384 -1.259,-0.598 -2.187,-0.598 -1.185,0 -2.081,0.374 -2.614,1.11 -0.31,0.427 -0.449,0.896 -0.459,1.611 h 0.939 c -0.011,-0.48 0.117,-0.853 0.405,-1.195 0.374,-0.448 0.939,-0.65 1.793,-0.65 0.629,0 1.12,0.106 1.429,0.33 0.331,0.235 0.555,0.662 0.555,1.078 0,0.608 -0.437,1.003 -1.429,1.259 l -1.932,0.512 c -1.024,0.267 -1.525,0.864 -1.525,1.814 0,1.409 1.056,2.283 2.763,2.283 1.312,0 2.219,-0.469 2.646,-1.365 C 0.907,0.683 0.939,0.534 0.939,0 Z" style="fill:#000000;fill-opacity:1;fill-rule:nonzero;stroke:none" id="path300"/>
        </g>
        <g id="g302" transform="translate(2.7637,33.216)">
          <path d="M 0,0 20.141,-4.413 Z" style="fill:#ffffff;fill-opacity:1;fill-rule:nonzero;stroke:none" id="path304"/>
        </g>
        <g id="g306" transform="translate(2.7637,33.216)">
          <path d="M 0,0 20.141,-4.413 Z" style="fill:none;stroke:#000000;stroke-width:0.377;stroke-linecap:round;stroke-linejoin:miter;stroke-miterlimit:10;stroke-dasharray:none;stroke-opacity:1" id="path308"/>
        </g>
        <g id="g310" transform="translate(7.1739,26.5293)">
          <path d="m 0,0 c -0.005,0 -0.009,0.005 -0.009,0.01 v 1.598 c 0,0.005 0.004,0.01 0.009,0.01 0.005,0 0.009,-0.005 0.009,-0.01 V 0.01 C 0.009,0.005 0.005,0 0,0 Z" style="fill:none;stroke:#000000;stroke-width:0.102;stroke-linecap:butt;stroke-linejoin:miter;stroke-miterlimit:10;stroke-dasharray:none;stroke-opacity:1" id="path312"/>
        </g>
        <g id="g314" transform="translate(8.5654,26.5293)">
          <path d="m 0,0 c -0.005,0 -0.009,0.005 -0.009,0.01 v 1.598 c 0,0.005 0.004,0.01 0.009,0.01 0.005,0 0.009,-0.005 0.009,-0.01 V 0.01 C 0.009,0.005 0.005,0 0,0 Z" style="fill:none;stroke:#000000;stroke-width:0.102;stroke-linecap:butt;stroke-linejoin:miter;stroke-miterlimit:10;stroke-dasharray:none;stroke-opacity:1" id="path316"/>
        </g>
        <g id="g318" transform="translate(9.3134,24.7326)">
          <path d="m 0,0 h -2.902 l -0.456,1.583 h 3.814 z m -2.876,3.36 h 2.864 L 0.439,1.797 H -3.326 Z M 0.409,3.776 H -3.296 L -3.9,1.68 -3.296,-0.416 H 0.409 L 1.012,1.68 Z" style="fill:#000000;fill-opacity:1;fill-rule:nonzero;stroke:none" id="path320"/>
        </g>
        <g id="g322" transform="translate(9.3134,24.7326)">
          <path d="m 0,0 h -2.902 l -0.456,1.583 h 3.814 z m -2.876,3.36 h 2.864 L 0.439,1.797 H -3.326 Z M 0.409,3.776 H -3.296 L -3.9,1.68 -3.296,-0.416 H 0.409 L 1.012,1.68 Z" style="fill:none;stroke:#000000;stroke-width:0.094;stroke-linecap:round;stroke-linejoin:round;stroke-miterlimit:10;stroke-dasharray:none;stroke-opacity:1" id="path324"/>
        </g>
        <g id="g326" transform="translate(7.8176,28.6122)">
          <path d="M 0,0 C -0.005,0 -0.009,0.004 -0.009,0.009 V 0.463 L -1.276,1.73 c -10e-4,0.002 -0.002,0.004 -0.002,0.006 v 1.822 c 0,0.004 0.004,0.008 0.008,0.008 0.005,0 0.009,-0.004 0.009,-0.008 V 1.74 L 0.006,0.472 C 0.008,0.471 0.009,0.469 0.009,0.466 V 0.009 C 0.009,0.004 0.005,0 0,0" style="fill:#ffffff;fill-opacity:1;fill-rule:nonzero;stroke:none" id="path328"/>
        </g>
        <g id="g330" transform="translate(7.8176,28.6122)">
          <path d="M 0,0 C -0.005,0 -0.009,0.004 -0.009,0.009 V 0.463 L -1.276,1.73 c -10e-4,0.002 -0.002,0.004 -0.002,0.006 v 1.822 c 0,0.004 0.004,0.008 0.008,0.008 0.005,0 0.009,-0.004 0.009,-0.008 V 1.74 L 0.006,0.472 C 0.008,0.471 0.009,0.469 0.009,0.466 V 0.009 C 0.009,0.004 0.005,0 0,0 Z" style="fill:none;stroke:#000000;stroke-width:0.377;stroke-linecap:round;stroke-linejoin:miter;stroke-miterlimit:10;stroke-dasharray:none;stroke-opacity:1" id="path332"/>
        </g>
        <g id="g334" transform="translate(7.9013,10.5369)">
          <path d="M 0,0 V -1.231" style="fill:none;stroke:#000000;stroke-width:0.283;stroke-linecap:butt;stroke-linejoin:miter;stroke-miterlimit:10;stroke-dasharray:none;stroke-opacity:1" id="path336"/>
        </g>
        <g id="g338" transform="translate(9.785,10.5369)">
          <path d="M 0,0 V -1.231" style="fill:none;stroke:#000000;stroke-width:0.283;stroke-linecap:butt;stroke-linejoin:miter;stroke-miterlimit:10;stroke-dasharray:none;stroke-opacity:1" id="path340"/>
        </g>
        <g id="g342" transform="translate(12.0455,10.5369)">
          <path d="M 0,0 V -1.231" style="fill:none;stroke:#000000;stroke-width:0.283;stroke-linecap:butt;stroke-linejoin:miter;stroke-miterlimit:10;stroke-dasharray:none;stroke-opacity:1" id="path344"/>
        </g>
        <g id="g346" transform="translate(18.8269,10.5369)">
          <path d="M 0,0 V -1.231" style="fill:none;stroke:#000000;stroke-width:0.283;stroke-linecap:butt;stroke-linejoin:miter;stroke-miterlimit:10;stroke-dasharray:none;stroke-opacity:1" id="path348"/>
        </g>
        <g id="g350" transform="translate(16.9432,10.5369)">
          <path d="M 0,0 V -1.231" style="fill:none;stroke:#000000;stroke-width:0.283;stroke-linecap:butt;stroke-linejoin:miter;stroke-miterlimit:10;stroke-dasharray:none;stroke-opacity:1" id="path352"/>
        </g>
        <g id="g354" transform="translate(14.6827,10.5369)">
          <path d="M 0,0 V -1.231" style="fill:none;stroke:#000000;stroke-width:0.283;stroke-linecap:butt;stroke-linejoin:miter;stroke-miterlimit:10;stroke-dasharray:none;stroke-opacity:1" id="path356"/>
        </g>
        <g id="g358" transform="translate(24.1013,10.5369)">
          <path d="M 0,0 V -1.231" style="fill:none;stroke:#000000;stroke-width:0.283;stroke-linecap:butt;stroke-linejoin:miter;stroke-miterlimit:10;stroke-dasharray:none;stroke-opacity:1" id="path360"/>
        </g>
        <g id="g362" transform="translate(25.985,10.5369)">
          <path d="M 0,0 V -1.231" style="fill:none;stroke:#000000;stroke-width:0.283;stroke-linecap:butt;stroke-linejoin:miter;stroke-miterlimit:10;stroke-dasharray:none;stroke-opacity:1" id="path364"/>
        </g>
        <g id="g366" transform="translate(28.2455,10.5369)">
          <path d="M 0,0 V -1.231" style="fill:none;stroke:#000000;stroke-width:0.283;stroke-linecap:butt;stroke-linejoin:miter;stroke-miterlimit:10;stroke-dasharray:none;stroke-opacity:1" id="path368"/>
        </g>
        <g id="g370" transform="translate(33.1432,10.5369)">
          <path d="M 0,0 V -1.231" style="fill:none;stroke:#000000;stroke-width:0.283;stroke-linecap:butt;stroke-linejoin:miter;stroke-miterlimit:10;stroke-dasharray:none;stroke-opacity:1" id="path372"/>
        </g>
        <g id="g374" transform="translate(30.8827,10.5369)">
          <path d="M 0,0 V -1.231" style="fill:none;stroke:#000000;stroke-width:0.283;stroke-linecap:butt;stroke-linejoin:miter;stroke-miterlimit:10;stroke-dasharray:none;stroke-opacity:1" id="path376"/>
        </g>
      </g>
    </g>
  </g>
</svg>