<svg xmlns="http://www.w3.org/2000/svg" viewBox="0 0 110.38 138.68">
  <path d="M110.38 32.25c-.11-27.68-32.71-42.43-53.53-24.22-.57.5-1.12 1.02-1.66 1.55-.54-.53-1.09-1.05-1.66-1.55C41.28-3.13 21.01-2.47 9.44 9.45 3.45 15.42-.02 23.81 0 32.25v74.2c0 8.59 3.38 16.4 8.87 22.18v.3c12.86 12.47 33.18 13.45 46.32.19 13.13 13.27 33.48 12.27 46.32-.19v-.3c5.49-5.78 8.87-13.59 8.87-22.18v-74.2Z"/>
  <path d="M32.25 122.3c-8.75 0-15.87-7.12-15.87-15.87v-74.2c0-8.75 7.12-15.87 15.87-15.87s15.87 7.12 15.87 15.87v74.2c0 8.75-7.12 15.87-15.87 15.87Zm0-100.86c-5.95 0-10.79 4.84-10.79 10.79v74.2c0 5.95 4.84 10.79 10.79 10.79s10.79-4.84 10.79-10.79v-74.2c0-5.95-4.84-10.79-10.79-10.79Z" fill="#ff313c"/>
  <path d="M78.11 122.3c-8.75 0-15.87-7.12-15.87-15.87v-74.2c0-8.75 7.12-15.87 15.87-15.87s15.87 7.12 15.87 15.87v74.2c0 8.75-7.12 15.87-15.87 15.87Zm0-100.86c-5.95 0-10.79 4.84-10.79 10.79v74.2c0 5.95 4.84 10.79 10.79 10.79s10.79-4.84 10.79-10.79v-74.2c0-5.95-4.84-10.79-10.79-10.79Z" fill="#00a7a3"/>
  <path d="M78.11 93.96c-4.24 0-8.22-1.65-11.22-4.65L21.03 43.45c-6.19-6.19-6.19-16.26 0-22.44 3-3 6.98-4.65 11.22-4.65s8.22 1.65 11.22 4.65l45.86 45.86c6.19 6.19 6.19 16.26 0 22.44-3 3-6.98 4.65-11.22 4.65ZM32.25 21.44c-2.88 0-5.59 1.12-7.63 3.16-4.21 4.21-4.21 11.05 0 15.26l45.86 45.86c2.04 2.04 4.75 3.16 7.63 3.16s5.59-1.12 7.63-3.16c4.21-4.21 4.21-11.05 0-15.26L39.88 24.6a10.718 10.718 0 0 0-7.63-3.16Z" fill="#ffb500"/>
  <path d="M32.25 39.9c-4.23 0-7.68-3.44-7.68-7.68s3.44-7.68 7.68-7.68 7.68 3.44 7.68 7.68-3.44 7.68-7.68 7.68Zm0-10.27c-1.43 0-2.6 1.17-2.6 2.6s1.17 2.6 2.6 2.6 2.6-1.17 2.6-2.6-1.17-2.6-2.6-2.6Z" fill="#ff313c"/>
  <path d="M78.11 85.76c-4.23 0-7.68-3.44-7.68-7.68s3.44-7.68 7.68-7.68 7.68 3.44 7.68 7.68-3.44 7.68-7.68 7.68Zm0-10.27c-1.43 0-2.6 1.17-2.6 2.6s1.17 2.6 2.6 2.6 2.6-1.17 2.6-2.6-1.17-2.6-2.6-2.6Z" fill="#00a7a3"/>
<script xmlns="" type="text/javascript" src="chrome-extension://hejbmebodbijjdhflfknehhcgaklhano/../window/testing-library.js"/></svg>