<?xml version="1.0" standalone="no"?>
<!DOCTYPE svg PUBLIC "-//W3C//DTD SVG 20010904//EN"
 "http://www.w3.org/TR/2001/REC-SVG-20010904/DTD/svg10.dtd">
<svg version="1.0" xmlns="http://www.w3.org/2000/svg"
 width="192.000000pt" height="192.000000pt" viewBox="0 0 192.000000 192.000000"
 preserveAspectRatio="xMidYMid meet">

<g transform="translate(0.000000,192.000000) scale(0.100000,-0.100000)"
fill="#f90145" stroke="none">
<path d="M775 1896 c-33 -8 -80 -20 -105 -27 -25 -7 -47 -13 -50 -14 -3 -1
-22 -9 -44 -18 -21 -9 -41 -17 -45 -17 -4 0 -40 -20 -80 -45 -76 -47 -271
-235 -271 -261 0 -8 -3 -14 -8 -14 -8 0 -72 -103 -76 -123 -2 -7 -9 -25 -16
-42 -16 -35 -14 -32 -25 -70 -4 -16 -12 -36 -18 -42 -5 -7 -7 -13 -4 -13 3 0
1 -14 -4 -32 -19 -69 -31 -288 -19 -357 40 -219 116 -375 253 -518 180 -188
381 -281 649 -300 156 -11 340 30 486 108 205 109 322 229 424 434 98 196 121
416 68 644 -77 326 -323 586 -655 691 -90 28 -364 38 -460 16z m262 -379 c77
-29 91 -52 303 -502 106 -224 114 -243 114 -301 0 -92 -54 -174 -136 -209 -46
-19 -138 -20 -181 -2 -69 30 -98 66 -173 224 -40 84 -75 153 -77 153 -3 0 4
-30 14 -67 24 -90 24 -98 -10 -168 -49 -103 -123 -155 -219 -155 -135 0 -232
93 -232 224 0 70 -5 58 247 586 69 146 97 183 158 211 46 21 142 24 192 6z"/>
</g>
</svg>
