<!DOCTYPE svg PUBLIC "-//W3C//DTD SVG 1.1//EN" "http://www.w3.org/Graphics/SVG/1.1/DTD/svg11.dtd">
<!-- Uploaded to: SVG Repo, www.svgrepo.com, Transformed by: SVG Repo Mixer Tools -->
<svg fill="#0fa385" width="64px" height="64px" viewBox="0 0 32 32" version="1.1" xmlns="http://www.w3.org/2000/svg">
<g id="SVGRepo_bgCarrier" stroke-width="0"/>
<g id="SVGRepo_tracerCarrier" stroke-linecap="round" stroke-linejoin="round"/>
<g id="SVGRepo_iconCarrier"> <title>pexels</title> <path d="M13.188 11.314v9.372h3.622v-3.517h1.091c0.014 0 0.031 0 0.048 0 1.617 0 2.928-1.311 2.928-2.928s-1.311-2.928-2.928-2.928c-0.017 0-0.034 0-0.051 0l0.003-0zM11.314 9.439h6.587c0.001 0 0.001 0 0.002 0 2.652 0 4.802 2.15 4.802 4.802 0 2.376-1.726 4.349-3.993 4.734l-0.028 0.004v3.58h-7.371zM2.879 1.004c-1.035 0-1.874 0.839-1.874 1.874v0 26.242c0 1.035 0.839 1.874 1.874 1.874h26.242c1.035 0 1.874-0.839 1.874-1.874v0-26.242c0-1.035-0.839-1.874-1.874-1.874v0z"/> </g>
</svg>