<?xml version="1.0" standalone="no"?>
<!DOCTYPE svg PUBLIC "-//W3C//DTD SVG 20010904//EN"
 "http://www.w3.org/TR/2001/REC-SVG-20010904/DTD/svg10.dtd">
<svg version="1.0" xmlns="http://www.w3.org/2000/svg"
 width="402.000000pt" height="104.000000pt" viewBox="0 0 402.000000 104.000000"
 preserveAspectRatio="xMidYMid meet">

<g transform="translate(0.000000,104.000000) scale(0.100000,-0.100000)"
fill="#000000" stroke="none">
<path d="M1340 506 l0 -346 164 0 c233 0 316 20 392 97 74 73 107 199 85 319
-16 88 -39 132 -100 186 -77 70 -122 81 -348 86 l-193 4 0 -346z m381 168 c53
-31 79 -86 79 -169 0 -132 -55 -186 -197 -193 l-83 -5 0 198 0 198 83 -5 c59
-3 94 -10 118 -24z"/>
<path d="M1014 661 c-38 -10 -101 -47 -107 -64 -3 -7 -8 3 -12 21 l-7 32 -85
0 -85 0 6 -31 c3 -17 6 -128 6 -245 l0 -214 90 0 90 0 0 154 c0 146 1 156 23
180 32 36 70 43 96 17 20 -20 21 -32 21 -186 l0 -165 91 0 91 0 -4 198 c-3
177 -5 201 -23 232 -35 58 -117 89 -191 71z"/>
<path d="M2625 661 c-107 -27 -171 -133 -163 -274 6 -126 65 -205 169 -228 52
-12 126 3 164 33 l25 19 0 -25 0 -26 90 0 90 0 0 245 0 245 -90 0 c-82 0 -90
-2 -90 -19 0 -19 -2 -19 -42 4 -49 26 -109 37 -153 26z m139 -141 c70 -26 75
-183 7 -220 -60 -32 -125 8 -131 80 -6 66 1 92 29 121 31 31 53 35 95 19z"/>
<path d="M2303 641 c-17 -11 -36 -28 -42 -38 -9 -16 -11 -14 -17 15 l-6 32
-85 0 -85 0 6 -31 c3 -17 6 -128 6 -245 l0 -214 90 0 90 0 0 144 c0 139 1 146
24 173 20 23 32 28 73 28 26 0 58 -4 71 -8 23 -9 23 -8 20 75 l-3 83 -55 3
c-41 2 -63 -3 -87 -17z"/>
<path d="M140 468 c0 -201 11 -249 64 -283 62 -41 160 -40 221 1 l35 23 0 -24
c0 -25 1 -25 85 -25 l85 0 0 245 0 245 -90 0 -90 0 0 -151 c0 -83 -4 -158 -10
-168 -5 -10 -23 -24 -40 -31 -25 -10 -34 -10 -55 4 -24 16 -25 18 -27 179 l-3
162 -87 3 -88 3 0 -183z"/>
<path d="M3044 633 c3 -10 48 -119 100 -243 l94 -225 77 0 77 0 40 107 c22 60
44 108 48 108 4 0 26 -50 50 -110 l43 -111 76 3 75 3 98 234 c54 129 98 238
98 243 0 4 -38 8 -84 8 l-84 0 -47 -130 c-26 -71 -51 -130 -55 -130 -4 0 -29
59 -55 130 l-49 130 -61 0 -60 0 -19 -52 c-46 -129 -79 -209 -84 -203 -3 3
-27 61 -53 128 l-46 122 -92 3 c-85 3 -92 1 -87 -15z"/>
</g>
</svg>
