<svg
  class="brandRefreshLogo24_MLJ1wzb3"
  viewBox="0 0 158 34"
  fill="none"
  xmlns="http://www.w3.org/2000/svg">
  <title>Grammarly Home</title>
  <path
    d="M78.0885 11.736V12.9655C77.1092 12.02 75.8204 11.4521 74.3633 11.4521C71.0922 11.4521 68.584 14.1246 68.584 17.4352C68.584 20.7458 71.0906 23.3713 74.3633 23.3713C75.8204 23.3713 77.1092 22.8035 78.0885 21.8579V23.0882H80.4285V11.7368H78.0885V11.736ZM77.5546 19.2473C76.4372 21.0101 74.3246 21.5396 72.6464 20.4955C70.9682 19.4522 70.5189 17.3578 71.6363 15.5957C72.7538 13.8328 74.8782 13.283 76.5572 14.3271C78.2354 15.3705 78.6713 17.4852 77.5546 19.2473Z"
    fill="#8e8989"></path>
  <path
    d="M128.21 11.736V12.9655C127.23 12.02 125.941 11.4521 124.484 11.4521C121.213 11.4521 118.705 14.1246 118.705 17.4352C118.705 20.7458 121.212 23.3713 124.484 23.3713C125.941 23.3713 127.23 22.8035 128.21 21.8579V23.0882H130.55V11.7368H128.21V11.736ZM127.677 19.2473C126.559 21.0101 124.446 21.5396 122.768 20.4955C121.09 19.4522 120.641 17.3578 121.758 15.5957C122.876 13.8328 125.001 13.283 126.679 14.3271C128.357 15.3705 128.793 17.4852 127.677 19.2473Z"
    fill="#8e8989"></path>
  <path
    d="M89.6942 16.3187C89.6942 15.2551 89.4557 14.7342 89.0972 14.3557C88.7386 13.9772 88.1898 13.7644 87.5927 13.7644C86.9957 13.7644 86.4468 13.9772 86.0883 14.3557C85.7305 14.7342 85.4912 15.2543 85.4912 16.3187V23.0815H83.0557V11.7302H85.3475V12.5342C85.9919 11.8717 86.923 11.4463 87.9979 11.4463C89.3112 11.4463 90.4816 12.061 91.2216 13.0066C92.0097 12.061 93.2275 11.4463 94.6364 11.4463C96.0453 11.4463 97.1438 12.061 97.9075 13.0543C98.4327 13.7636 98.7667 14.6623 98.7667 16.1052V23.0815H96.3312V16.3187C96.3312 15.2551 96.0927 14.7342 95.7341 14.3557C95.3756 13.9772 94.8267 13.7644 94.2297 13.7644C93.6327 13.7644 93.0838 13.9772 92.7252 14.3557C92.3675 14.7342 92.1282 15.2543 92.1282 16.3187V23.0815H89.6926V16.3187H89.6942Z"
    fill="#8e8989"></path>
  <path
    d="M107.906 16.3187C107.906 15.2551 107.668 14.7342 107.309 14.3557C106.951 13.9772 106.402 13.7644 105.805 13.7644C105.208 13.7644 104.659 13.9772 104.3 14.3557C103.942 14.7342 103.703 15.2543 103.703 16.3187V23.0815H101.268V11.7302H103.559V12.5342C104.204 11.8717 105.135 11.4463 106.21 11.4463C107.523 11.4463 108.694 12.061 109.433 13.0066C110.222 12.061 111.439 11.4463 112.848 11.4463C114.257 11.4463 115.356 12.061 116.119 13.0543C116.645 13.7636 116.979 14.6623 116.979 16.1052V23.0815H114.543V16.3187C114.543 15.2551 114.305 14.7342 113.946 14.3557C113.588 13.9772 113.039 13.7644 112.442 13.7644C111.845 13.7644 111.296 13.9772 110.937 14.3557C110.579 14.7342 110.34 15.2543 110.34 16.3187V23.0815H107.905V16.3187H107.906Z"
    fill="#8e8989"></path>
  <path
    d="M142.115 4.68799H144.551V23.086H142.115V4.68799Z"
    fill="#8e8989"></path>
  <path
    d="M55.3307 11.736V12.9655C54.3514 12.02 53.0626 11.4521 51.6055 11.4521C48.3344 11.4521 45.8262 14.0769 45.8262 17.3883C45.8262 20.6997 48.3336 23.3713 51.6055 23.3713C53.0381 23.3713 54.3277 22.827 55.2825 21.9049V23.0874C55.2825 25.0278 54.0624 26.4911 52.2428 26.7296C50.8213 26.9158 49.2592 26.513 48.2633 25.7027C48.1433 25.6042 48.0327 25.5002 47.9308 25.3915L46.6522 27.4531C46.6838 27.4796 46.7146 27.5062 46.7454 27.532C48.0082 28.5597 49.7788 29.1416 51.5439 29.1416C51.8827 29.1416 52.2207 29.1205 52.5555 29.0759C55.5692 28.6817 57.6691 26.2181 57.6691 23.0874V11.736H55.3291H55.3307ZM51.8448 21.0532C49.8625 21.0532 48.3589 19.4686 48.3589 17.3883C48.3589 15.3079 49.8633 13.7695 51.8448 13.7695C53.8262 13.7695 55.3307 15.3298 55.3307 17.4117C55.3307 19.4937 53.8262 21.0532 51.8448 21.0532Z"
    fill="#8e8989"></path>
  <path
    d="M155.527 11.6958L151.918 19.8038L148.59 11.6958H146.147L150.647 22.6592L147.808 29.0372H150.282L151.834 25.5499L153.105 22.6944L158.001 11.6958H155.527Z"
    fill="#8e8989"></path>
  <path
    d="M67.7449 12.0114C66.8999 11.6422 65.9704 11.489 65.0598 11.6735C64.2527 11.8378 63.5048 12.2398 62.9236 12.8162C62.8035 12.9351 62.6851 13.0524 62.5887 13.1947V11.7283H60.2969V23.0796H62.7324V17.4274C62.7324 16.1033 63.0673 15.3463 63.6154 14.8027C64.1887 14.2349 64.9761 13.9041 65.8843 13.9041C66.1662 13.9041 66.8928 13.9823 67.6809 14.4875L68.8387 12.6206C68.4944 12.386 68.1272 12.178 67.7449 12.0114Z"
    fill="#8e8989"></path>
  <path
    d="M137.941 11.6553C137.134 11.8196 136.386 12.2216 135.805 12.798C135.685 12.9169 135.566 13.0342 135.47 13.1757V11.7093H133.178V23.0606H135.614V17.4084C135.614 16.0843 135.948 15.3273 136.497 14.7837C137.07 14.2159 137.857 13.8851 138.766 13.8851C139.048 13.8851 139.718 13.8913 140.556 14.2136V11.9682C139.73 11.6209 138.828 11.4739 137.941 11.6538V11.6553Z"
    fill="#8e8989"></path>
  <path
    d="M0 16.8696C0 7.55095 7.62573 -0.000976562 17.0355 -0.000976562C26.4452 -0.000976562 34.0694 7.55095 34.0694 16.8696C34.0694 25.0222 28.2332 31.8225 20.4708 33.3969C19.3621 33.6221 18.213 33.7387 17.0402 33.7387H0V16.8688V16.8696Z"
    fill="#027E6F"></path>
  <path
    d="M28.8225 15.2716H21.1462L19.3385 18.3726H25.6683C24.6764 23.7659 18.6199 27.4379 12.5673 24.3322C11.2658 23.665 10.206 22.6335 9.52126 21.3446C6.0393 14.7796 10.7959 8.17485 17.0728 8.17485C19.6607 8.17485 21.9913 9.29715 23.5921 11.0764L25.2142 8.29373C22.9034 6.12732 19.7137 4.8658 16.2356 5.10825C10.3142 5.51259 5.51333 10.3733 5.22508 16.243C4.89654 22.9823 10.3363 28.5657 17.0688 28.5657C23.8014 28.5657 28.9291 23.2951 28.9291 16.8194C28.9291 16.293 28.8889 15.7768 28.8217 15.2716H28.8225Z"
    fill="white"></path>
</svg>
