<svg version="1.1" id="Layer_1" xmlns="http://www.w3.org/2000/svg" xmlns:xlink="http://www.w3.org/1999/xlink" x="0px" y="0px"
	 width="100%" viewBox="0 0 1000 1000" enable-background="new 0 0 1000 1000" xml:space="preserve">
<path fill="#FFFFFF" opacity="0" stroke="none" 
	d="
M1001.000000,379.000000 
	C1001.000000,586.666687 1001.000000,793.833313 1001.000000,1001.000000 
	C667.666687,1001.000000 334.333344,1001.000000 1.000000,1001.000000 
	C1.000000,667.666687 1.000000,334.333344 1.000000,1.000000 
	C334.333344,1.000000 667.666687,1.000000 1001.000000,1.000000 
	C1001.000000,126.833336 1001.000000,252.666672 1001.000000,379.000000 
M666.201660,956.710876 
	C739.598328,929.768616 803.035095,887.788696 856.247009,830.494812 
	C901.260925,782.027832 935.032227,726.663025 957.263367,664.329285 
	C980.225891,599.944946 989.129883,533.663269 984.182495,465.469391 
	C982.093323,436.671783 977.682800,408.266022 970.396545,380.358398 
	C946.563416,289.074646 900.235229,211.075684 831.351868,146.589798 
	C782.929138,101.258408 727.440613,67.350937 664.988159,44.965069 
	C600.317444,21.784048 533.703064,12.816262 465.165588,17.836193 
	C432.518097,20.227411 400.394501,25.563482 368.988068,34.723114 
	C251.433060,69.007843 159.118881,137.607224 92.625824,240.307281 
	C42.703781,317.412994 17.992289,402.576080 16.585478,494.244507 
	C16.219215,518.110229 18.348616,542.146484 21.095289,565.900391 
	C26.917147,616.249451 41.694828,664.191406 63.664169,709.820007 
	C103.743767,793.062195 162.615082,859.978333 240.547089,909.549988 
	C330.658173,966.868713 429.352142,991.384583 535.940125,984.178589 
	C580.406006,981.172424 623.517639,971.897278 666.201660,956.710876 
z"/>
<path fill="#FB617C" opacity="1.000000" stroke="none" 
	d="
M665.826477,956.824158 
	C623.517639,971.897278 580.406006,981.172424 535.940125,984.178589 
	C429.352142,991.384583 330.658173,966.868713 240.547089,909.549988 
	C162.615082,859.978333 103.743767,793.062195 63.664169,709.820007 
	C41.694828,664.191406 26.917147,616.249451 21.095289,565.900391 
	C18.348616,542.146484 16.219215,518.110229 16.585478,494.244507 
	C17.992289,402.576080 42.703781,317.412994 92.625824,240.307281 
	C159.118881,137.607224 251.433060,69.007843 368.988068,34.723114 
	C400.394501,25.563482 432.518097,20.227411 465.165588,17.836193 
	C533.703064,12.816262 600.317444,21.784048 664.988159,44.965069 
	C727.440613,67.350937 782.929138,101.258408 831.351868,146.589798 
	C900.235229,211.075684 946.563416,289.074646 970.396545,380.358398 
	C977.682800,408.266022 982.093323,436.671783 984.182495,465.469391 
	C989.129883,533.663269 980.225891,599.944946 957.263367,664.329285 
	C935.032227,726.663025 901.260925,782.027832 856.247009,830.494812 
	C803.035095,887.788696 739.598328,929.768616 665.826477,956.824158 
M856.094482,338.431732 
	C832.509949,287.332550 799.671082,243.115723 757.067200,206.329025 
	C689.873413,148.310028 611.777832,116.662682 523.234253,111.210342 
	C490.725677,109.208534 458.366028,111.372177 426.330536,117.750198 
	C344.069092,134.127823 273.937897,172.627213 216.583420,233.744751 
	C152.274948,302.272583 117.461220,383.916107 111.267769,477.578918 
	C108.772774,515.310608 111.916031,552.772461 120.676018,589.645569 
	C138.921814,666.447021 176.588120,732.157104 234.317734,785.992493 
	C302.902466,849.950928 384.397858,884.657166 477.890808,890.748047 
	C515.460205,893.195679 552.803772,890.267517 589.456299,881.337952 
	C694.288391,855.798157 775.984436,797.469421 833.106140,706.027893 
	C882.709229,626.622253 899.700317,539.670288 887.738281,447.051758 
	C882.891968,409.528564 872.148621,373.559357 856.094482,338.431732 
z"/>
<path fill="#FFFFFF" opacity="0" stroke="none" 
	d="
M856.256470,338.773560 
	C872.148621,373.559357 882.891968,409.528564 887.738281,447.051758 
	C899.700317,539.670288 882.709229,626.622253 833.106140,706.027893 
	C775.984436,797.469421 694.288391,855.798157 589.456299,881.337952 
	C552.803772,890.267517 515.460205,893.195679 477.890808,890.748047 
	C384.397858,884.657166 302.902466,849.950928 234.317734,785.992493 
	C176.588120,732.157104 138.921814,666.447021 120.676018,589.645569 
	C111.916031,552.772461 108.772774,515.310608 111.267769,477.578918 
	C117.461220,383.916107 152.274948,302.272583 216.583420,233.744751 
	C273.937897,172.627213 344.069092,134.127823 426.330536,117.750198 
	C458.366028,111.372177 490.725677,109.208534 523.234253,111.210342 
	C611.777832,116.662682 689.873413,148.310028 757.067200,206.329025 
	C799.671082,243.115723 832.509949,287.332550 856.256470,338.773560 
z"/>
</svg>