<?xml version="1.0" encoding="utf-8"?>
<svg data-v-73fdaaa2="" version="1.0" width="100%" height="100%" viewBox="136.778 84.789 80 80" preserveAspectRatio="xMidYMid meet" color-interpolation-filters="sRGB" class="el-tooltip" style="margin: auto;" xmlns="http://www.w3.org/2000/svg">
  <rect data-v-73fdaaa2="" x="0" y="0" width="100%" height="100%" fill="#fff" fill-opacity="0"/>
  <g data-v-73fdaaa2="" fill="#fa1d42" class="bordersvg" transform="translate(141.53899955749512,87.72000122070312)">
    <polyline stroke-width="3" fill-opacity="0" fill="#fff" points="28.461000442504883,20 28.461000442504883,10 56.922000885009766,0 56.922000885009766,74.55999755859375 28.461000442504883,64.55999755859375 28.461000442504883,54.55999755859375" style="stroke: rgb(255, 21, 21);"/>
    <g transform="translate(0,20)">
      <rect stroke-width="2" x="0" y="0" width="56.922000885009766" height="34.55999946594238" fill-opacity="0" style="fill: rgb(255, 21, 21);"/>
      <g transform="translate(10,3)">
        <g class="tp-name">
          <g>
            <path transform="translate(-2.7579985160439,27.68)" d="M16.48-25C16.32-25 16.08-25.04 15.84-25.04L15.20-25.04C14.44-25.04 13.56-25.08 12.72-25.08C11.64-25.08 10.44-25.04 9.48-24.92C8.16-24.72 7.04-24.28 6.40-23.48C5.72-22.72 5.36-21.52 5.40-19.80L5.44-15.20L17.40-15.20C18.12-15.20 18.68-14.64 18.68-13.84C18.68-13.12 18.12-12.56 17.40-12.56L5.48-12.56L5.60-6.60C5.64-4.96 5.96-3.88 6.56-3.20C7.16-2.52 8.12-2.16 9.28-1.96C10.16-1.80 11.16-1.76 12.20-1.76C13.72-1.76 15.40-1.88 16.76-2C17.12-2 17.52-1.84 17.92-1.52C18.04-1.40 18.12-1.16 18.20-0.72C18.24 0 17.68 0.56 17 0.64C15.60 0.76 13.72 0.88 12.08 0.88C10.92 0.88 9.84 0.84 8.84 0.68C7.08 0.36 5.68-0.28 4.60-1.40C3.60-2.60 3-4.24 2.96-6.56L2.76-19.80C2.72-22.20 3.28-23.96 4.40-25.24C5.56-26.56 7.16-27.24 9.12-27.48C10.28-27.64 11.72-27.68 13.08-27.68C14.04-27.68 14.96-27.68 15.88-27.64L17.08-27.64C17.80-27.60 18.40-27.08 18.40-26.28C18.40-25.92 18.24-25.60 18-25.36C17.76-25.16 17.44-25 17.08-25ZM37.60-24.56C35.80-24.84 34-25.04 32.36-25.04C31.32-25.04 30.32-24.96 29.40-24.76C27.28-24.32 25.76-23.16 25.64-20.72C25.48-18 28.60-16.48 31.68-15C34.72-13.48 37.76-12 38.96-9.20C39.44-8.08 39.68-6.92 39.68-5.84C39.68-5.40 39.64-5 39.56-4.64L39.56-4.68C39.16-2.60 37.64-1 35.68-0.16C34.32 0.40 32.28 0.80 30.08 0.80C28.52 0.80 26.68 0.64 24.76 0.32C24.40 0.28 24.08 0.08 23.88-0.24C23.68-0.56 23.64-0.84 23.68-1.24C23.84-1.92 24.52-2.40 25.16-2.32C27.04-2 28.72-1.84 30.08-1.84C32.04-1.84 33.56-2.12 34.64-2.60C35.88-3.08 36.76-3.96 37-5.08C37.08-6 37-7.04 36.52-8.16C35.72-10.04 33.04-11.36 30.56-12.64C26.76-14.48 22.80-16.52 22.96-20.84C23.16-24.80 25.52-26.64 28.92-27.32L28.88-27.32C29.92-27.56 31.08-27.64 32.32-27.64C34.12-27.64 36.12-27.44 37.96-27.20C38.32-27.16 38.64-27 38.84-26.68L38.80-26.68C39.04-26.40 39.08-26.04 39.04-25.64C38.92-24.96 38.32-24.48 37.60-24.56Z" style="fill: rgb(255, 21, 21);"/>
          </g>
        </g>
      </g>
    </g>
  </g>
</svg>
