<svg version="1.1" id="Layer_1" xmlns="http://www.w3.org/2000/svg" xmlns:xlink="http://www.w3.org/1999/xlink" x="0px" y="0px"
	 width="100%" viewBox="0 0 256 256" enable-background="new 0 0 256 256" xml:space="preserve">
<path fill="#000000" opacity="0.0" stroke="none" 
	d="
M167.000000,257.000000 
	C111.333336,257.000000 56.166672,257.000000 1.000007,257.000000 
	C1.000005,171.666672 1.000005,86.333351 1.000003,1.000019 
	C86.333321,1.000013 171.666641,1.000013 257.000000,1.000006 
	C257.000000,86.333313 257.000000,171.666626 257.000000,256.999969 
	C227.166672,257.000000 197.333328,257.000000 167.000000,257.000000 
M234.008194,149.556625 
	C234.672241,145.724762 235.750870,141.911957 235.928238,138.057709 
	C236.677673,121.773010 235.213776,105.804749 229.042358,90.451508 
	C222.373260,73.860176 212.701828,59.510059 199.336624,48.128384 
	C193.934906,53.540634 188.726700,58.758995 183.536652,63.959164 
	C222.008881,97.222214 226.243576,157.250778 182.968491,194.889450 
	C188.151642,200.104950 193.384079,205.370071 198.651581,210.670456 
	C216.742630,194.656723 229.278015,174.851929 234.008194,149.556625 
M52.509659,93.037857 
	C57.463329,81.648895 65.429329,72.457428 74.634811,63.824486 
	C70.034172,59.333797 65.734001,55.391354 61.750290,51.151554 
	C59.389282,48.638779 57.603920,48.317623 55.345711,51.124573 
	C49.419498,58.490826 42.806602,65.381554 37.542904,73.187088 
	C28.046656,87.269058 23.251389,103.327766 22.231400,120.121902 
	C21.628916,130.041809 22.545776,140.229874 24.153196,150.073013 
	C27.987396,173.551971 39.982563,192.742584 57.333755,208.709885 
	C58.129753,209.442398 60.438080,209.819504 61.044247,209.267151 
	C66.021996,204.731277 70.763100,199.935715 75.592659,195.202637 
	C41.419277,164.313843 37.872395,124.591560 52.509659,93.037857 
M190.107712,109.371780 
	C186.268082,96.640816 179.198273,86.164383 169.543640,78.973282 
	C164.067947,84.422714 158.817551,89.647934 153.646530,94.794151 
	C164.725891,103.330048 171.182022,114.934532 170.959290,129.746063 
	C170.734344,144.704895 163.483627,156.081772 151.185669,165.164032 
	C155.226440,169.049850 158.844177,172.456070 162.379654,175.945648 
	C167.784698,181.280548 168.181274,181.396820 173.735184,175.731476 
	C191.993256,157.106995 197.059097,135.052048 190.107712,109.371780 
M93.488174,82.988197 
	C88.504440,78.006508 88.519844,78.022049 83.479706,83.018272 
	C64.642761,101.691086 59.774940,130.453705 69.595978,154.003204 
	C73.980179,164.515930 80.020142,174.017853 90.630997,180.364853 
	C95.015465,175.831085 99.412231,171.514160 103.466644,166.896622 
	C104.268646,165.983231 104.415901,162.999344 103.747589,162.516235 
	C94.621712,155.919525 89.843742,146.913742 87.467392,136.083618 
	C84.766953,123.776443 91.281219,104.418503 101.660507,97.259277 
	C104.880951,95.037941 104.312325,93.733757 102.115486,91.605865 
	C99.366241,88.942917 96.697105,86.197250 93.488174,82.988197 
M109.337578,138.883347 
	C113.621330,146.074219 119.697899,150.656784 128.249084,150.957458 
	C142.857376,151.471100 156.323456,136.668274 148.739990,119.478485 
	C145.336227,111.763031 133.246948,105.448219 125.901955,107.089211 
	C111.267075,110.358879 103.221619,124.446548 109.337578,138.883347 
z"/>
<path fill="#CE93D8" opacity="1.000000" stroke="none" 
	d="
M234.004303,149.995956 
	C229.278015,174.851929 216.742630,194.656723 198.651581,210.670456 
	C193.384079,205.370071 188.151642,200.104950 182.968491,194.889450 
	C226.243576,157.250778 222.008881,97.222214 183.536652,63.959164 
	C188.726700,58.758995 193.934906,53.540634 199.336624,48.128384 
	C212.701828,59.510059 222.373260,73.860176 229.042358,90.451508 
	C235.213776,105.804749 236.677673,121.773010 235.928238,138.057709 
	C235.750870,141.911957 234.672241,145.724762 234.004303,149.995956 
z"/>
<path fill="#CE93D8" opacity="1.000000" stroke="none" 
	d="
M52.282562,93.354172 
	C37.872395,124.591560 41.419277,164.313843 75.592659,195.202637 
	C70.763100,199.935715 66.021996,204.731277 61.044247,209.267151 
	C60.438080,209.819504 58.129753,209.442398 57.333755,208.709885 
	C39.982563,192.742584 27.987396,173.551971 24.153196,150.073013 
	C22.545776,140.229874 21.628916,130.041809 22.231400,120.121902 
	C23.251389,103.327766 28.046656,87.269058 37.542904,73.187088 
	C42.806602,65.381554 49.419498,58.490826 55.345711,51.124573 
	C57.603920,48.317623 59.389282,48.638779 61.750290,51.151554 
	C65.734001,55.391354 70.034172,59.333797 74.634811,63.824486 
	C65.429329,72.457428 57.463329,81.648895 52.282562,93.354172 
z"/>
<path fill="#9C27B0" opacity="1.000000" stroke="none" 
	d="
M190.329865,109.715607 
	C197.059097,135.052048 191.993256,157.106995 173.735184,175.731476 
	C168.181274,181.396820 167.784698,181.280548 162.379654,175.945648 
	C158.844177,172.456070 155.226440,169.049850 151.185669,165.164032 
	C163.483627,156.081772 170.734344,144.704895 170.959290,129.746063 
	C171.182022,114.934532 164.725891,103.330048 153.646530,94.794151 
	C158.817551,89.647934 164.067947,84.422714 169.543640,78.973282 
	C179.198273,86.164383 186.268082,96.640816 190.329865,109.715607 
z"/>
<path fill="#9C27B0" opacity="1.000000" stroke="none" 
	d="
M93.740784,83.237747 
	C96.697105,86.197250 99.366241,88.942917 102.115486,91.605865 
	C104.312325,93.733757 104.880951,95.037941 101.660507,97.259277 
	C91.281219,104.418503 84.766953,123.776443 87.467392,136.083618 
	C89.843742,146.913742 94.621712,155.919525 103.747589,162.516235 
	C104.415901,162.999344 104.268646,165.983231 103.466644,166.896622 
	C99.412231,171.514160 95.015465,175.831085 90.630997,180.364853 
	C80.020142,174.017853 73.980179,164.515930 69.595978,154.003204 
	C59.774940,130.453705 64.642761,101.691086 83.479706,83.018272 
	C88.519844,78.022049 88.504440,78.006508 93.740784,83.237747 
z"/>
<path fill="#7B1FA2" opacity="1.000000" stroke="none" 
	d="
M109.171677,138.529541 
	C103.221619,124.446548 111.267075,110.358879 125.901955,107.089211 
	C133.246948,105.448219 145.336227,111.763031 148.739990,119.478485 
	C156.323456,136.668274 142.857376,151.471100 128.249084,150.957458 
	C119.697899,150.656784 113.621330,146.074219 109.171677,138.529541 
z"/>
</svg>