<svg id="Capa_1" xmlns="http://www.w3.org/2000/svg" xmlns:xlink="http://www.w3.org/1999/xlink" x="0" y="0" viewBox="0 0 640 640" style="enable-background:new 0 0 640 640" xml:space="preserve" width="72" height="72" class="c-PJLV c-PJLV-ijASRzK-css"><style>.st3{fill:#fff}</style><defs><path id="SVGID_1_" d="M613.9 241.2c-21.5-80.2-55-153.9-98.1-219.7C508 9.5 494.9 2 480.6 1.2 402-3.2 321.4 4.6 241.2 26.1 161 47.6 87.3 81.1 21.5 124.2 9.5 132 2 145.1 1.2 159.4-3.2 238 4.6 318.6 26.1 398.8c21.5 80.2 55 153.9 98.1 219.7 7.9 12 20.9 19.6 35.3 20.4 78.6 4.4 159.2-3.5 239.3-24.9s153.9-55 219.7-98.1c12-7.9 19.6-20.9 20.4-35.3 4.3-78.6-3.5-159.2-25-239.4z"></path></defs><clipPath id="SVGID_2_"><use xlink:href="#SVGID_1_" style="overflow:visible"></use></clipPath><path d="M650.1-26.7c-.8-2.1-2.9-3.4-5.1-3.2l-4.9.4c-.6-.2-1.3-.3-2-.3-2.9.2-6.5.4-7.2.5-.1 0-.3 0-.4.1l-3.6-2.3c-.5-1.6-1.8-2.9-3.5-3.3l-6.4-1.6c-.9-1-2.3-1.6-3.7-1.6h-1.6c-1.1 0-2.2.4-3.1 1.1l-1 .8c-1.2 0-2.5.5-3.4 1.4-.3-.1-.6-.1-.9-.1H602c-.5 0-1 .1-1.5.2-.4-.2-.9-.3-1.3-.3l-2.3-.2c-.4-.8-1-1.4-1.7-1.9l-3.4-2.2c-.9-.6-2-.9-3.1-.8l-3.4.2c-.9.1-1.7.3-2.4.8l-2.6 1.7c-1.4.9-2.2 2.4-2.3 4v1.2l-.9 1.2c-.7.9-1 2-1 3.1v1.9l-.8.6c-.3.2-.5.4-.8.7-.5-1.5-1.7-2.8-3.2-3.3l-2.2-.7c-.5-.2-1-.3-1.6-.3h-.5c-1.3-.9-3.1-1.1-4.6-.4l-3 1.2c-1.1.5-2 1.3-2.6 2.4l-4.8 9.6c-.4.8-.6 1.6-.5 2.5l.1 2.5-1.5 3.4-.3.1c-.9.3-1.7.9-2.3 1.7l-3.3 4.2-.9.4c-.9.4-1.7 1-2.2 1.8l-1.4.3c-.7.1-1.3.4-1.9.8L533.3 5c-.1.1-.2.2-.3.2-.4-.1-.9-.2-1.3-.2h-1.1l-3.4-1.6c-.6-1.1-1.6-2-2.9-2.4l-4.5-1.5-1-1.4c-.7-1-1.7-1.7-2.9-2.1-.3-1.2-1.1-2.2-2.1-2.8-1.1-.7-2.5-.9-3.8-.6l-3.4.8c-2.3.5-3.8 2.5-3.8 4.9v1.1c0 .4 0 .7.1 1.1-.9 1.7-.6 3.7.5 5.2l-1.2 1.9c-1.3 2.1-1 4.8.8 6.4l1.8 1.7c.4.3.8.6 1.2.8v.3c.1 1.2.6 2.3 1.4 3.2-.5.7-.8 1.6-.9 2.4l-.1 1.5-1.8 2.3c-.1.2-.2.3-.3.5l-.6 1c-1 1.7-1 3.8.1 5.3v4.6c0 1.4.6 2.7 1.6 3.7-1.5.9-2.5 2.5-2.5 4.3V47c0 1.5.7 3 1.9 4l1.4 1.1c.1.6.2 1.2.5 1.7-.8.9-1.3 2.1-1.3 3.3v1.6c0 1.2.5 2.4 1.3 3.3v.7c-.2.3-.3.6-.5.9-1.2.5-2.1 1.5-2.6 2.7l-.3.7c-1.1.4-2 1.1-2.6 2l-1.4 2.2c-.5.7-.7 1.5-.8 2.4l-.2 2.7c-1.2.2-2.3.8-3.1 1.7l-1.6 1.8c-.7.8-1.1 1.9-1.2 2.9v.6c-.4.8-.6 1.7-.6 2.6l.1 1.8c.1 1.1.5 2.2 1.2 3.1l.8.9-.9.7c-.8.7-1.5 1.6-1.7 2.6l-.4 1.4c-.5 1.7 0 3.4 1.1 4.6v1l-1.2.3-5 2.1c-.6.2-1.1.6-1.5 1l-3.8 3.7c-.4.4-.7.8-1 1.3l-.8 1.5-3.4 1.8c-.6 0-1.1.2-1.6.4l-1.4.6-.7-.6c0-1.3-.5-2.6-1.4-3.5l-1-1c-.2-.7-.6-1.3-1-1.9l-.1-.2-.5-3.5c-.1-.7-.4-1.4-.8-2-.1-.9-.3-1.7-.8-2.5l-3.5-5.2c0-1-.3-2-.9-2.9l-1-1.4c-.6-.8-1.4-1.5-2.4-1.8-.9-2.2-3.2-3.4-5.4-3-.1-.4-.3-.8-.5-1.1-.7-1.2-2-2.1-3.4-2.3l-.5-.1c-.6-2.1-2.6-3.6-4.8-3.6H441c-.3 0-.6 0-.9.1-.1 0-.2-.1-.4-.1-1.4-.3-2.8 0-3.9.8l-1.9 1.4c-.3.2-.7.5-.9.8-.5.2-.9.4-1.3.7l-4.2 3.1c-1.4 1-2.2 2.7-2 4.5l.1.6c.1.6.2 1.1.4 1.6-.8 1.9-.5 4.1 1.1 5.6l2.5 2.5c1.1 1.1 2.6 1.6 4.1 1.4l.8-.1c.1.7.3 1.4.7 2l1.8 3.1c.7 1.2 1.9 2.1 3.2 2.4l.1.2c.9 1.2 2.2 1.9 3.7 2h.4l.1.9c.2 1 .6 1.9 1.3 2.6 0 .1-.1.2-.1.3l-.8 2.6-1.1 3.3c-.2.6-.3 1.3-.3 2l.4 5.9c.1 1 .4 1.9.9 2.6v.9c-.1 1.2.3 2.4 1.1 3.4-.3.4-.5.9-.6 1.3l-.3.1c-1.5.6-2.7 1.9-3.1 3.5l-.8 3.7c-.1.4-.1.9-.1 1.3l.1 2.9c.1 1.6.8 3 2.1 3.9l1.1.8c-.6.8-1 1.7-1.1 2.7l-.2 1.8c-.6.8-1 1.7-1.1 2.7l-.5 5.3c-.1.6 0 1.2.1 1.8-.2.1-.3.2-.4.3l-3.2 2.3c-.1.1-.2.1-.2.2-.3-.1-.6-.1-1-.1l-4.5.1c-1.3 0-2.6.6-3.5 1.6-.7.8-1.2 1.7-1.3 2.8-1 .8-1.7 2.1-1.8 3.4l-.1 1.5-1.4 1.7c-.8 1-1.2 2.3-1.1 3.5-.8 1-1.2 2.2-1.1 3.4-.4.1-.7.3-1.1.5h-.8c-.1 0-.1-.1-.2-.1-1.3-.9-3-1-4.5-.4l-.7.3c-.7.3-1.4.7-1.9 1.3l-1 1.1c-.6.7-1 1.5-1.2 2.3h-.1c-.8 0-1.7.1-2.4.5l-1.2.6c-1.2.6-2.1 1.6-2.6 2.8-.2.1-.3.1-.5.2l-1.5.7c-1 .5-1.8 1.3-2.3 2.3l-.4.8-.3.2c-.8.6-1.4 1.4-1.8 2.3-.3.2-.6.5-.9.9l-.6.8c-.5.2-1 .5-1.4.9l-.9.8c-.5.4-.8.9-1.1 1.5-1.7.9-2.8 2.8-2.7 4.8l.1.8c0 .2 0 .3.1.5-.1.2-.1.5-.1.7-.8.9-1.3 2.1-1.3 3.3v.4l-.4.4-2.4 2.5c-.4.4-.7.8-.9 1.3-2 1-3 3.2-2.6 5.3-.3.2-.5.5-.8.7l-1.8 2.2c-.1.1-.2.2-.3.4h-1.7l-.1-.1c-.7-.7-1.6-1.2-2.6-1.3l-2.5-.4-.6-.1c-1.7-.4-3.5.1-4.7 1.4L365 233c-.9-.5-1.9-.8-3-.7l-2.2.2c-.8.1-1.6.3-2.3.8l-1.4.9-5.4-.1c-.2-1.5-1-2.8-2.3-3.6l-3.5-2.2-.1-.1c-.6-1.3-1.9-2.3-3.3-2.7l-2.1-.5c-.4-.4-.8-.8-1.3-1.1-1.2-.7-2.6-.9-3.9-.6l-1.5.4c-1.4.4-2.5 1.3-3.2 2.6l-.4.8-3.3 2.3c-1.4 1-2.2 2.5-2.1 4.2l.1 3.3c0 .3 0 .7.1 1-.3.6-.5 1.2-.6 1.8-.7 1-1.1 2.2-1.3 3.3l-.7.7c-1.4.1-2.7.8-3.5 1.9l-2.2 2.8c-.4.5-.7 1.1-.9 1.7l-.6 2.1c-.6.6-1.1 1.4-1.3 2.2-1.5.8-2.5 2.2-2.6 3.9l-.4 3.5v.5l-.5.1h-2.8c-.9-.5-2-.7-3.1-.6l-2.2.3c-1-.3-2.1-.2-3.2.2l-2.4 1c-1.3.5-2.3 1.5-2.8 2.8l-1.1 2.8c-.1.4-.2.7-.3 1.1l-.4 2.5v.1c-.3.5-.5 1-.6 1.5l-.7 3.2c-.5.4-.9.8-1.2 1.3l-3.2 4.8c-.1.1-.2.2-.2.4-.8-.7-1.8-1.2-3-1.3h-.1c0-.5-.2-1-.3-1.4l-1-2.4c-.6-1.4-1.7-2.5-3.2-2.9l-1.9-.6-2.5-2.9-.3-.3c.3-.5.5-1 .6-1.6.9-.8 1.5-1.8 1.7-3l.2-1.5c.9-.9 1.4-2.2 1.4-3.5v-1c.6.2 1.2.4 1.9.4h2.2c.8 0 1.6-.2 2.3-.6l1.8-.9c1.5-.8 2.5-2.3 2.6-4 .5-.4 1-.9 1.3-1.5l1-1.9c.3-.7.5-1.4.6-2.1 1.4-1 2.2-2.6 2.1-4.4l-.1-1.6c.7-.8 1.1-1.7 1.2-2.8v-.5c1.1-.9 1.8-2.3 1.8-3.8v-1.9c0-.5-.1-1-.2-1.5.5-.8.8-1.8.8-2.7v-1.3l.4-1.1c.6-2 0-4.1-1.7-5.4l-.8-.7c-.1-.1-.3-.2-.4-.3v-.1c-.2-1-.8-1.9-1.5-2.6-.1-1.4-.8-2.6-1.9-3.5l-2.4-1.9c-.2-1-.7-1.9-1.4-2.6l-1-.9c-.1-1.2-.6-2.4-1.5-3.3l-.6-.6c-1.1-1.1-2.5-1.6-4-1.4l-1.7.2c-.5.1-1 .2-1.5.4l-.9-.7c-.4-.3-.8-.5-1.3-.6l-.7-.2-3-2.9c-1-1-2.3-1.5-3.7-1.4h-.5l-1-.6-.1-.1c-.8-1.4-2.2-2.3-3.8-2.5l-2-.2c-.9-.1-1.8.1-2.7.5l-3.3 1.6c-1.1.5-1.9 1.4-2.4 2.4l-.4.9c-.4.9-.5 1.8-.4 2.7l-1 .9c-.9.8-1.4 1.9-1.6 3.1l-.1.9-.1.1c-.4.6-.6 1.3-.7 2l-.1 1.1-1 1.2c-.1.2-.3.4-.4.5l-.8 1.4v.4c-.9.4-1.7 1-2.3 1.8l-.7 1.2c-.1.2-.3.4-.4.7l-2.1 1.1c-.2.1-.4.2-.6.4l-.3.2c-.9.2-1.7.7-2.3 1.4l-1.4 1.5c-.4.4-.7.9-1 1.5l-.7 1.6c-.2.5-.4 1.1-.4 1.7-.3.7-.5 1.5-.5 2.3v.8c-.4.9-.6 1.8-.5 2.8l.1.8-.2 1.2-1.6 2.9-.4.6c-.4.1-.8.2-1.1.4l-1.3.6c-.7.3-1.3.8-1.8 1.4l-1 1.3c-1.2.4-2.3 1.3-2.9 2.5l-.4.8c-.5 1.1-.7 2.3-.4 3.4l.4 1.6c.2.7.5 1.3.9 1.9v.7c.1 1.5.8 2.9 2.1 3.8l3.2 2.3c.6.4 1.3.7 2 .9 0 .1 0 .1-.1.2l-1.1 3.2-2.4 3.9c-.3.6-.6 1.2-.7 1.8l-.7 4.1-.7 2.4-.5.8c-.6 1-.9 2.2-.7 3.4l.4 2.2c.1.6.3 1.1.5 1.6l-.1.1c-.7 1.1-.9 2.4-.6 3.6l.1.3v.3l-.8-1.1c-.5-.7-1.3-1.3-2.1-1.7l-3.8-1.6-.7-.5-2.8-3.5c-.4-.4-.8-.8-1.3-1.1-.3-.4-.6-.8-.9-1.1l-.4-.4c-1.4-1.3-3.5-1.6-5.3-.9l-1.3.6c-.5.2-1 .6-1.4.9-.5-.1-1-.2-1.4-.2l-2.7.1c-1.1-1-2.6-1.4-4.1-1.1l-1.7.3c-1.2.2-2.2.8-3 1.7l-2.8 3.3c-.7.8-1.1 1.8-1.2 2.8l-.2 2.4-1 1.5c-1.2-.8-2.6-1-4-.7l-4 1c-.4.1-.9.3-1.3.5l-4.8 2.7-.5-1.5c-.5-1.6-1.8-2.8-3.4-3.3l-1.8-.5c-.8-.2-1.7-.3-2.5-.1l-2.1.5-4.4.3c-.8-1.6-2.5-2.7-4.5-2.7h-1.2c-.9 0-1.7.2-2.5.7l-3.3 1.9-1 .4c-.8-1-1.9-1.6-3.2-1.8l-.1-2c0-.3-.1-.7-.2-1l-2-7.6c-.1-.3-.2-.5-.3-.8l-1.3-2.8c-.4-.8-1-1.5-1.7-2l-2.5-1.7c-1-.7-2.1-1-3.3-.9l-1.3.1s-.1 0-.1-.1l-1.4-1.1c-1.2-.9-2.8-1.3-4.3-.9l-3.4.8-1.4-.6-.4-.9-.3-4.9.3-1.1c.4-1.8-.2-3.6-1.5-4.9l-1.1-1c-.9-.8-2.1-1.3-3.3-1.3H104l-1.5-.3-4.5-4.7c-.4-2.2-2.2-3.9-4.5-4.1l-1.4-.1c-1.3-.1-2.6.3-3.7 1.2l-2.4 2c-1.2 1.1-1.9 2.7-1.7 4.3l.2 1.9-1.1 1.4c-.8 1-1.2 2.2-1.1 3.4l.1 1.6-1.1.2c-.8.1-1.5.5-2.1.9v-.2l.2-1.1c.9-.6 1.6-1.6 1.9-2.6l.7-1.9c.1-.3.1-.5.2-.8l.3-2.8c.7-1 .9-2.2.8-3.4l-.2-1.2c-.1-.5-.2-.9-.4-1.4-.1-.6-.2-1.1-.5-1.6-.1-1-.4-1.9-.9-2.7l-.4-.6c-.5-.6-1.1-1.2-1.8-1.5-.5-.6-1.1-1.1-1.8-1.5l-.8-.4-.1-.7c-.1-.9-.4-1.7-.9-2.4l-.2-.9c0-.1 0-.1.1-.2l.4-1.1c1.1-1.1 1.7-2.6 1.5-4.2l-.1-.4c-.1-.9-.4-1.7-.9-2.3-.1-.1-.1-.2-.2-.3l-1.5-2.4c0-.3 0-.5-.1-.8.6-.8 1-1.8 1.1-2.8v-.3l1.2-3.3c.2-.5.3-1.1.3-1.7v-1.7c0-1.3-.5-2.5-1.3-3.4l-1.5-1.6c-.9-.9-2-1.5-3.3-1.6-.4-.2-.8-.4-1.3-.5l-1.8-.5c-.1-.1-.2-.1-.2-.2-1.1-.8-2.6-1.1-3.9-.9l-.8.2c-.6.1-1.3.4-1.8.7l-1.1.3c-.7.2-1.4.5-2 1l-2.3 1.9h-.1c-.7.3-1.4.7-1.9 1.2l-.9.9c-1.3.5-2.4 1.6-2.9 3v.1l-.7.6c-.1 0-.2 0-.3.1l-.3-.3c-.8-.7-1.9-1.1-2.9-1.2l-1.9-.1h-1c-.2-.3-.4-.5-.6-.7l-1.4-1.4c-.8-.8-1.8-1.3-2.9-1.4l-3.3-.4-.7-.8c-.5-.6-1.2-1-1.9-1.3l-1-.4c-.1-.2-.3-.3-.4-.5l-.4-.5c-.1-.3-.1-.5-.2-.8l-.3-.9c-.4-1-1-1.8-1.8-2.3l-.5-.6-.4-1.5-.1-1.3v-.1c.3-1.1.1-2.3-.5-3.4l-.3-.6-.2-.4c-.3-1-.8-1.9-1.6-2.6l-.9-.7c-.4-.9-1-1.6-1.8-2.1.5-.8.8-1.7.8-2.7v-1.3c0-1-.3-1.9-.8-2.7l.1-1.5c0-1.3-.4-2.6-1.3-3.5-.4-.7-1-1.3-1.8-1.8l-1.3-.8c-.4-.2-.8-.4-1.2-.5l-1.6-.4c-.1 0-.3-.1-.4-.1-.2-.3-.5-.6-.8-.8l-.4-.3c-.2-.5-.5-1-.9-1.4v-.1c-.1-.7-.3-1.5-.7-2.2l-.6-1c0-.6-.2-1.1-.4-1.6l-.8-1.7-.2-1.2c.6-1.6.4-3.4-.7-4.8l-.5-.7c-1.1-1.4-2.8-2.2-4.6-2l-2.2.3c-.9.1-1.8.5-2.5 1.1l-3.3 2.6c-.4.4-.8.8-1.1 1.3l-1.7 2.7-1.6 1.9c-.5.6-.9 1.3-1 2l-.4 1.5-1.1 1.1c-.3.3-.5.6-.7.9l-3.1 5.2c-.6 1-.8 2.1-.7 3.2l.1 1c-.2.5-.4 1.1-.5 1.6l-.2 2.3-2.4 2.2c-.5.5-.9 1-1.2 1.7l-4.1 9.2c-.4.8-.5 1.7-.4 2.7l.9 7.3c.2 1.6 1.2 3 2.6 3.8l2.4 1.3 2.5 1.8c.6.4 1.2.7 1.9.8l-.2.4c-.2.5-.4 1.1-.4 1.7l-.1 1.8v.8l.2 2.3c0 .3.1.6.2.9l.8 2.8c.2.8.6 1.5 1.2 2.1l.9.9.2.5h-.7c-.8-.4-1.7-.6-2.6-.5l-.6.1c-1.1.1-2.1.6-2.9 1.3-1.3.4-2.3 1.3-2.9 2.6l-.7 1.3-1 1c-.6.6-1 1.3-1.2 2-.5.7-.8 1.5-.9 2.4l-.2 1.5c-.1 1.2.2 2.5.9 3.5l.1.6c.2 1 .7 1.8 1.4 2.5l1 1c.4.4.9.8 1.5 1 .2.9.5 1.7 1.1 2.4-.7 0-1.3.1-1.9.3-1.1 0-2.2.5-3.1 1.2l-.1.1c-.4.2-.9.4-1.2.7l-.8.6c-.6.5-1.1 1-1.5 1.7l-1.7 3.3c-.3.6-.5 1.2-.6 1.9l-.1 1.3-2 6.2c-.2.6-.3 1.2-.2 1.9-.3.7-.5 1.4-.4 2.1l.1 4.7-.4.8c-.2.4-.3.8-.4 1.2-.3.5-.6 1-.7 1.5l-.7.9c-.5.7-.9 1.4-1 2.2-.2.3-.4.7-.5 1-.4.4-.8.9-1 1.5-.7 1.5-.6 3.3.4 4.8-.6 1.3-.6 2.9 0 4.2l.5 1.1c.4.9 1.2 1.7 2 2.2.3.3.7.5 1 .7l1.3.7c1.3.7 2.7.7 4.1.3l1.5-.6c.3-.1.6-.3.9-.5 1.3-.2 2.5-1 3.3-2.1.1 0 .2.1.3.1 1.3.6 2.8.5 4.1-.1l.6.2 1.2.3c1.1.6 2.4.8 3.6.5l.6-.2c1.3-.3 2.4-1.1 3.1-2.2.6.2 1.3.4 1.9.3.8 0 1.5-.2 2.1-.5 2 .3 3.9-.6 5-2.2l.8-1.2c.1-.1.2-.3.2-.4.4-.3.8-.6 1.2-1l.3.2c1.4.6 3 .5 4.3-.1.7 1.1 1.8 1.9 3.1 2.3l1.3.3c1.7.4 3.4-.1 4.6-1.2l.3.3.8.6c1.4 1.1 3.2 1.3 4.8.8l2.4 1.1c1.3.6 2.8.6 4.1 0 .9-.4 1.6-1 2.1-1.8 1.1 0 2.3-.4 3.2-1.1.6-.5 1-1 1.3-1.7l.9-.6c.2 0 .4.1.6.1 2 .2 4-.8 5-2.5l.8-1.4 2.4-3 2-.5c1.3-.3 2.3-1.1 3-2.2l.5-.9.1.1v1l.1 1.4c.1 1.5.9 2.8 2.1 3.6 0 .4.1.9.2 1.3l.6 2.2c.2.7.6 1.4 1.1 1.9l.6.7c-.3 1.1-.1 2.3.4 3.3l-.2.2c-.6.4-1 .9-1.4 1.5l-1 1.6c-.8 1.3-1 2.8-.5 4.2.5 1.4 1.5 2.5 2.9 3.1l.2.4c.5.9 1.3 1.6 2.2 2l1.8.8.1 1.7-.4.9-2.8 1.6c-1.8 1.1-2.8 3.2-2.4 5.3v.1c-.6.4-1.1.8-1.5 1.4l-1 1.4c-1 1.5-1.2 3.5-.3 5.2.6 1.1 1.5 1.9 2.6 2.3l.6 1.6-.5 3c-.3 1.4.1 2.9 1 4l2.9 3.6c.9 1.2 2.4 1.9 3.9 1.9h2l2 1.6 1.8 2.2.5 3.5-1 6-.6 2.8c-.4 1.7.2 3.4 1.4 4.6l1.4 1.4c1 1 2.4 1.5 3.9 1.4 1.4-.1 2.8-.8 3.6-2l.7-1h1.2c.9 0 1.9-.3 2.7-.8l5.5 4.4c.9.7 2.1 1.1 3.1 1.1l.1.1c.2.2.3.3.5.4l4 3c1.3.9 2.9 1.2 4.3.8 0 0 .1 0 .1.1l3.5 1.6c1.5.7 3.2.6 4.5-.3-.4 1.3-.2 2.6.4 3.8l1 1.8c.8 1.5 2.4 2.5 4.1 2.6h.1l.1.7c.2 1.3 1 2.5 2.1 3.3l3.8 2.6c.7.5 1.4.7 2.2.8v.1c-.1 1.6.5 3.2 1.8 4.3l2.2 1.9c2 1.7 5.1 1.5 6.9-.4l2.2-2.3h.1c1.6.1 3.1-.6 4.1-1.8l3.9-4.6c.5-.5.8-1.2 1-1.8l1.3-4.5v-.1c.3-.4.6-.9.8-1.4l.5-1.2c.4-.9.4-1.9.2-2.9l.4-.5c1.1 0 2.1-.4 2.9-1.1h1l.1.1 2.1 1.4c1.9 1.3 4.5 1.1 6.2-.5l2.7-2.5c1-.9 1.6-2.2 1.6-3.5v-5.5c0-.4 0-.8-.1-1.2l-1.1-4.7.2-.7c0-.2.1-.3.1-.5.9.1 1.9-.1 2.8-.6l1-.6c1.3-.7 2.2-1.9 2.5-3.2l.4-.2.2.1c2.3 1.1 4.9.3 6.3-1.8l.9-1.4h.1c1.2 0 2.4-.4 3.3-1.2l.6-.5h.6c1.1 0 2.2-.4 3.1-1.1l-.3 4v3.3c0 .9.2 1.7.6 2.4l1.6 2.9c.3.6.8 1.1 1.3 1.5l4.1 3.3c1.4 1.1 3.2 1.4 4.8.8.9 1.8 2.7 2.9 4.6 2.8.1.4.3.8.5 1.2.8 1.2 2 2.1 3.4 2.3l2.2.4 1.9 1.9c.9.8 2 1.3 3.1 1.4.5.8 1.2 1.4 2 1.8l3.9 1.9.5 1.2c1.1 2.5 4 3.6 6.5 2.6l.5-.2.7.2 1.5 1.4c.9.9 2.2 1.4 3.5 1.4h1l-.8 2.5c-.4 1.1-.3 2.4.2 3.5l.4.8.2 6.1-.6 1.5c-.7 1.8-.3 3.9 1.1 5.3l4.6 4.8c1.2 1.3 3 1.8 4.7 1.4l1.9-.5 2.3 1 1.6 1.4c-.1.9 0 1.8.4 2.6l.9 2.1c-.2.9-.2 1.8.1 2.7l1.3 3.8c-.2.6-.3 1.2-.2 1.8l.3 7.3c.1 1.9 1.2 3.6 3 4.4l.6 3.3c.3 1.5 1.1 2.7 2.4 3.5l1.6.9 1 1-.5 1.1c-.3.7-.5 1.4-.4 2.2l.2 5.8c0 .7.2 1.4.5 2.1l1.9 3.6.2 3.5-.1.8-.4.5-4.7 1.9c-.7.3-1.4.8-1.9 1.4l-1.5 1.7c-.7.8-1.1 1.8-1.2 2.9l-.2 3c-.1 1.2.2 2.3.9 3.3l1.1 1.5c-.4.7-.7 1.4-.7 2.2l-.1.8-1.4 1.5c-.3.4-.6.8-.9 1.3l-1.1 2.5-2.4 2.6c-1 1-1.4 2.4-1.3 3.8l-.4.6c-1.2 1.7-1.2 4 0 5.7l.8 1.2.4 2.7c.1.7.4 1.5.9 2.1l2.1 3c.6.9 1.5 1.5 2.5 1.9l.3.6c.9 1.7 2.8 2.8 4.8 2.6l3-.2c.2 0 .4 0 .6-.1l3.4-.6c.9-.2 1.7-.5 2.3-1.1l1.2-1h.4l3 2.1c1.3.9 2.9 1.2 4.4.7.6-.2 1.2-.5 1.6-.9l.4.2c.3.1.6.2.8.3l3 .6c.5.1 1.1.1 1.6.1h.4l1.2 4c.5 1.6 1.8 2.9 3.4 3.4.1 1.1.5 2.1 1.2 3-.6 1.5-.5 3.2.3 4.6l2.1 3.4c.8 1.3 2.1 2.1 3.6 2.3l3 .4 2.9.8 2.3 2.2 1.2 1.2.2.7v1.4c0 .5.1 1 .2 1.4-.8 1.8-.4 4 .9 5.4l1.8 1.9c.9.9 2 1.5 3.3 1.6l1.2.8c1 .7 2.3 1 3.5.8l1.5-.2c1.1-.2 2.1-.7 2.9-1.5l1.6-1.7c.4.2.8.3 1.3.3l2.3.3v.4l-1 2.2c-.8 1.9-.4 4.1 1 5.5l1 1 .5 1.3c.4 1 1.1 1.9 2 2.5l1.2.7c1.2.8 2.7 1 4.1.6l.8-.2 1.6.9c.8.4 1.6.7 2.5.7h.1c1 .8 2.2 1.2 3.4 1.2h.5c.7.5 1.4.8 2.3.9l.8.1.9.8c.9.8 2.1 1.2 3.2 1.2.9 0 1.9-.3 2.7-.8l2.7-1.7h.5c.2 0 .5 0 .7-.1l.7.7c1.1 1.2 2.8 1.7 4.4 1.4 1.6-.3 3-1.3 3.7-2.8l1.1-2.3.7-.4c1.4-.8 2.3-2.2 2.4-3.7l.3-2.7 1-1c.9-.9 1.4-2 1.4-3.2v-.2l.7-.8c.7-.8 1-1.7 1.1-2.7.1 0 .2-.1.3-.1l2-1.1c.4-.2.7-.5 1-.8l.8-.8c1.3-1.3 1.8-3.2 1.3-5l.4-1.4c.3-1.3.1-2.7-.5-3.8l-1.5-2.6-.6-.9c-.1-.3-.3-.6-.5-.8-.1-.2-.3-.5-.4-.7l-.7-1.5c-.4-.9-1.1-1.6-2-2.1l-.4-.3c-.1-.5-.3-1-.6-1.5.5-.7.8-1.6.9-2.5.5-.8.7-1.6.8-2.5l1.2-1.1c.5-.5.9-1.1 1.2-1.8 1-.6 1.7-1.6 2-2.8l.3-1.2c.2-.5.2-1.1.2-1.6.9-.9 1.5-2 1.6-3.2.1-.2.2-.4.3-.7.5-1.3.4-2.8-.3-4.1l-1.8-3.4-.1-1.8 1.6-1.9c1-1.1 1.3-2.7 1.1-4.1l-.3-1.5.4-.8c.6-.5 1-1.1 1.3-1.8l1.3-2.9c.2-.4.3-.7.3-1.1.5.2 1 .2 1.5.2h.2l.8.7c.5 1.1 1.3 2 2.4 2.5l.7.3c1.7.8 3.6.6 5.1-.5l1.1-.9c1.2-.9 1.9-2.2 2-3.7.3-.3.5-.6.8-1l1.6-2.7 3.8-3.8 2.4-1.4c1.1-.6 2-1.7 2.3-2.9l.3-1c.3-1 .3-2.1-.1-3.1l3.6-2.9c1.3-1 2-2.6 1.9-4.2l-.5-7.8c-.1-1-.4-1.9-1-2.7l-.8-1c-.9-1.2-2.4-2-4-2h-1.2c-.3 0-.7 0-1 .1-.3-.8-.8-1.4-1.5-1.9l-1.9-1.5c-.6-.5-1.3-.8-2-.9l-1.4-1.2c.8-.7 1.3-1.6 1.5-2.6 0-.2.1-.5.1-.7.7-.5 1.2-1.3 1.5-2.1l.7-1.9c.3-.7.4-1.4.3-2.1.9-.6 1.6-1.5 1.9-2.5l1-2.9c.3-1 .3-2.1 0-3.2l-.6-1.8c-.3-.8-.7-1.5-1.3-2.1l.4-.4c.3-.3.5-.6.7-.9l1 .2c1.3.3 2.7 0 3.8-.7l1.8-1.2c1.8-1.2 2.6-3.4 2.1-5.4l1.5-1.4c1.1-1 1.7-2.5 1.6-4 0-.4-.1-.8-.2-1.1l3.8-2.9c1.1-.8 1.8-2 1.9-3.4v-.1l4.2-3.8c.4-.4.8-.8 1-1.3l.4-.7c1.7-.2 3.2-1.2 4-2.7l1.5-.8c.2-.1.4-.2.6-.4l.1.1c.1.1.3.2.5.3l1.6.9c.1.6.4 1.2.7 1.7l4.1 6.1c.6.8 1.3 1.5 2.3 1.8l1.5.6c.3.3.6.6 1 .9l2.2 1.4c.6.4 1.2.6 1.9.7l.4.1v.6c-.9 1.7-.7 3.7.5 5.3l1.3 1.7c.7.9 1.7 1.6 2.8 1.8.3.2.7.4 1.1.6l2 .8c1.4.6 2.9.5 4.2-.2.6-.3 1.1-.8 1.6-1.3l2.1-.8c.9-.4 1.7-1 2.3-1.8.2 0 .4-.1.5-.2l1.3-.5c1-.4 1.8-1 2.4-1.9.5-.2.9-.5 1.3-.9l2.6-2.6c1-.9 1.5-2.2 1.5-3.5.4-.2.8-.4 1.1-.6 1.2-.9 1.9-2.2 2-3.7l.7-.5 1.7.2c1.3.2 2.6-.2 3.7-.9.3.1.7.3 1.1.3l1.3.2c1.7.3 3.5-.3 4.6-1.6l2.2-2.4c.4-.4.7-1 .9-1.5l1.4-3.4c.5-1.2.5-2.5 0-3.6l1.1-.9h.1c1.2-.2 2.2-.8 3-1.7l3.4-4c.2-.3.4-.5.6-.8l.4-.8c.7-.5 1.4-1 1.8-1.3.2 0 .5-.1.8-.1 1.7-.2 3.1-1.3 3.9-2.8l3.7-7.8c.4-.7.5-1.6.5-2.4v-.6l1.2-.8c.8-.2 1.6-.6 2.2-1.1l1.8-1.6c.8-.7 1.3-1.6 1.6-2.6l.9.1c1.9.2 3.6-.7 4.6-2.3.9-1.4 1.1-3.2.4-4.7l2.2-2.1c.9-.8 1.5-2 1.6-3.2.5-.1 1-.4 1.5-.7l.6 1.2v.4c-.2 1.9.8 3.8 2.5 4.8l.3.1c.5 1.1 1.3 2 2.4 2.5.5 1.5 1.7 2.7 3.4 3.2l.4.7c.5.9 1.3 1.6 2.2 2.1l5.1 2.4c1.4.6 2.9.6 4.3 0l3.8-1.8c1.7-.8 2.8-2.6 2.8-4.5v-.7c.7-.8 1-1.9 1-3l.1-4.2c0-.7-.1-1.4-.4-2.1.1-.3.1-.5.1-.8 0-1 .1-2.2.1-3l.6-.6c1.3-1.3 1.8-3.2 1.2-5l-1.2-3.8.2-.1 1-.2c1.9-.3 3.4-1.7 3.9-3.5l.5-1.7c.4-1.4.1-3-.7-4.2l.5-3.6c.8-.1 1.6-.3 2.3-.8 1.2-.8 2-2 2.2-3.4l.4-2.2 2.3-3.2c1.3-1.9 1.2-4.4-.2-6.1l-3.9-4.6c-.1-1.5-.9-2.9-2.1-3.7l-.2-.7c-.1-.6-.4-1.2-.8-1.7l-1.1-1.6c-.7-1.1-1.9-1.8-3.1-2v-.6c.1-1.3-.4-2.6-1.3-3.6l-2.6-2.8c-.7-.7-1.5-1.2-2.4-1.5l-.7-1.3c-.7-1.3-1.9-2.2-3.2-2.5-.3-.3-.6-.5-1-.8l-1-.6c-.6-.4-1.2-.6-1.9-.7-.6-.8-1.5-1.5-2.6-1.8l-.6-.2c-1.2-.3-2.4-.2-3.5.3l-1.1.5-.9-.1-.4-.5c-.6-.6-1.4-1.1-2.2-1.4l-.5-.1-1.6-2.5c-.8-1.2-2.1-2-3.5-2.2l-.1-.1c-.4-.3-.8-.5-1.2-.6l-2.8-1c-.5-.2-1-.3-1.5-.3-.4-.2-.9-.4-1.3-.5l-.2-.1c.2-.2.4-.5.5-.7.3-.4 1.2-1.3 2-2.1l1.2-.6 3.2.5c.9.1 1.7 0 2.6-.3h.1c.5.1 1 .1 1.4.1l1.6-.2c2.2-.2 3.9-1.8 4.4-3.9.4-1.8-.3-3.7-1.7-4.9v-1c.4-.6.6-1.2.8-1.9l.2-1c1.6-.5 2.9-1.8 3.3-3.4l.4-1.4c.3-.9.2-1.9 0-2.8l-.1-.3.2-.2c.8-.8 1.3-1.8 1.5-2.8 1-.9 1.6-2.3 1.6-3.6v-3.8c0-.9-.3-1.9-.8-2.7-.1-.2-.2-.4-.4-.6 0-.6-.1-1.6-.2-2.4 0-.4-.1-.8-.2-1.2l1-.8c1.7.1 3.3-.6 4.4-1.9l.6-.8.8-.4c1.9-.8 3-2.7 2.9-4.7.7-1.1 1-2.4.8-3.7l-.3-1.8c-.4-2.3-2.3-4-4.7-4.1h-.6l-1.7-.9c-.7-1.1-1.7-1.9-3-2.3-.3-.1-.9-.4-1.4-.6-1.2-.6-2.5-.7-3.8-.3 0-.1-.1-.2-.1-.2.1-.3.3-.7.3-1l.3-1.6.6-1.2c.8-1.5.8-3.2 0-4.7l-1.2-2.2c-.6-1-1.5-1.9-2.6-2.3l-.8-.3c.5-1.1.6-2.4.3-3.5-.4-1.3-1.3-2.4-2.5-3l-.3-.2.4-.5c.6-.8.9-1.8.9-2.8V172c1.2-1.1 1.8-2.7 1.6-4.4l-.1-1 .3-.5c1-1.7 1-3.7 0-5.3.7-.4 1.3-1 1.7-1.8l.5-.9c.2 0 .5-.1.7-.1l2.2-.6c.4-.1.8-.3 1.2-.5l.9-.5c.9-.1 1.7-.3 2.4-.8l2.3-1.5c.6-.4 1.1-.9 1.5-1.4l1.7-2.6 1-.5c1.6-.9 2.6-2.7 2.6-4.6v-1.1c1-.3 1.8-.9 2.5-1.8l1.3-1.7 1.9-1.1c1.1-.6 2-1.7 2.3-2.9l1.2-4.1c.3-.8.3-1.7.1-2.6l-.5-2.4.5.5c1.4 1.2 3.3 1.6 5 1l1.4-.5.4-.1c.8-.1 1.6-.4 2.2-.8l2-1.4c.6-.4 1.1-.9 1.5-1.6l2.9-4.9c.4-.6.6-1.2.7-1.9l.1.1c1.4.8 3 .8 4.5.2l2.3-1c1.7-.8 2.9-2.5 2.9-4.3.8-1.2 1-2.7.6-4l1.2-.3 3.3-1.4c1.2-.5 2.2-1.5 2.7-2.8l1.1-2.7.3-.2c1.6-1 2.6-2.9 2.3-4.8l-1-8.4v-2.5l1.3-2.5c.4-.7.6-1.5.6-2.3l.1-7.4c0-.9-.2-1.8-.7-2.6l-.4-.7.3-2.2 1.4-1.8c.9-1.2 1.2-2.7.9-4.1l-.6-2.9 1.1-1.9c.2-.4.4-.8.5-1.3l.9-3.8c0-.2.1-.4.1-.6.5-.4 1-.9 1.4-1.4l.9-1.4c.6-.9.8-1.9.8-2.9 1.8-.3 3.4-1.5 4-3.4l.2-.5.4-.3c1.6 0 3-.8 3.9-2l2.1-2.8c.5-.7.9-1.6 1-2.5l.1-.7.7-.6c1-1 1.6-2.4 1.5-3.8l-.2-4.4 1.4-2.4c.4-.6.6-1.3.7-2l.2-2 1.7-4.5.2-.1c.5-.4 1-1 1.3-1.6l3.9-7.2c.2-.4.4-.9.5-1.4l.9-4.3 1.7-4.4 1.6-2.2c.6-.8.9-1.7 1-2.7l.1-2.3 1.9-1.8c.9-.9 1.5-2 1.6-3.3l.2-2.4 1.6-1.2c1.5-1.2 2.1-3.6 1.3-5.6zm-15.2 8.6c-.9.9-1.5 2.1-1.6 3.3l-.2 2.8-1.2 1.6c-.3.4-.5.8-.7 1.2l-2.1 5.5c-.1.2-.2.5-.2.8l-.8 4-3 5.7-.3.2c-.7.6-1.2 1.3-1.6 2.1l-2.4 6.3c-.2.4-.3.8-.3 1.2l-.2 1.5-1.6 2.7c-.5.8-.7 1.8-.7 2.8l.1 3.6-.4.4c-.9.8-1.4 1.9-1.5 3.1l-.1 1c-.5.1-1 .4-1.5.7l-3.1 2.1-.2.2-2.6.3c-1.4.2-2.6.9-3.4 2-1.6.9-2.7 2.5-2.7 4.4v1.8c0 .5.1 1 .2 1.5-.4.4-.8.9-1 1.5l-1 2.2c-.6 1.4-.6 2.9 0 4.2l-.1.3-1.7 3c-.6 1.1-.8 2.3-.5 3.5l.5 2.5-.8 1c-.5.7-.9 1.5-1 2.4l-.6 5.2c-.1 1.1.1 2.2.7 3.2l.6 1-.1 4.8-1.3 2.5c-.4.7-.6 1.5-.6 2.4V89l.5 4.2c-.4.5-.8 1-1 1.6l-.9 2.3-.3.1-1.5-.1c-1.4-.1-2.8.4-3.8 1.4-1.4.1-2.8.7-3.7 1.8L584 102c-.8.9-1.1 2.1-1.1 3.3l-1 .3h-.6c-1.1 0-2.2.4-3.1 1.1l-1.1.9c-1.2.9-1.9 2.4-1.9 3.9V114.8l-.4.7c-.1-.1-.2-.1-.3-.2-.9-1.1-2.2-1.9-3.7-2l-1.8-.1c-2-.1-3.8.9-4.7 2.6l-.4.7-2.7 1.9c-.9.7-1.6 1.6-1.9 2.7l-.7 2.4c-.2.8-.3 1.7-.1 2.5l.7 3.2-.3.9-1.1.6c-.6.3-1.2.8-1.6 1.4l-.7.9-1.7.3c-1.5.2-2.9 1.2-3.6 2.6l-.7 1.2c-.7 1.3-.8 2.9-.2 4.3-.2.2-.4.5-.6.7l-1.8 2.7c-.8.1-1.5.3-2.1.7l-1.7 1-1.2.4-1.3.2c-.4.1-.9.2-1.3.3l-1 .4c-1 .4-1.9 1.2-2.4 2.1l-.6 1-.5.2c-1.4.4-2.6 1.4-3.2 2.7l-1.2 2.6c-.4.8-.5 1.7-.4 2.6l.2 1.5c.1.8.4 1.6.8 2.2-.2.7-.2 1.4-.1 2.1v.1l-.5.5c-1.1 1-1.8 2.3-1.8 3.8 0 1.1.3 2.1.9 2.9l-1.4 2.1c-.3.5-.6 1-.7 1.6-1.3.7-2.2 1.8-2.6 3.2-.4 1.5 0 3.2 1 4.4l.7.9c1 1.2 2.4 1.8 3.9 1.8.1.5.2 1.1.4 1.9.4 1.6 1.5 2.9 3 3.5h.1c-.1.2-.3.3-.4.5l-.8 1.3c-.9 1.4-1 3.3-.3 4.8l1.5 3.2c.5 1.1 1.4 1.9 2.5 2.4.4.7 1 1.3 1.7 1.7l3.1 1.9c1.2.8 2.7.9 4.1.5.2.2.5.3.8.5l.9.5c-.3.2-.7.4-1 .6l-2.2 1.8-1 .2c-1.9.3-3.4 1.7-3.9 3.5l-.5 1.7c-.3 1.1-.2 2.3.2 3.4l1 2.3c.1 1.1.2 2.3.2 2.8.1.4.2 1.2.9 2.6-.8.9-1.3 2-1.4 3.2l-.8.8c-1 .9-1.5 2.2-1.5 3.6v.9c0 .4.1.8.2 1.2l-.9.7c-1 .8-1.6 1.8-1.8 3l-.4 1.9-.2.3c-.6.9-1 1.9-1 3v1c-1.3-.5-2.7-.4-4 .2l-4 2c-.5.2-.9.5-1.2.9l-2.4 2.4c-.8.2-1.5.6-2.1 1.2l-1.1 1c-1.3 1.2-1.9 3-1.5 4.7l-1.2 3.1c-.5 1.3-.4 2.7.1 3.9l.4.9c.9 2.1 3.2 3.2 5.4 2.9l1.8-.3.4.1c1 1.2 2.6 1.9 4.2 1.8l1.1-.1h.4l.8.5c.3.2.7.4 1.1.6l1.5 2.3c.7 1 1.7 1.7 2.8 2.1l.9.3.8.9c.8.9 2 1.4 3.2 1.5l3.9.3c.3.2.7.4 1 .5l2 .8c.3.1.6.2.8.3.7 1.2 1.9 2.2 3.3 2.5l.5.1.2.5c.5 1 1.3 1.7 2.3 2.2v.7l.2 1.4c.2 1.5 1 2.9 2.3 3.7l3.2 2c.1.1.2.1.4.2 0 1.4.5 2.8 1.7 3.8l.8.7c.3.3.7.5 1 .7.1.1.1.2.2.3l2.5 3-.5.7h-1.3c-1 0-2 .3-2.9.9l-1.6 1.1c-1 .7-1.8 1.8-2 3.1-.4.4-.7.9-.8 1.5-.5 1.4-.4 2.9.4 4.2l1.1 1.9c.1.2.3.4.4.6-.7.9-1.1 1.9-1.2 3-.9.3-1.6.8-2.2 1.6l-1.8 2.2c-1.3 1.6-1.5 3.8-.5 5.6l1.1 2 .4 1.2c-.8 1.1-1.1 1.9-1.2 2.7 0 .2-.1.6-.2 3.2a4.96 4.96 0 0 0-.3 5.9l.5.8v.7c-.4.5-.7 1.1-.9 1.7l-.6-.3-.7-1.3c-.5-.9-1.2-1.6-2.1-2l-.1-.1-1.4-1.7c-.4-.5-.9-.8-1.4-1.1-.3-.4-.6-.7-1-1-.1-.4-.2-.8-.4-1.1l-1.8-3.8c-.4-.9-1-1.6-1.8-2.1l-3.6-2.3c-1.3-.8-2.9-1-4.4-.5l-2.5.9c-.3.1-.5.2-.8.4-1.1.1-2.1.5-2.9 1.2l-2.1 1.8c-1.1.9-1.7 2.2-1.8 3.7v.5l-1.5 1.4c-.4.4-.8.8-1 1.3l-1.5 2.9c-3.5 2.2-4.1 2.9-4.6 3.8-.1.2-.4.6-.6 1.3-.4.1-.8.3-1.1.6l-4.3 3c-1.4 1-2.2 2.6-2.1 4.3l.1 2.1-2.1 4.3c-.4.1-.7.3-1 .4-.4.2-.7.4-4.4 3.1-.6.4-1.1 1-1.4 1.6l-.7 1.3-1.9 2.3c-.7.2-1.3.5-1.8.9l-1.8 1.5c-1.5 0-3 .7-4 1.9l-2.4 3c-1 1.2-1.3 2.7-1 4.1l-2 .9-.6.3c-1.2-.3-2.5-.1-3.7.5l-5.1 2.9c-1.3.7-2.2 2-2.5 3.5l-1.7 1.4c-1.3 1-2 2.7-1.9 4.3v.3c-1.1.3-2.1 1-2.8 2-.1 0-.2.1-.3.1l-2 .9c-.8.4-1.5.9-2 1.6v-1.1c0-1.2-.3-2.4-1.1-3.3L457 396c-.8-1-1.9-1.6-3.1-1.8l-1.4-.2c-.5-.8-1.3-1.5-2.3-1.9l-1.9-.8-2.6-3.9-.2-1c-.2-1.5-1.2-2.9-2.5-3.6l-3.5-1.9-1-.7c-.5-1-1.3-1.8-2.3-2.3-1.4-.7-3.1-.7-4.5.1l-3.1 1.7c-.9.5-1.7 1.3-2.1 2.2l-1.3.7c-.5.3-1 .6-1.4 1-.2.1-.4.2-.5.3l-1.8 1.1c-.7.4-1.3 1.1-1.7 1.8l-.8 1.4-5 4.5c-.9.8-1.4 1.9-1.6 3l-1.2.9h-.3c-1 .1-1.9.6-2.6 1.2l-1.5 1.4c-.8.7-1.3 1.6-1.5 2.6l-.6 2.5c-.2.9-.2 1.8.1 2.6l-1 1.7c-.8-.1-1.7 0-2.4.3l-2.8 1c-1.5.5-2.5 1.7-3 3.1l-.7.3c-1.9.8-3.2 2.6-3.2 4.7v2.8c0 1.1.4 2.2 1 3l1.8 2.3c-.8.7-1.3 1.6-1.5 2.7l-.5 2.4v.2c-.7.7-1.3 1.6-1.5 2.6-.4.4-.7.9-1 1.4-.7.3-1.3.8-1.8 1.4l-1 1.2c-1 1.3-1.4 3.1-.9 4.6l.7 2.1c.2.6.5 1.1.9 1.6l1.8 2.2c.7.9 1.7 1.5 2.8 1.7l2.1 1.8c.4.3.8.6 1.2.8.2.8.6 1.5 1.2 2.2l2.1 2.3c.6.7 1.4 1.1 2.2 1.4l1.4.4c.3.1.6.2.9.2l-4.5 3.6c-1 .8-1.6 1.9-1.8 3.2l-.2 1.7c0 .4-.1.7 0 1.1l-.3.3-4.7 4.8c-.3.3-.6.6-.8 1l-1.2 2c-.8-.6-1.7-1-2.7-1.1-.8-.9-1.8-1.6-3-1.8-.9-.7-2-1.2-3.2-1.2h-.8c-1.6 0-3.1.8-4.1 2.1l-.5.7c-.3.4-.5.7-.6 1.2-.8.7-1.4 1.6-1.7 2.6-1 1.1-1.4 2.5-1.2 4l.2 1.3v.2l-.3.6-1.9 3.8c-.5 1-.6 2.1-.4 3.1l.2.8-1.4 1.7c-.8 1-1.2 2.3-1.1 3.5l.3 4.8c0 .7.2 1.4.6 2l.7 1.3c-1.8 1.1-2.7 3.2-2.3 5.3v.2c-.2.3-.3.7-.4 1l-.2.8-1.7 1.6c-1 .9-1.6 2.3-1.6 3.6v.1c-.3.5-.5.9-.6 1.5-.7.7-1.2 1.5-1.4 2.5l-.4 1.9c-.3 1.3-.1 2.6.6 3.7l.3.5a5 5 0 0 0 2 4.6l2.4 1.8c.1.1.1.1.2.1l.1.2c0 .1.1.1.1.2s.1.2.2.3c0 .7.2 1.4.5 2-1 .4-1.9 1.2-2.4 2.1l-2.4 4.2c-.7 1.3-.8 2.8-.4 4.1-.3.6-.4 1.2-.5 1.8l-.9.9c-.8.8-1.3 1.8-1.4 2.9l-.2 2h-.1c-.9-.6-1.9-.9-3-.8-1.3.1-2.5.6-3.4 1.6-.8.1-1.6.3-2.3.8l-.9.6c-.5-.3-1-.4-1.6-.5l-.9-.1-.3-.3c-.9-.7-2.1-1.1-3.3-1h-.4c-.9-.7-2-1.1-3.1-1.1h-.6l-2.3-1.3c-1-.6-2.1-.8-3.2-.6 0 0 0-.1-.1-.1.2-.4.3-.8.3-1.2l.1-1 1-1.2c1.1-1.2 1.5-2.9 1-4.5l-.5-2c-.6-2.5-3-4-5.5-3.7-1.3-.8-2.9-1-4.3-.5l-.7.2c-1.1-.9-2.6-1.2-4-.9-1.9-.7-4-.2-5.4 1.3l-1.2 1.2c-.1-.6-.4-1.3-.7-1.8v-.7c0-.5-.1-1.1-.3-1.6l-.8-2.5c-.2-.7-.6-1.4-1.2-1.9l-2.1-2.1-3.3-3.2c-.6-.6-1.3-1-2.1-1.2L299 525c.6-1 .8-2.3.5-3.5-.3-1.4-1.2-2.6-2.4-3.3l-.2-.1c-.1-1.6-.9-3-2.2-3.9l-2.5-1.7c-.1-.1-.3-.2-.5-.3l-.7-2.3c-.1-.4-.3-.7-.4-1l-1.7-3a5.1 5.1 0 0 0-4.9-2.5l-3 .3-1.7-.4-4.2-1.7c-1.3-.5-2.7-.5-4 .1h-.1c-.8-.5-1.7-.9-2.6-.9l-3.8-.2c-1.3-.1-2.5.4-3.5 1.2l-1.7 1.5-1.3.2c-.7-1.2-1.8-2-3.2-2.3l-.2-.3-.4-2.7c-.1-.5-.2-.9-.4-1.3.3-.7.5-1.4.5-2.1l1.4-1.5c.4-.4.6-.8.9-1.3l1.1-2.5 2-2.2c.8-.8 1.2-1.9 1.3-3v-.1l.5-.4c1.1-.8 1.9-1.9 2.1-3.3.2-1.3-.1-2.7-.9-3.8l-2.3-3.2 3.9-1.5c.8-.3 1.5-.8 2-1.5l2.1-2.5c.6-.7.9-1.5 1.1-2.4l.4-2.7c.1-.4.1-.7.1-1.1l-.3-5.1c0-.7-.2-1.3-.5-2l-1.8-3.6-.1-3.6.5-1.1 1.6-1.7c1.5-1.6 1.7-4.1.6-6l-.8-1.4c-.9-1.5-2.5-2.4-4.3-2.4h-1c-.3-.4-.7-.7-1.2-.9l.1-.3c.7-1.3.8-2.8.2-4.1-.5-1.3-1.6-2.4-3-2.9l-.7-.3-.1-1.8.7-.7c1.3-1.3 1.8-3.1 1.3-4.9-.4-1.5-1.6-2.8-3-3.3v-.1c.3-1.1.2-2.3-.2-3.3l-1-2.3.2-1c.4-1.8-.3-3.7-1.7-4.8l-4.4-3.7c-.3-.3-.7-.5-1.1-.7l-4.4-2c-1-.5-2.1-.6-3.2-.3l-.8.2-.5-.5c.1-.4.2-.9.2-1.4l-.2-8.1c0-.6-.2-1.3-.4-1.9l1-3.3c.2-.7.3-1.4.2-2.1l-.3-2.7c-.2-1.7-1.3-3.2-2.8-3.9l-2.6-1.3c-.7-.3-1.4-.5-2.2-.5h-1.6l-.8-.7c-.5-.5-1.1-.8-1.7-1.1l-3.5-1.3c-.4-.2-.9-.3-1.4-.3-.5-.6-1.1-1.1-1.8-1.4l-1.9-.9c0-.1 0-.2-.1-.3l-.9-3.9c-.4-1.7-1.7-3.1-3.4-3.6s-3.6-.1-4.9 1.2l-.3.3-.9-.6c-.1-.6-.3-1.2-.7-1.7l-1.4-2.2c-1.2-2-3.7-2.9-5.9-2.1l-.1-.2c-.5-1.3-1.6-2.2-2.8-2.7-1.3-.5-2.7-.4-3.9.2l-1.4.7-.9-.7-.5-.9v-1.5l.3-3.6c.6-.8 1-1.8 1.1-2.8l.1-1.8c.1-1.5-.5-2.9-1.5-3.9l-1.9-1.9c-.3-2.5-2.4-4.4-5-4.4h-2.7c-1.8 0-3.4.9-4.3 2.4l-1.4 2.4c-1.2 0-2.3.5-3.2 1.2l-.6.5h-1c-1.7 0-3.3.9-4.2 2.3l-.1.2c-1.1-.1-2.2.1-3.2.7l-4.4 2.6c-.6-.1-1.1 0-1.7.1-.9-1-2.3-1.7-3.8-1.7h-1.4c-2.4 0-4.5 1.8-4.9 4.2l-.3 1.9c-.1.8-.1 1.7.2 2.5l1.4 4c.2.5.4.9.7 1.3-.1.6-.1 1.3.1 1.9l1.1 4.7c-.5 0-.9 0-1.4.1l-1.1.2c-.8-.5-1.7-.8-2.6-.8-1.6 0-3.1.8-4.1 2.1-1 .1-2 .6-2.8 1.4-.9.1-1.8.4-2.5.9l-1.9 1.4c-1.4 1-2.2 2.7-2 4.4l.2 2.2c0 .3.1.5.1.8-.2.3-.3.6-.4 1-.3 1-.3 2.1.1 3.1l-.4 1.5-1.6 1.9c-.7 0-1.4.1-2 .3-.2-.3-.5-.5-.7-.7l-2.1-1.7c-.9-.7-2-1.1-3.2-1.1h-1l-.8-.6c-.1-.5-.4-1-.7-1.5l-1.9-3c-.4-.7-1-1.2-1.7-1.6v-2.5c0-.6-.1-1.1-.3-1.7.3-.9.4-1.8.2-2.7l-.3-1.4c-.3-1.5-1.3-2.7-2.7-3.4-.5-1.5-1.6-2.7-3.1-3.2-.6-.6-1.3-1.1-2.2-1.3l-1.6-.5c-2.4-.7-4.9.4-5.9 2.7l-1.2 2.6c-1-.3-2.1-.2-3.1.2l-1-.7-2-1.9c-1.1-1-2.5-1.5-4-1.4l-1.7-1.3v-.8c0-2.8-2.2-5-5-5h-1.1c-1 0-2 .3-2.9.9l-2.6 1.8.3-2c.1-.5.1-1 0-1.5l-.8-5.6c-.1-.9-.5-1.7-1.1-2.4l-3-3.7c-.2-.3-.5-.6-.8-.8l-3.8-3c-.9-.7-2-1-3.1-1h-1.2l.4-2c.2-.9.1-1.8-.3-2.7l-1.3-3.4c.5-.6.8-1.3.9-2.1l.3-1.7c0-.3.1-.5.1-.8l1.3-.8c1-.6 1.7-1.4 2.1-2.5l1.4-3.6c.3-.7.4-1.5.3-2.3l-.5-5.8c-.2-1.8-1.3-3.4-2.9-4.1l-1.6-.7 1.6-2.7c1.2-2 .8-4.5-.8-6.1.3-1.5-.2-3.1-1.2-4.3l-1.4-1.5.6-1.5c.9-2.3 0-5-2.3-6.2l-.9-.5c.1-1.8-.8-3.4-2.3-4.4l-2.2-1.5c-.2-1.5-1-2.8-2.3-3.7-1.4-.9-3.2-1-4.8-.3l-2.7 1.2c-.9.4-1.7 1.1-2.2 1.9l-1.8 2.9-1.7.4c-1.1.3-2 .9-2.7 1.8l-2.2 2.8h-.8c-1.5 0-3 .7-3.9 1.9l-1.1 1.4-.4.1c-1.2.3-2.2 1-2.9 1.9l-.9.5c-.8-.7-1.8-1.1-2.9-1.1-.9-1-2.2-1.6-3.6-1.6h-4.9c-.3 0-.7 0-1 .1l-.9-.3-1.7-.4c-.6-1.1-1.7-1.9-2.9-2.3-.9-.3-1.9-.3-2.8 0-.3-.1-.6-.1-.9-.2l-1.6-.2c-1.1-.1-2.2.1-3.1.7l-3.3 2c-.2.1-.4.3-.6.4l-1.9.9c-.8.4-1.6 1-2.1 1.7-1.1 0-2.2.4-3.1 1.1l-.5.4-1 .1c-1 .1-1.9.6-2.7 1.2-.3-.1-.6-.2-.9-.2-.9-1.1-2.3-1.8-3.8-1.8h-1c-1.4 0-2.6.6-3.6 1.5l-.3.1.5-.7c.3-.4.5-.9.6-1.4.6-.8.9-1.8.9-2.8v-.3l.4-.9c.3-.7.5-1.4.5-2.2l-.1-3.9c.4-.8.6-1.8.5-2.7l-.1-.9 1.9-5.8c.1-.4.2-.7.2-1.1l.1-.9.5-1c.1 0 .2-.1.2-.1.4-.1.8-.1 1.1-.3l1.6.1c.7.1 1.4-.1 2.1-.3l1.6-.6c1.2-.4 2.1-1.3 2.7-2.3l.9-.7c.9-.7 1.5-1.7 1.8-2.8l.3-1.1c.3-1.3.1-2.6-.6-3.7-.1-1.1-.5-2.1-1.2-2.9l-1.3-1.5c-.1-.5-.3-.9-.6-1.3l-1.2-2c-.5-.8-1.3-1.5-2.2-1.9l.3-.3c.4-.4.7-.8.9-1.3h1.7c.4.3.8.5 1.3.6l.5.2c1.7.6 3.5.2 4.9-1l1.3-1.2c1-.9 1.6-2.1 1.7-3.3.3-.5.4-1.1.5-1.7l.3-3.3c.1-.8 0-1.7-.4-2.4l-1.3-3.1c-.2-.6-.6-1.1-1-1.5l-.7-.7-.3-1.2-.1-1.5v-.5l.7-1.5c.9-.9 1.5-2 1.5-3.3l.1-1.7c.1-1.7-.6-3.3-2-4.3l-2.2-1.6c-.9-.7-2-1-3.1-1h-1.9l-1.4-1c-.2-.1-.4-.2-.5-.3l-.3-.2-.4-3.4 3.1-7 3.1-2.8c.9-.8 1.5-2 1.6-3.2l.3-2.7c.7-1 1-2.2.8-3.5l-.2-1.2 1.9-3.2 1.6-1.7c.6-.6 1.1-1.4 1.3-2.3l.4-1.7 1.1-1.3.2-.2c.1.7.3 1.4.7 2.1l.1.2v.4c0 1.2.4 2.4 1.3 3.3l1.1 1.2.2.4c.3.9.9 1.6 1.6 2.2l.2.1c.2.5.6 1 1 1.4l.9.9c.9.9 2.2 1.5 3.5 1.5h.2c0 .5 0 1 .2 1.5v.1l-.6 1.3c-.6 1.5-.5 3.1.2 4.5l.1.5c0 .4.1.8.3 1.1l.4 1.2c.4 1.1 1.2 2.1 2.3 2.7l.5.3c.3.4.6.8 1 1.1l.5.4c-.1 1 .1 2 .6 3v.2c0 .3.1.6.1.9L18 204c.2.8.6 1.6 1.2 2.2l.6.7c.2.5.5.9.9 1.3.2.9.6 1.6 1.2 2.3l.6.7c.4 1.5 1.5 2.7 3 3.2l1.9.8.9 1c.6.6 1.3 1.1 2 1.3l.9.3c.3.1.7.2 1 .2l2.2.3c.2.5.5 1.1.9 1.5l1.6 1.8c.9 1.1 2.3 1.7 3.8 1.7h.7c1 0 1.9-.3 2.6-.7.4.3.9.5 1.4.7l2 .6c1 .3 2 .3 3 0l.4-.1h.3c1.1 0 2.2-.4 3-1l3.2-2.5c.6-.5 1.1-1.1 1.5-1.8.1-.1.2-.2.4-.3l1.2-1.3c.4-.2.8-.4 1.2-.7l2-1.7.8-.2 1.4.4c.2.2.5.3.7.5l-.5 1.4c-.1.3-.2.6-.2.8l-.1.2c-.5.6-.8 1.3-1 2.1l-.5 2.3c-.3 1.2-.1 2.4.5 3.4.1.7.3 1.3.7 1.8l1.2 1.8-.1.2c-.7.8-1.1 1.8-1.2 2.9l-.2 2.1c-.1 1.1.2 2.2.8 3.1l.2.8c.1.5.3 1 .6 1.5l.1 1.2c.1.9.4 1.8.9 2.5l1 1.4c.5.7 1.1 1.2 1.8 1.5l.7.4c.4.5.8 1 1.4 1.3.1.2.1.3.2.5 0 .2 0 .4.1.6-.1.3-.1.6-.2.9l-.4 3.6v.1c-1.1.7-1.9 1.8-2.1 3.1l-.6 2.8-.3.9c-.2.5-.3 1.1-.3 1.7l-.1 2.2c0 1.1.3 2.2.9 3.1l1.7 2.3c.8 1.1 1.9 1.8 3.2 2l1.1.2.2.2c.9.9 2.2 1.5 3.5 1.5h1.3c1.7 0 3.2-.8 4.2-2.2l.3-.5 1.8-.4c1-.2 2-.7 2.7-1.5l1.4-1.5c.9-1 1.4-2.3 1.3-3.6l-.1-2.8 1.3-1.5.1-.1 2.7 2.8c.7.8 1.7 1.3 2.7 1.5l3.6.6c.3.1.6.1.9.1h1.6l.3 4.6c0 .5.1 1 .3 1.5l1.4 3.6c.5 1.2 1.4 2.2 2.6 2.7l6.1 2.7c1.3.6 2.8.6 4 0 .3-.1.5-.3.8-.4 1 1 2.4 1.5 3.9 1.4l1.9-.2.5 1.1 1.8 6.7.2 3.5c.1 1.3.6 2.5 1.5 3.3l2.8 2.7c.4.4.8.7 1.3.9l.1.4c.3.7.7 1.4 1.3 1.9l1.2 1.1c1.1 1 2.5 1.4 3.9 1.3 1.4-.2 2.7-.9 3.5-2.1l.4-.5 2.2-.9c.2-.1.4-.2.5-.3l.8-.4 2.5 1.3c.8.4 1.7.6 2.6.5l5.8-.3v.6c0 1.5.6 2.9 1.8 3.8l1.4 1.2c.7.6 1.4.9 2.3 1.1l2.3.4c1.8.3 3.7-.3 4.8-1.8l.8-1 4.8-2.8c.3.9.8 1.8 1.6 2.4l2 1.7c2 1.7 4.9 1.6 6.8-.3l1.2-1.2c1.4-1.4 1.9-3.6 1.1-5.5l2.9-4.3c.5-.7.8-1.5.8-2.4l.1-1.5c.3 0 .6.1.9.1l4.1-.1 2.2.8c1.5.5 3.1.4 4.3-.4l1.6 2 .9.9 1.7 1.3c.3.3.7.5 1.1.6l2.7 1.1.1.6c-.5 1.8 0 3.7 1.4 5l2.3 2.2c.9.8 2 1.3 3.2 1.4l1.4.1c1.2.1 2.4-.3 3.3-1.1l1.7-1.3c.9-.7 1.6-1.8 1.8-2.9l.4-1.9.7-.7c.8-.8 1.4-1.8 1.5-3l.5-4c0-.3.1-.5 0-.8l.1-.1c.4-.6.6-1.3.7-2l.3-2.6c.1-1.2-.2-2.4-.9-3.4 0-.1 0-.1.1-.2l.9-3.4c0-.2.1-.3.1-.5l.6-3.4 2.2-3.6c.2-.3.3-.6.5-1l.7-2c1.2-1.1 1.8-2.7 1.6-4.3l-.5-3.9c-.1-.7-.3-1.4-.7-2l-1.3-2.2c-.8-1.3-2.1-2.1-3.6-2.3l-1.4-.2-.3-.2v-.2c0-.3-.1-.7-.2-1l.5-.6c.7-.1 1.3-.4 1.8-.8l1.7-1.2c.5-.3.9-.8 1.3-1.3l1.3-1.8c.1-.2.2-.3.3-.5l2.1-4c.3-.5.5-1.1.6-1.7l.4-2.7c0-.3.1-.7 0-1 .3-.6.4-1.3.4-2v-.5c.5-.8.8-1.7.8-2.7.1-.1.2-.1.2-.2l1-.7 3.5-1.8c1.1-.6 2-1.5 2.4-2.7l.1-.3c.4-.2.8-.5 1.1-.9l1.5-1.7c.2-.2.4-.5.6-.8l.9-1.5 1.3-1.6c.3-.4.5-.8.7-1.2l.5-1.2c.2-.4.3-.8.3-1.3l.1-.8.1-.2c.4-.6.6-1.3.7-2.1v-.2l1.2-1.1c.5-.5 1-1.1 1.2-1.8l.3-.7 2.3 1.3c.8.5 1.7.7 2.5.7l2.3 2.3c.5.5 1.2.9 1.9 1.2l1.1.4 1.4 1c.6.4 1.3.7 2.1.8l2.9.4h.2l1.2 1.2c.2.7.5 1.3 1 1.8l1.5 1.8c.2.3.5.6.8.8l.7.6c0 1.3.6 2.6 1.6 3.5l.7.6.2.2c.2.9.6 1.7 1.2 2.3l.5.6-.2.2c-.6.8-.9 1.9-.9 2.9v2.2c-.6.7-.9 1.6-1 2.6l.2.8c-.7.6-1.2 1.4-1.5 2.3l-.4 1.4c-.2.5-.2 1.1-.2 1.6-.3.3-.6.7-.8 1.1l-.8 1.5c-.5 1-.6 2-.5 3l-.1.1c-.4.3-.7.6-1 1l-1.1-.2c-1.3-.2-2.6 0-3.6.7l-2.4 1.6-1.2.3c-1.3.3-2.4 1.1-3.1 2.2l-.9 1.4c-.8 1.3-.9 2.8-.5 4.1-.3.4-.6 1-.7 1.5l-.2.8c-.1.4-.2.8-.2 1.2-.8.9-1.2 2.1-1.1 3.4v.3l-1.1 1.6c-.8 1.1-1.1 2.5-.8 3.8l.5 2.7c.4 2.1 2 3.7 4.1 4.1l.6.1 2.2 2.7c.6.7 1.5 1.3 2.4 1.6 0 .3.1.6.2 1v.2c-.3 1.3-.1 2.7.7 3.9l1.1 1.6c1.4 2.1 4.1 2.8 6.3 1.7l.6.3 2.2.8.2.2c.8 1.2 2.2 2 3.6 2.1 1.5.1 2.9-.4 3.9-1.4l2.9-2.8c1-1 1.5-2.3 1.5-3.7v-.6l1.7-2.6.6-.4c1.1-.7 1.9-1.9 2.2-3.2l.8-3.9.4-.4c1-1 1.4-2.4 1.3-3.8 0-.4-.1-.8-.2-1.2l1.1-.2c.6.2 1.2.3 1.8.3h5.6c.5 0 .9-.1 1.4-.2l3.4-1c.9-.3 1.8-.8 2.4-1.5l2.1-2.4c.5-.6.9-1.4 1.1-2.2l.3-1.3c.2-.7.1-1.5 0-2.2.7-.6 1.1-1.4 1.4-2.4l.1-.5c.6-.6 1-1.4 1.3-2.2l.8-2.8.1-.1c1-.2 2-.7 2.8-1.4l3.4-3.5c.6-.6 1-1.3 1.2-2 .8-.6 1.5-1.4 1.9-2.4l.7-1.9c.2-.4.3-.8.3-1.3.2-.4.4-.8.5-1.2.4-1.5.1-3-.7-4.3l-.1-.1 1.7-1.2.1-.1.8.2c.4.5.9 1 1.4 1.3l2.1 1.3c.1 1.5.8 2.9 2.1 3.8l2.7 1.9c.8.6 1.8.9 2.8.9l9.3.1c1 0 1.9-.3 2.8-.8l.5-.3 2.5 1.8c1.9 1.4 4.4 1.3 6.2-.2l1.4-1.2c.9-.8 1.6-1.9 1.7-3.1.8.7 1.9 1 3 1.1l2.2.1c.2.1.4.3.7.4l1.5.7c1.4.6 3 .6 4.4-.2 1.1-.6 1.9-1.6 2.4-2.7.9-.7 1.5-1.8 1.8-2.9.7-.4 1.3-.9 1.7-1.6l1.8-2.7c.5-.8.8-1.7.8-2.6.8-.7 1.3-1.6 1.5-2.7l.2-.1c1.9-.3 3.4-1.6 4-3.4l.8-2.5c.2-.6.3-1.2.2-1.7l.6-1.5c.2-.6.4-1.2.4-1.8.1-.2.2-.5.3-.7.6-.5 1.1-1.2 1.4-2l.7-.5c.5-.4 1-.9 1.3-1.5l1.1-.6c1.2-.7 2.1-1.8 2.4-3.2.1-.4.1-.7.1-1.1 1-.2 1.9-.7 2.6-1.4l2.2-2.2c.1-.1.2-.2.2-.3l2.2.1c1.6.1 3.3-.6 4.3-2l1.1-1.4c.3-.4.5-.8.7-1.3l1.4.1c1.2.1 2.4-.3 3.3-1.1l.2-.2 1.3-.3c1.4-.3 2.5-1.2 3.2-2.4l1.2-2.3c.4-.8.7-1.7.6-2.7l.2-.2c1.2-1.2 1.7-2.8 1.4-4.4l.4-.5c.6-.8 1-1.7 1.1-2.7l.1-.7c.1-.1.2-.2.3-.2.3.1.5.2.8.3l1.8.5c2.4.7 5-.6 6-2.9l.6-1.5.3-.2c.6.1 1.3 0 1.9-.1l1.1-.3c1.5-.4 2.7-1.4 3.3-2.8l.7-1.6c.5-1.1.6-2.5.2-3.6l-1-3 .2-2.1c.6-.8 1-1.7 1.1-2.7v-.3c.8-.1 1.6-.3 2.4-.8 1.3-.8 2.1-2.2 2.2-3.7l.1-1.2c.1-1.4-.3-2.8-1.3-3.8l-.2-.3v-.3c-.2-2.3-2-4.2-4.3-4.5l-.5-.1 1.5-.6c2.1-.8 3.3-2.8 3.2-5 .6-.7 1-1.5 1.2-2.4l.2-1.2c.2-.9.1-1.9-.2-2.7l-.7-1.8c-.3-.7-.7-1.3-1.2-1.8v-.4c.1-1.3-.4-2.6-1.2-3.5l-.2-2.8.8-2.4c0-.1.1-.2.1-.3l.3-.9.5-.3c1.2-.8 2.1-2 2.3-3.4l.2-1c.3-1.7-.3-3.5-1.7-4.6l-1.9-1.6v-.1c.6-1.1.8-2.5.4-3.7l-.2-.8c-.4-1.4-1.3-2.5-2.6-3.1-1.2-.6-2.5-.7-3.8-.2-.2 0-.3-.1-.5-.1l-1.5-.2h-.1c-.4-.3-.8-.5-1.2-.6.2-2.6.1-4.3-1.2-5.8-.8-.9-1.8-1.4-3-1.6-.5-.1-1.8-.5-2.9-.8-.3-.1-.5-.1-.8-.2l1.7-.4c.9-.2 1.8-.7 2.4-1.4.2.2.5.3.8.5l1 .5c.4 1.2 1.2 2.2 2.3 2.8l3.9 2.2c.6.4 1.3.6 2 .6.5.5 1.1.9 1.7 1.2.1.5.4.9.6 1.4l3.6 5.4c0 1.2.4 2.3 1.2 3.2l.5 3.4c.1 1 .5 1.8 1.2 2.6v.1c.2.8.6 1.6 1.2 2.2l.7.7v.2c-.1 1.5.6 3 1.8 4l4 3.4c.9.8 2 1.2 3.2 1.2h2.7c.7 0 1.4-.1 2-.4l1.6-.7h.2c.7-.1 1.4-.2 2-.6l5.7-3c.9-.5 1.6-1.2 2.1-2.1l1.1-2.2 2.6-2.5 3.3-1.4h1.4c.6 0 1.1-.1 1.6-.3l.8-.3h.6c.7 0 1.4-.1 2-.4l2-.9c1.8-.8 3-2.6 3-4.6v-1.1c0-2.1-1.3-3.9-3.2-4.7l-.2-.1V98.7c.8-.6 1.3-1.5 1.6-2.4l1-3.6c.5-1.6.1-3.4-1-4.7l-1.2-1.4v-.1c.6-.2 1.1-.6 1.5-1l2.9-2.7c.9-.9 1.5-2 1.6-3.3l.2-3.2 1.6-.5c1-.3 1.9-.9 2.6-1.7l.6-.7c.5-.7.9-1.5 1-2.3.5-.6.9-1.3 1.1-2 .9-.9 1.4-2.1 1.4-3.5V60c0-.6-.1-1.1-.3-1.7.1-.3.2-.5.2-.8l.5-2.8c.2-1 0-2.1-.5-3.1l-.5-1-.1-1.2c-.1-.8-.3-1.6-.8-2.3.8-1.1 1.1-2.5.8-3.9l-.4-1.9c.4-.7.6-1.5.6-2.3 0-1.8-.9-3.5-2.5-4.4v-3c1.3-.4 2.3-1.2 3-2.4.7-1.3.8-2.8.3-4.2.9-.9 1.5-2.1 1.5-3.4l.1-2.5c.1-1.5-.6-3-1.8-4l-.8-.7-.1-1.6c-.1-1.2-.5-2.2-1.3-3.1l-.3-.4c.1-.2.1-.4.2-.7.2.1.5.2.7.3l3.8 1.2c.5.7 1.2 1.4 2 1.7l6.3 3c.6.3 1.3.4 1.9.5h.4c.7.3 1.4.5 2.2.5l3.4.1c1.7 0 3.3-.8 4.2-2.2l.6-.8L543 11c.7.1 1.4.2 2.1 0l1.6-.3c1.9-.4 3.4-1.8 3.9-3.7.5-.3 1-.7 1.4-1.3l3.2-4.1.9-.3c1.3-.5 2.4-1.4 2.9-2.7l2.9-6.5c.3-.7.5-1.5.4-2.2l-.1-2.4 1.7-3.4c.2.9.7 1.7 1.3 2.3l.7.7c.6.6 1.3 1 2 1.2 1.3 1.3 3.1 1.8 4.9 1.3l2.6-.7c.9-.3 1.7-.8 2.4-1.4 2-.2 3.7-1.5 4.3-3.3l.5-1.4c.5-.1 1-.3 1.5-.6l1-.6c1.1-.7 1.9-1.8 2.3-3.1.3-1.3.1-2.7-.6-3.8l-.2-.3.9-1.2c.5-.6.8-1.4 1-2.2.2.3.4.6.7.9l1.4 1.5c.9.9 2 1.4 3.2 1.5l3.6.3.1.1c1.5 1.2 3.6 1.5 5.3.6.5.1 1 .2 1.5.2l2.3-.1c1.3 0 2.5-.6 3.4-1.5l.2-.2c1-.1 2-.5 2.7-1.1l.1-.1h.1l5.4 1.4c.4.6.9 1.1 1.5 1.5l7.4 4.8c1.4.9 3.1 1 4.6.4.2-.1.5-.2.7-.3.6-.1 2.3-.2 4.3-.3l-2.1 1.3z" style="clip-path:url(#SVGID_2_);fill:#fff"></path><path d="M41 179.5c.7-12.5 7.3-24 17.8-30.9 57.6-37.7 122.1-67 192.3-85.8l-9.8-36.7c-80.2 21.5-153.9 55-219.7 98.1C9.5 132 2 145.1 1.2 159.4-3.2 238 4.6 318.6 26.1 398.8l36.7-9.8C44 318.8 37.2 248.3 41 179.5z" style="fill:#4dcc89"></path><path d="M480.6 1.2C402-3.2 321.4 4.6 241.2 26.1l9.8 36.7C321.2 44 391.7 37.2 460.5 41c12.5.7 24 7.3 30.9 17.8 37.7 57.6 67 122.1 85.8 192.3l36.7-9.8c-21.5-80.2-55-153.9-98.1-219.7C508 9.5 494.9 2 480.6 1.2zM179.5 599c-12.5-.7-24-7.3-30.9-17.8-37.6-57.7-67-122.2-85.8-192.3l-36.7 9.8c21.5 80.2 55 153.9 98.1 219.7 7.9 12 20.9 19.6 35.3 20.4 78.6 4.4 159.2-3.5 239.3-24.9l-9.8-36.7C318.8 596 248.3 602.8 179.5 599z" style="fill:#fff"></path><path d="M638.8 480.6c4.4-78.6-3.5-159.2-24.9-239.3l-36.7 9.8c18.8 70.1 25.6 140.7 21.8 209.4-.7 12.5-7.3 24-17.8 30.9-57.6 37.7-122.1 67-192.3 85.8l9.8 36.7c80.2-21.5 153.9-55 219.7-98.1 12.1-7.8 19.6-20.9 20.4-35.2z" style="fill:#eb3b5a"></path></svg>