<svg version="1.1" id="Layer_1" xmlns="http://www.w3.org/2000/svg" xmlns:xlink="http://www.w3.org/1999/xlink" x="0px" y="0px" viewBox="0 0 606.7 103.7" xml:space="preserve" data-v-33994f74=""><g><g><path d="M31.7,48.9V74c0,2.7,0.6,4.5,1.7,5.3c1.7,1.3,4.8,2,9.2,2c6.4,0,12.3-1.4,17.8-4.1c2.1-1.1,3.7-1.6,4.9-1.6
  c1.6,0,3.1,0.6,4.3,1.8c1.2,1.2,1.8,2.7,1.8,4.5c0,1.6-0.7,3-2,4.2c-2,1.9-5.9,3.7-11.8,5.3c-5.9,1.6-10.9,2.4-14.9,2.4
  c-7.8,0-13.6-1.7-17.5-5.1c-3.9-3.4-5.8-7.5-5.8-12.4V48.9h-4.5c-3,0-5.2-0.6-6.5-1.7s-1.9-2.7-1.9-4.6c0-1.8,0.6-3.3,1.9-4.5
  s3.4-1.7,6.5-1.7h4.5V25c0-3,0.6-5.2,1.7-6.5c1.2-1.3,2.7-1.9,4.6-1.9c1.8,0,3.3,0.6,4.5,1.9c1.2,1.3,1.7,3.4,1.7,6.5v11.3h23.2
  c3,0,5.2,0.6,6.5,1.7s1.9,2.7,1.9,4.6c0,1.8-0.6,3.3-1.9,4.5s-3.4,1.7-6.5,1.7H31.7z" class="logo t"></path> <path d="M127.9,50c3.7,2.5,6.5,5.5,8.3,8.8c1.8,3.3,2.8,7.1,2.8,11.2c0,4.4-1.2,8.6-3.6,12.3
  c-2.4,3.8-5.9,6.6-10.6,8.6c-4.6,1.9-10.7,2.9-18.1,2.9c-9.7,0-17-1.5-21.9-4.5c-2.7-1.7-4.1-3.8-4.1-6.1c0-1.8,0.6-3.3,1.8-4.6
  c1.2-1.2,2.7-1.9,4.4-1.9c1.2,0,2.4,0.4,3.7,1.2c1.8,1.2,3.5,2,5.1,2.4c2.4,0.6,5.8,0.9,10.1,0.9c7.3,0,12.6-0.9,15.9-2.8
  c3.3-1.9,4.9-4.6,4.9-8c0-2.6-0.9-5.1-2.8-7.4c-1.9-2.4-4.4-4.2-7.6-5.5c-1.8-0.7-4.9-1.2-9.3-1.5c-2.1-0.1-3.7-0.8-4.8-1.9
  c-1.1-1.2-1.7-2.6-1.7-4.3c0-1.8,0.6-3.3,1.8-4.5s2.8-1.8,4.7-1.8c4.2,0,6.4,0,6.7-0.1c1.6-0.2,3.3-0.7,4.9-1.6
  c1.6-0.9,2.9-2.1,3.9-3.7c1-1.6,1.5-3.2,1.5-4.9c0-2.7-1.2-4.9-3.5-6.9c-2.3-1.9-5.9-2.9-10.6-2.9c-6,0-10.7,1.8-13.8,5.3
  c-0.9,1-1.7,1.7-2.3,2c-0.9,0.4-1.8,0.7-2.9,0.7c-1.7,0-3.2-0.6-4.4-1.8s-1.8-2.7-1.8-4.5c0-2.8,1.9-5.5,5.6-8.2
  c5.5-3.9,12.3-5.8,20.5-5.8c7.8,0,14,2.2,18.7,6.6c4.7,4.4,7,9.7,7,15.9c0,3.2-0.7,6.2-2.1,9C132.7,45,130.7,47.6,127.9,50z" class="logo 3"></path> <path d="M204.8,38.6c1.5-1.4,3.1-2.1,4.7-2.1c1.8,0,3.3,0.6,4.4,1.9s1.7,3.4,1.7,6.4v8.1c0,3-0.6,5.2-1.7,6.4
  c-1.2,1.3-2.7,1.9-4.6,1.9c-1.7,0-3.2-0.5-4.3-1.5c-0.9-0.7-1.5-2.2-2-4.5s-1.7-3.9-3.6-5.1c-3.3-2-7.5-2.9-12.7-2.9
  c-5.9,0-10.7,1.7-14.2,5.2c-3.6,3.5-5.4,7.9-5.4,13.2c0,4.9,1.7,8.8,5.1,11.6c3.4,2.8,9.1,4.3,17.1,4.3c5.2,0,9.5-0.5,12.8-1.6
  c2-0.7,3.8-1.8,5.6-3.3c1.8-1.6,3.3-2.4,4.8-2.4c1.7,0,3.2,0.6,4.4,1.9c1.2,1.3,1.9,2.8,1.9,4.5c0,2.8-1.9,5.4-5.7,7.9
  c-5.6,3.7-13.9,5.6-24.7,5.6c-9.8,0-17.3-2-22.8-6.1c-7.3-5.4-11-12.9-11-22.3c0-8.9,3-16.3,8.9-22.2c6-5.9,13.7-8.8,23.3-8.8
  c3.5,0,6.7,0.3,9.7,1C199.5,36.3,202.2,37.3,204.8,38.6z" class="logo c"></path> <path d="M247.5,12.5v26.8c2.6-1.6,5.3-2.7,7.9-3.5c2.7-0.8,5.4-1.1,8.1-1.1c4.3,0,8.2,0.7,11.6,2.2
  c3.4,1.5,6.2,3.8,8.4,6.9c2.2,3.2,3.3,7.2,3.3,12v23.6c3.2,0,5.3,0.3,6.2,0.9c2,1.3,2.9,3.1,2.9,5.4c0,1.8-0.6,3.3-1.9,4.5
  c-1.3,1.2-3.4,1.7-6.4,1.7h-14.3c-3,0-5.1-0.6-6.4-1.7c-1.3-1.2-1.9-2.7-1.9-4.6c0-2.3,1-4.1,2.9-5.3c1-0.7,3.1-1,6.2-0.9V56.7
  c0-3.2-0.7-5.5-2.2-6.8c-1.9-1.8-4.8-2.6-8.5-2.6c-2.8,0-5.2,0.5-7.4,1.6c-2.1,1.1-5,3.4-8.7,7v23.5c3.2,0,5.3,0.3,6.2,0.9
  c2,1.3,3,3.1,3,5.4c0,1.8-0.6,3.3-1.9,4.5c-1.3,1.2-3.4,1.7-6.5,1.7h-14.3c-3,0-5.2-0.6-6.5-1.7c-1.3-1.2-1.9-2.7-1.9-4.6
  c0-2.3,1-4.1,3-5.3c1-0.7,3.1-1,6.2-0.9V25.1h-2.1c-3,0-5.2-0.6-6.5-1.7c-1.3-1.2-1.9-2.7-1.9-4.6c0-1.8,0.6-3.3,1.9-4.5
  c1.3-1.2,3.4-1.7,6.5-1.7H247.5z" class="logo h"></path> <path d="M335.6,48.9v30.5h17.9c3,0,5.2,0.6,6.5,1.7c1.3,1.2,1.9,2.7,1.9,4.6c0,1.8-0.6,3.3-1.9,4.5
  c-1.3,1.2-3.4,1.7-6.5,1.7h-37.9c-3,0-5.2-0.6-6.5-1.7c-1.3-1.2-1.9-2.7-1.9-4.6c0-1.8,0.6-3.3,1.9-4.5c1.3-1.2,3.4-1.7,6.5-1.7
  h7.5V48.9h-6c-3,0-5.2-0.6-6.5-1.7c-1.3-1.2-1.9-2.7-1.9-4.6c0-1.8,0.6-3.3,1.9-4.5c1.3-1.2,3.4-1.7,6.5-1.7h6v-4.8
  c0-5.5,2.1-10,6.2-13.6c4.1-3.6,10-5.4,17.8-5.4c3.5,0,7.5,0.3,12,0.9c4.5,0.6,7.5,1.5,8.8,2.7c1.3,1.1,1.9,2.6,1.9,4.4
  c0,1.9-0.6,3.5-1.7,4.7c-1.1,1.2-2.6,1.8-4.2,1.8c-0.8,0-1.9-0.1-3.5-0.4c-5.2-1-9.8-1.5-13.8-1.5c-4.2,0-7,0.6-8.6,1.9
  c-1.6,1.2-2.4,2.8-2.4,4.6v4.8h19.3c3,0,5.2,0.6,6.5,1.7s1.9,2.7,1.9,4.6c0,1.8-0.6,3.3-1.9,4.5s-3.4,1.7-6.5,1.7H335.6z" class="logo f"></path> <path d="M442.4,70.5h-51.5c1.3,3.3,3.6,5.9,6.9,7.9c3.3,2,7.8,3,13.5,3c4.7,0,10.8-1,18.5-3c3.2-0.8,5.4-1.2,6.6-1.2
  c1.7,0,3.1,0.6,4.2,1.8c1.1,1.2,1.7,2.7,1.7,4.5c0,1.6-0.6,3-1.8,4.2c-1.6,1.5-5.6,2.9-11.9,4.3c-6.3,1.4-12.4,2.1-18.2,2.1
  c-10,0-18.1-2.8-24.1-8.5c-6-5.7-9-12.7-9-20.9c0-8.8,3.3-16,9.8-21.5c6.5-5.5,14-8.3,22.5-8.3c5.1,0,9.8,0.9,14,2.7
  c4.3,1.8,7.4,3.7,9.5,5.8c2.9,3,5.4,6.8,7.3,11.2c1.3,3.1,2,6.7,2,10.8V70.5z M428.5,57.9c-1.9-3.6-4.4-6.3-7.5-8
  c-3.1-1.8-6.8-2.7-11.1-2.7c-4.2,0-7.9,0.9-11,2.7c-3.1,1.8-5.6,4.5-7.6,8H428.5z" class="logo e"></path> <path d="M499.7,51c-2-1.3-4.2-2.2-6.4-2.8c-2.2-0.6-4.6-0.9-7-0.9c-4.9,0-8.7,0.8-11.6,2.4c-1.3,0.7-1.9,1.4-1.9,2.3
  c0,0.9,0.9,1.9,2.6,2.8c1.3,0.7,4.2,1.3,8.8,1.9c8.3,1.1,14.1,2.3,17.4,3.4c4.3,1.5,7.6,3.8,9.9,6.7c2.3,3,3.5,6.1,3.5,9.4
  c0,4.5-2,8.2-5.9,11.3c-5.7,4.4-13,6.5-22.1,6.5c-3.6,0-7-0.3-10.1-0.9c-3.1-0.6-5.9-1.6-8.5-2.8c-0.6,0.5-1.3,0.9-2,1.2
  c-0.7,0.3-1.4,0.4-2.1,0.4c-2,0-3.5-0.6-4.7-1.9c-1.2-1.3-1.7-3.4-1.7-6.5v-4.2c0-3,0.6-5.2,1.7-6.5c1.2-1.3,2.7-1.9,4.6-1.9
  c1.5,0,2.8,0.4,3.8,1.3c1,0.8,1.8,2.3,2.4,4.3c1.9,1.6,4.2,2.9,6.9,3.7c2.7,0.8,5.8,1.3,9.3,1.3c5.8,0,10.2-0.9,13.4-2.7
  c1.5-0.9,2.3-1.8,2.3-2.8c0-1.6-1.1-3-3.2-4c-2.2-1.1-6.6-2-13.4-2.7c-10.1-1.1-16.8-3.1-20.2-6.1c-3.4-3-5.1-6.7-5.1-11
  c0-4.5,1.9-8.2,5.7-11.2c5.1-4.1,11.9-6.1,20.2-6.1c2.9,0,5.7,0.3,8.4,0.8c2.7,0.6,5.2,1.4,7.7,2.5c0.8-0.6,1.5-1,2.2-1.3
  c0.7-0.3,1.3-0.4,1.9-0.4c1.7,0,3.1,0.6,4.3,1.9c1.1,1.3,1.7,3.4,1.7,6.5v3.1c0,2.7-0.3,4.6-1,5.6c-1.3,1.9-3.1,2.8-5.3,2.8
  c-1.5,0-2.8-0.5-4-1.4C500.8,53.8,500,52.6,499.7,51z" class="logo s"></path> <path d="M558.3,48.9V74c0,2.7,0.6,4.5,1.7,5.3c1.7,1.3,4.8,2,9.2,2c6.4,0,12.3-1.4,17.8-4.1c2.1-1.1,3.7-1.6,4.9-1.6
  c1.6,0,3.1,0.6,4.3,1.8c1.2,1.2,1.8,2.7,1.8,4.5c0,1.6-0.7,3-2,4.2c-2,1.9-5.9,3.7-11.8,5.3c-5.9,1.6-10.9,2.4-14.9,2.4
  c-7.8,0-13.6-1.7-17.5-5.1c-3.9-3.4-5.8-7.5-5.8-12.4V48.9h-4.5c-3,0-5.2-0.6-6.5-1.7c-1.3-1.2-1.9-2.7-1.9-4.6
  c0-1.8,0.6-3.3,1.9-4.5c1.3-1.2,3.4-1.7,6.5-1.7h4.5V25c0-3,0.6-5.2,1.7-6.5c1.2-1.3,2.7-1.9,4.6-1.9c1.8,0,3.3,0.6,4.5,1.9
  c1.2,1.3,1.7,3.4,1.7,6.5v11.3h23.2c3,0,5.2,0.6,6.5,1.7c1.3,1.2,1.9,2.7,1.9,4.6c0,1.8-0.6,3.3-1.9,4.5c-1.3,1.2-3.4,1.7-6.5,1.7
  H558.3z" class="logo t"></path></g></g></svg>