<?xml version="1.0" encoding="UTF-8"?>
<svg
  enable-background="new 742 -144 2124.6 768"
  version="1.1"
  viewBox="742 -144 2124.6 768"
  xml:space="preserve"
  xmlns="http://www.w3.org/2000/svg">
  <metadata>
    <x:xmpmeta
      x:xmptk="Adobe XMP Core 5.6-c067 79.157747, 2015/03/30-23:40:42        "
      xmlns:x="adobe:ns:meta/">
      <rdf:RDF xmlns:rdf="http://www.w3.org/1999/02/22-rdf-syntax-ns#">
        <rdf:Description rdf:about="" />
      </rdf:RDF>
    </x:xmpmeta>
  </metadata>
  <style type="text/css">
    .st0 {
      display: none;
      fill: #8e151e;
    }
    .st1 {
      fill: #b72133;
    }
    .st2 {
      fill: #8e8989;
    }
    .st3 {
      fill: #b72532;
    }
    .st4 {
      fill: #ffffff;
    }
  </style>
  <rect class="st0" x="742" y="-144" width="2124.6" height="768" />
  <rect class="st1" x="832.5" y="-144" width="2034.1" height="768" />
  <rect class="st2" x="2736.4" y="-144" width="130" height="768" />
  <rect class="st2" x="2655" y="-144" width="130" height="132" />
  <rect class="st2" x="823.4" y="-144" width="130" height="768" />
  <rect class="st2" x="742" y="-144" width="130" height="132" />
  <circle fill="#8e8989" cx="1422.2" cy="240" r="384" />
  <circle class="st3" cx="1422.2" cy="240" r="255.5" />
  <circle fill="#8e8989" cx="2252.2" cy="240" r="384" />
  <circle class="st3" cx="2252.2" cy="240" r="255.5" />
  <rect class="st3" x="993.3" y="145.7" width="1704" height="186" />
  <path
    class="st4"
    d="m2622.7 171.2c-13.6-7.7-32.5-12.6-47.9-12.6-30.7 0-52.9 20.3-52.9 51.3 0 29.5 16.5 36.1 41.5 43.1 8.5 2.5 24.2 6.3 24.2 17.5 0 10.8-9.9 15.4-19.3 15.4-13.6 0-25.4-7.1-35.3-15.8l-17.1 32c15.6 11 34.6 17.5 53.9 17.5 15.4 0 31.6-4.2 43.5-14.3 12.2-10.3 15.8-26 15.8-41.2 0-24.7-16.5-35.4-37.8-41.7l-10.1-3c-6.9-2.3-17.7-5.7-17.7-14.5 0-8.5 9.8-12.7 17.1-12.7 9.8 0 19.1 4.1 26.4 10.1l15.7-31.1zm-346.7 25.1h33v-33.6h-105.7v33.6h33v119.1h39.9l-0.2-119.1zm-508.5 119.1h39.9v-93.6h0.4l73 93.6h39.9v-152.8h-39.9v93.4h-0.4l-73-93.4h-39.9v152.8zm-341-119.3c23.8 0 43.3 19.3 43.3 40.3 0 26.3-19.5 45.6-43.3 45.6s-43.3-19.3-43.3-45.6c0-21.1 19.5-40.3 43.3-40.3m0-38.5c-44.2 0-84.8 32.4-84.8 78.6 0 49.5 35.6 84.3 84.8 84.3s84.8-34.8 84.8-84.3c-0.1-46.2-40.8-78.6-84.8-78.6m-284.3 38.7v-33.6h-88v152.8h39.9v-59.9h43.7v-33.6h-43.7v-25.5l48.1-0.2z" />
</svg>
