<?xml version="1.0" encoding="UTF-8"?>
<svg
  viewBox="0 0 1167 622"
  xmlns="http://www.w3.org/2000/svg"
  fill-rule="evenodd"
  clip-rule="evenodd"
  stroke-linejoin="round"
  stroke-miterlimit="2">
  <path
    d="M23.222 124.689H0v-42.41h23.222V71.952c0-50.13 28.375-73.372 85.9-71.885v43.51c-25.075-.754-33.549 7.374-33.549 30.229v8.474h35.77v42.41h-35.77v161.854h-52.35l-.001-161.855zM235.597 289.847c-58.991 0-103.6-41.29-103.6-105.434 0-64.532 46.1-105.454 105.088-105.454 58.988 0 105.066 40.923 105.066 105.454 0 64.145-47.197 105.434-106.554 105.434zm0-44.977c27.3 0 53.471-19.9 53.471-60.458 0-40.923-25.442-60.458-52.737-60.458-27.275 0-51.984 19.535-51.984 60.458-.002 40.558 23.608 60.459 51.25 60.459v-.001zM523.218 173.72c0-32.816-18.068-50.517-45.364-50.517-28.008 0-46.076 17.7-46.076 50.517v112.828h-51.617V82.276h51.617v25.445c13.261-17.335 35.382-28.4 61.557-28.4 47.564 0 81.5 30.982 81.5 87.386v119.841h-51.617V173.72zM632.014 124.689h-24.345v-42.41h24.342V31.762h51.984v50.517h45.71v42.41h-45.71v98.814c0 13.627 5.52 19.535 21.755 19.535h23.955v43.509h-32.447c-39.069 0-65.245-16.6-65.245-63.432l.001-98.426zM93.008 527.359c-51.25 0-87.02-29.862-89.219-67.831h51.983c1.834 15.481 16.214 27.275 36.87 27.275 20.268 0 31.328-9.207 31.328-21 0-36.5-115.394-13.281-115.394-88.12 0-33.916 30.229-61.211 80.745-61.211 49.4 0 79.259 26.929 82.213 67.485h-49.4c-1.487-15.868-14.014-26.562-34.3-26.562-19.168 0-29.129 7.741-29.129 19.555 0 37.236 113.195 14.014 114.682 88.853.001 35.015-30.615 61.556-80.379 61.556zM334.9 316.471c52.351 0 93.274 40.923 93.274 104.721 0 63.778-40.923 106.167-93.274 106.167-32.082 0-54.937-15.848-67.465-32.429v126.457h-51.617V319.791h51.617v29.5c12.161-17.319 35.749-32.82 67.465-32.82zm-13.648 45.364c-27.642 0-53.817 21.368-53.817 60.091 0 38.7 26.175 60.091 53.817 60.091 28.029 0 54.2-22.122 54.2-60.824 0-38.724-26.171-59.358-54.2-59.358zM545.829 316.471c32.816 0 55.3 15.5 67.465 32.449v-29.129h51.984V524.06h-51.984v-29.862c-12.161 17.681-35.382 33.161-67.831 33.161-51.617 0-92.907-42.39-92.907-106.167 0-63.798 41.29-104.721 93.273-104.721zm13.281 45.364c-27.662 0-53.838 20.635-53.838 59.358 0 38.7 26.175 60.824 53.838 60.824 28.375 0 54.183-21.388 54.183-60.091.001-38.723-25.807-60.091-54.182-60.091h-.001zM803.568 316.471c50.883 0 85.186 26.542 96.247 72.272h-55.691c-5.887-17.335-19.534-28.4-40.923-28.4-28.742 0-47.93 21.755-47.93 61.578 0 39.823 19.188 61.191 47.93 61.191 21.389 0 34.669-9.574 40.923-28.008h55.691c-11.061 43.51-45.364 72.252-96.247 72.252-58.991 0-101.014-41.29-101.014-105.434 0-64.161 42.023-105.451 101.014-105.451zM1027.05 527.359c-59.378 0-102.5-41.29-102.5-105.434 0-64.532 42.023-105.455 102.5-105.455 58.991 0 100.647 40.19 100.647 101.034.062 6.663-.436 13.32-1.487 19.9H976.899c2.587 30.229 23.222 47.2 49.03 47.2 22.122 0 34.283-11.061 40.923-24.709h55.671c-11.04 37.602-44.977 67.464-95.473 67.464zm-49.784-124.6h96.96c-.736-26.93-22.122-43.88-48.663-43.88-24.709 0-44.243 15.85-48.297 43.878v.002z"
    fill="#8e8989"
    fill-rule="nonzero" />
  <circle cx="966.642" cy="124.952" r="118.35" fill="url(#_Linear1)" />
  <path
    d="M1165.68 62.357c-5.581-14.218-44.691-13.322-99.568-.326.153.209.283.435.387.672 3.871 10.022-41.269 36.869-100.83 59.989-59.582 23.1-111.036 33.712-114.926 23.67l-.041-.2c-50.639 28.355-81.052 54.958-75.389 69.441 8.942 22.733 103.56 6.865 211.357-35.443 107.797-42.333 187.932-95.05 179.01-117.803z"
    fill="url(#_Linear2)"
    fill-rule="nonzero" />
  <defs>
    <linearGradient
      id="_Linear1"
      x1="0"
      y1="0"
      x2="1"
      y2="0"
      gradientUnits="userSpaceOnUse"
      gradientTransform="scale(-149.0444) rotate(-63.3942 -3.4962 5.521)">
      <stop offset="0" stop-color="#23dbf9" />
      <stop offset="1" stop-color="#ff64bd" />
    </linearGradient>
    <linearGradient
      id="_Linear2"
      x1="0"
      y1="0"
      x2="1"
      y2="0"
      gradientUnits="userSpaceOnUse"
      gradientTransform="rotate(70.9968 414.9886 711.8063) scale(80.6006)">
      <stop offset="0" stop-color="#23dbf9" />
      <stop offset="1" stop-color="#fff" />
    </linearGradient>
  </defs>
</svg>
