<svg xmlns="http://www.w3.org/2000/svg" viewBox="-0.08 -0.02 182.9 29.96">
	<path d="M5.03 6.56v7.76H16.3v4.38H5.03v10.8H-.08V2.1h17.94v4.46H5.03zM44.92 8.64v3.84h.13c.73-2.29 2.77-4.25 6.33-4.25 3.92 0 6.62 2.37 6.62 7.15v14.1h-4.94V16.62c0-2.74-1.23-4.09-3.52-4.09-2.65 0-4.53 2.45-4.53 6.13v10.83h-5V8.64h4.91zM111.23 15.39v14.1h-4.95V16.61c0-2.73-1.23-4.09-3.52-4.09-2.65 0-4.53 2.46-4.53 6.14v10.83h-4.99V.06h4.99v8.58c0 1.3-.04 2.57-.08 3.84h.08c.78-2.29 2.82-4.25 6.42-4.25 3.92 0 6.58 2.37 6.58 7.16zM139.43 8.64v4.62h.12c.82-2.86 2.78-4.9 5.76-4.9.74 0 1.35.04 2.05.2v5.07a8.84 8.84 0 00-2.45-.33c-2.78 0-5.36 1.97-5.36 6.79v9.4h-4.99V8.64h4.87zM27.47 8.23c5.68 0 9.93 3.76 9.93 10.75 0 6.95-4.45 10.92-9.97 10.92-5.73 0-9.97-3.76-9.97-10.76 0-6.99 4.4-10.9 10-10.9zm0 4.1c-2.9 0-4.95 2.44-4.95 6.74 0 4.33 2.05 6.74 4.9 6.74 2.91 0 4.91-2.45 4.91-6.74 0-4.34-2-6.75-4.86-6.75zM62.25 12.73h-2.73V8.85h1.02c1.63 0 2.04-.53 2.04-2.74v-4h4.62v6.54h5.2v4.09h-5.2v9.89c0 2.37.78 3.1 2.57 3.1a5.7 5.7 0 002.62-.61v4.09c-1.23.5-2.55.76-3.88.73-4.46 0-6.26-1.84-6.26-6.46V12.73zM78.52 23.07c.08 2.09 1.4 3.15 3.84 3.15 2.38 0 3.68-.98 3.68-2.29 0-1.8-1.18-2.09-4.04-2.9-4.74-1.27-7.97-2.09-7.97-6.54 0-3.84 3.51-6.26 8.25-6.26 5.32 0 8.46 2.46 8.26 6.71h-4.66c0-2-1.27-3.07-3.52-3.07-2.04 0-3.47.9-3.47 2.21 0 1.76 1.27 2.17 3.88 2.82 4.99 1.19 8.1 2.25 8.1 6.46 0 3.96-3.44 6.54-8.67 6.54-5.19 0-8.5-2.25-8.5-6.83h4.82zM125.94 17.39v-1.51c0-2.58-1.1-3.84-3.52-3.84-2.12 0-3.63 1.14-3.63 3.19 0 .28 0 .52.08.94h-4.66c-.04-.37-.04-.7-.04-.99 0-4.13 3.47-6.95 8.42-6.95 5.4 0 8.21 2.82 8.21 7.77v7.07c0 2.13.29 2.74 1.15 2.74.3 0 .6-.08.86-.24v3.64c-.4.28-1.6.61-2.66.61-2.98 0-3.8-1.02-4.04-3.4h-.08c-1.07 2.05-3.15 3.48-6.34 3.48-4.04 0-6.38-2.04-6.38-5.68 0-5.6 5.68-6.75 12.63-6.83zm0 3.1c-5.03.13-7.65.87-7.65 3.24 0 1.59.9 2.45 3.03 2.45a4.9 4.9 0 004.62-3.4V20.5zM165.47 20.17h-13.7c.09 3.76 1.97 5.6 4.75 5.6 2.77 0 4-1.63 4.25-3.47h4.58c-.25 4-3.44 7.6-8.87 7.6-5.89 0-9.77-3.8-9.77-10.75 0-7 4.3-10.92 9.65-10.92 5.52 0 9.2 3.76 9.2 10.18 0 .49-.05 1.15-.09 1.76zm-13.61-3.19h8.91c-.25-3.35-2-4.86-4.42-4.86-2.28 0-4.13 1.59-4.5 4.86zM164 1.79v-1.8h7.2v1.8h-2.55v6.94h-2.09V1.8H164zm10.91-1.8l2.56 6.34h.08L180.13 0h2.72v8.74h-1.93V2.92h-.05l-2.38 5.81h-1.95l-2.35-5.79h-.08v5.8h-1.93V-.02h2.73z" fill="#000000"/>
</svg>