<?xml version="1.0" encoding="utf-8"?>
<!-- Generator: Adobe Illustrator 26.3.1, SVG Export Plug-In . SVG Version: 6.00 Build 0)  -->
<svg version="1.1" id="Layer_1" xmlns="http://www.w3.org/2000/svg" xmlns:xlink="http://www.w3.org/1999/xlink" x="0px" y="0px"
	 viewBox="0 0 776.8 166" style="enable-background:new 0 0 776.8 166;" xml:space="preserve">
<style type="text/css">
	.st0{fill-rule:evenodd;clip-rule:evenodd;fill:#1D9FD7;}
	.st1{fill-rule:evenodd;clip-rule:evenodd;fill:#010101;}
	.st2{fill-rule:evenodd;clip-rule:evenodd;fill:#060606;}
	.st3{fill:#06262D;}
</style>
<g id="Page-1_00000080168479810278752640000012577228115372169632_">
	<g id="SPACED_00000071534394405061365480000008042637299139792011_" transform="translate(-111.000000, -165.000000)">
		<g id="Group-3_00000000221931116819164040000000366792801675334843_" transform="translate(102.000000, 161.000000)">
			<g id="Page-1_00000154402881671760240150000014512055977305238680_" transform="translate(175.000000, 15.000000)">
				<path id="Fill-12_00000108997813132082295290000006845633650223597208_" class="st0" d="M31.99,30.73L31.99,30.73
					c-2.1-2.4-5.1-3.7-8.8-3.7s-6.5,1.2-8.7,3.7h0.1c-2.2,2.5-3.3,5.5-3.3,9c0,3.7,1.2,6.8,3.2,9.2v-0.1c2.1,2.5,5,3.7,8.7,3.7
					s6.7-1.2,8.9-3.7h-0.1c2.2-2.5,3.2-5.5,3.2-9.1C35.19,36.13,34.09,33.13,31.99,30.73 M34.99,51.73c-3.1,3.2-7,5-11.9,5
					c-4.6,0-8.9-1.9-11.9-4.9c0,0-0.1,0-0.1-0.1v21.7h-4.3v-50h4.4v4.3l0.1-0.1c3.1-3.2,7-4.8,11.9-4.8s8.9,1.7,11.9,4.8
					c3.1,3.2,4.6,7.2,4.6,12.1S37.99,48.73,34.99,51.73"/>
				<path id="Fill-14_00000112617045769013053660000014207600283685872271_" class="st0" d="M77.19,68.73c-2.9,3.1-6.9,4.6-11.8,4.6
					c-3.9,0-7.7-1.2-11.4-3.6l1.5-4.3c2.2,1.6,4.4,2.6,6.4,3.1c1.3,0.3,2.6,0.5,3.6,0.5c3.7,0,6.5-1.2,8.5-3.5c2-2.3,3-5.1,3-8.9
					v-3.3c-2.3,2.2-5.3,3.2-9,3.2c-4.3,0-7.7-1.6-10.1-4.4c-2.2-2.7-3.2-6.2-3.2-10.5v-18.2h4.3v19.3c0,2.9,0.8,5.2,2.4,7h-0.1
					c1.7,2,3.9,2.9,6.7,2.9c2.8,0,5-0.9,6.6-2.8c1.6-1.7,2.4-4.1,2.4-7.1v-19.3h4.4v33.4C81.29,61.63,79.99,65.63,77.19,68.73"/>
				<path id="Fill-16_00000090257702590772928100000011640415297845174184_" class="st0" d="M110.99,55.93
					c-8.5,0-12.6-3.9-12.6-11.7v-30.2h4.3v9.4h9.1v4.4h-9.1v16.2c0,5.1,2.7,7.8,8.3,7.8h2.7v4.1H110.99z"/>
				<path id="Fill-18_00000094587767655090220530000016841359138425406869_" class="st0" d="M150.49,56.13v-19.2
					c0-2.7-0.8-5.2-2.2-7.1c-1.6-1.7-3.7-2.8-6.3-2.8c-3.1,0-5.5,1.2-7.3,3.2c-1.6,2.2-2.4,5-2.4,8.1v17.7h-4.3V8.43h4.3v18.5
					c2.4-2.4,6.1-4.2,9.7-4.2c4.1,0,7.5,1.5,9.7,4.4c2,2.6,3.2,6.1,3.2,10.2v18.8H150.49z"/>
				<path id="Fill-20_00000083064189883370370130000001705214694442556290_" class="st0" d="M193.39,30.63L193.39,30.63
					c-2.1-2.4-5.1-3.7-8.8-3.7c-3.6,0-6.6,1.5-8.8,3.7c-1.9,2.2-3.2,5.5-3.2,9c0,3.7,1.2,6.8,3.2,9.2c2.2,2.2,5.2,3.6,8.8,3.6
					c3.7,0,6.6-1.2,8.8-3.7h-0.1c2.2-2.6,3.3-5.5,3.3-9.1C196.59,36.03,195.49,33.03,193.39,30.63 M196.59,51.83
					c-3.1,3.2-7,4.8-11.9,4.8c-4.8,0-8.8-1.7-11.8-4.8c-3.2-3.2-4.6-7.3-4.6-12.1c0-4.9,1.7-8.8,4.6-12c3.1-3.3,7-4.9,11.8-4.9
					c5,0,9,1.7,12,4.9s4.5,7.1,4.5,12C201.09,44.73,199.59,48.73,196.59,51.83"/>
				<path id="Fill-22_00000091706052204177836600000016752329899443991227_" class="st0" d="M237.09,56.13v-19.2
					c0-2.9-0.8-5.2-2.4-7.1l0.1,0.1c-1.7-1.9-4-2.9-6.7-2.9c-2.8,0-4.9,0.9-6.6,2.6c-1.6,1.7-2.5,3.8-2.5,6.6v20l-4.3-0.1v-32.8h4.3
					v2.8c2.3-2.1,5.5-3.3,9.1-3.3c4.3,0,7.6,1.5,10.1,4.5v-0.1c2.2,2.5,3.3,6.1,3.3,10.5v18.4H237.09z"/>
				<path id="Fill-24_00000080924552586179326530000004121665281358993049_" class="st1" d="M283.89,30.63L283.89,30.63
					c-2.1-2.4-5.1-3.7-8.8-3.7c-3.6,0-6.6,1.5-8.8,3.7c-1.9,2.2-3.2,5.5-3.2,9c0,3.7,1.2,6.8,3.2,9.2c2.2,2.2,5.2,3.6,8.8,3.6
					c3.7,0,6.6-1.2,8.8-3.7h-0.1c2.2-2.6,3.3-5.5,3.3-9.1C287.09,36.03,285.99,33.03,283.89,30.63L283.89,30.63z M287.09,56.13v-4.3
					l-0.1,0.1c-3.1,3.2-5.2,4.8-10.4,4.8c-4.8,0-10.4-1.7-13.4-4.8c-3.2-3.2-4.6-7.3-4.6-12.1c0-4.9,1.7-8.8,4.6-12
					c3.1-3.3,7-4.9,11.8-4.9c4.7,0,9,1.8,11.9,4.8c0,0,0.1,0,0.1,0.1v-4.3h4.4v32.7h-4.3V56.13z"/>
				<path id="Fill-26_00000163781405650729690120000012694616737895475850_" class="st1" d="M331.29,56.13v-19.2
					c0-2.9-0.8-5.2-2.4-7.1l0.1,0.1c-1.7-1.9-4-2.9-6.7-2.9c-2.8,0-4.9,0.9-6.6,2.6c-1.6,1.7-2.5,3.8-2.5,6.6v20l-4.3-0.1v-32.8h4.3
					v2.8c2.3-2.1,5.5-3.3,9.1-3.3c4.3,0,7.6,1.5,10.1,4.5v-0.1c2.2,2.5,3.3,6.1,3.3,10.5v18.4H331.29z"/>
				<path id="Fill-28_00000126284400408546941790000017893723235677987463_" class="st1" d="M374.99,68.73
					c-2.9,3.1-6.9,4.6-11.8,4.6c-3.9,0-7.7-1.2-11.4-3.6l1.5-4.3c2.2,1.6,4.4,2.6,6.4,3.1c1.3,0.3,2.6,0.5,3.6,0.5
					c3.7,0,6.5-1.2,8.5-3.5c2-2.3,3-5.1,3-8.9v-3.3c-2.3,2.2-5.3,3.2-9,3.2c-4.3,0-7.7-1.6-10.1-4.4c-2.2-2.7-3.2-6.2-3.2-10.5
					v-18.2h4.3v19.3c0,2.9,0.8,5.2,2.4,7h-0.1c1.7,2,3.9,2.9,6.7,2.9c2.8,0,5-0.9,6.6-2.8c1.6-1.7,2.4-4.1,2.4-7.1v-19.3h4.4v33.4
					C379.19,61.63,377.89,65.63,374.99,68.73"/>
				<path id="Fill-30_00000179607459776462442920000005834147058778705316_" class="st1" d="M428.49,53.13c-0.9,2.4-2.2,3.7-4.1,3.7
					c-2,0-3.3-1.2-4.2-3.7l-3.2-8.5c-1.1,2.8-2.1,5.8-3.2,8.5c-0.9,2.4-2.5,3.7-4.2,3.7c-2,0-3.3-1.2-4.2-3.7l-11.1-29.7h4.6
					l10.4,27.8v-0.1c0.2,0.7,0.4,0.9,0.3,0.9c0.1,0,0.1-0.2,0.4-0.9v0.1c1.6-4.3,3.2-8.3,4.7-12.6c-1.8-4.6-3.9-10.5-5.6-15.2h4.5
					l10.4,27.8v-0.1c0.2,0.7,0.3,0.9,0.3,0.9s0.1-0.2,0.3-0.8l10.4-27.8h4.7L428.49,53.13z"/>
				<path id="Fill-32_00000144330755942950057660000012665214353842940299_" class="st1" d="M476.19,56.13v-19.2
					c0-2.7-0.8-5.2-2.2-7.1c-1.6-1.7-3.7-2.8-6.3-2.8c-3.1,0-5.5,1.2-7.3,3.2c-1.6,2.2-2.4,5-2.4,8.1v17.7h-4.3V8.43h4.3v18.5
					c2.4-2.4,6.1-4.2,9.7-4.2c4.1,0,7.5,1.5,9.7,4.4c2,2.6,3.2,6.1,3.2,10.2v18.8H476.19z"/>
				<path id="Fill-34_00000098910421368177140350000000783549149864202379_" class="st1" d="M498.39,37.23h23.7
					c-0.4-2.9-1.7-5.4-3.6-7.2c-2.1-2-4.7-3.1-8.2-3.1c-3.4,0-6.1,1.1-8.1,3.1C500.09,31.83,498.89,34.33,498.39,37.23
					 M526.69,40.03c0,0.3-0.1,1.3-0.1,1.4h-28.2c0.4,3.2,1.7,5.8,3.7,7.7c2.2,2.1,5,3.2,8.5,3.2c1.9,0,3.9-0.3,5.9-0.9v0.1
					c2.2-0.7,3.9-1.9,5.5-3.4l3.2,3.1c-3.5,3.5-8.2,5.4-14.4,5.4c-4.9,0-9-1.7-12-4.7c-3.2-3.1-4.8-7.1-4.8-12.2
					c0-4.9,1.7-8.8,4.6-12c3.1-3.3,7-4.9,11.8-4.9c4.8,0,8.7,1.6,11.8,4.7s4.7,6.9,4.7,11.8C526.69,39.53,526.79,39.63,526.69,40.03
					"/>
				<path id="Fill-36_00000127744909504045128020000016737490222120582027_" class="st1" d="M558.39,28.13l-0.7-0.2
					c0.1,0.1-0.8-0.1-1.4-0.2c-0.4-0.1-0.7-0.1-1.4-0.2c-2.4,0.2-4.9,1.3-6.6,3.7c-1.8,2.3-2.7,5.7-2.7,10.1v14.7h-4.4v-32.6h4.4
					v4.2c2.4-2.4,6.2-4.4,10-4.4c0,0,0.5,0.1,1.1,0.2c0.6,0.1,2.1,0.3,3.1,0.5v4.2H558.39z"/>
				<g id="Group-40_00000135665339760758407840000000944146038120508553_" transform="translate(561.000000, 14.106000)">
					<path id="Fill-38_00000168080621538077198330000006986188986645327022_" class="st1" d="M11.59,23.13h23.7
						c-0.4-2.9-1.7-5.4-3.6-7.2c-2.1-2-4.7-3.1-8.2-3.1c-3.4,0-6.1,1.1-8.1,3.1C13.19,17.73,12.09,20.23,11.59,23.13 M39.79,25.93
						c0,0.3-0.1,1.3-0.1,1.4h-28.2c0.4,3.2,1.7,5.8,3.7,7.7c2.2,2.1,5,3.2,8.5,3.2c1.9,0,3.9-0.3,5.9-0.9v0.1
						c2.2-0.7,3.9-1.9,5.5-3.4l3.2,3.1c-3.5,3.5-8.2,5.4-14.4,5.4c-4.9,0-9-1.7-12-4.7c-3.2-3.1-4.8-7.1-4.8-12.2
						c0-4.9,1.7-8.8,4.6-12c3.1-3.3,7-4.9,11.8-4.9s8.7,1.6,11.8,4.7s4.7,6.9,4.7,11.8C39.89,25.43,39.99,25.53,39.79,25.93"/>
				</g>
			</g>
			<g id="Group-2_00000052825521901951230800000016194185934857016471_">
				<path id="Fill-1_00000156571942268143254190000003706860345821255079_" class="st2" d="M78.69,107.93c-0.5-0.6-1.2-1-1.8-1.4
					c-0.5-0.3-0.7-0.6-0.6-1.3c1-5.9,1.9-11.8,2.8-17.8c0.6-4,1.2-8,1.9-12.2c0.9,0.6,1.8,1.2,2.6,1.8c0.2,0.2,0.1,0.5,0.1,0.7
					c-0.2,1.4-0.4,2.9-0.7,4.3c-0.5,3.2-1,6.5-1.5,9.7s-1,6.4-1.5,9.6c-0.1,0.8-0.2,1.7-0.4,2.5c0.4,0.1,0.6-0.2,0.9-0.3
					c7.6-4,15.2-7.9,22.8-11.9c0.2-0.1,0.4-0.2,0.6-0.3c0.2-0.1,0.4-0.2,0.6,0c0.8,0.5,1.6,1.1,2.5,1.7c-0.4,0.2-0.6,0.4-0.9,0.5
					c-8.8,4.6-17.5,9.2-26.3,13.8c-0.3,0.1-0.6,0.2-0.7,0.5L78.69,107.93z"/>
				<path id="Fill-14_00000022536297784863974740000015833191621551844517_" class="st2" d="M51.99,53.93c-0.2,1.6-0.5,3-0.7,4.4
					c-0.7,4.6-1.5,9.1-2.2,13.7c-0.4,2.7-0.9,5.4-1.3,8.1c-0.1,0.5-0.3,0.7-0.7,0.8c-0.8,0.2-1.7,0.5-2.5,0.8c-0.1-0.2,0-0.4,0-0.6
					c0.8-5,1.6-9.9,2.4-14.9c0.8-4.8,1.5-9.7,2.3-14.5c0.1-0.4,0.2-0.7,0.7-0.8c0.7-0.2,1.3-0.4,2-0.6c0.4-0.2,0.7-0.1,1.1,0.2
					c1.7,1.7,3.4,3.4,5.1,5.1c5.4,5.4,10.9,10.8,16.3,16.1c0.1,0.1,0.2,0.3,0.4,0.4c-1,0.4-2,0.6-2.9,1c-0.3,0.1-0.5-0.2-0.6-0.3
					c-1.3-1.3-2.6-2.6-4-3.9c-5-4.9-9.9-9.8-14.8-14.7C52.39,54.23,52.29,54.13,51.99,53.93"/>
				<path id="Fill-16_00000021828697069294620800000010386702393407011460_" class="st2" d="M77.99,69.43c-0.8-0.7-1.5-1.4-2.2-2.1
					c-0.2-0.2-0.1-0.5,0-0.7c0.6-1.8,1.2-3.6,1.9-5.4c2.2-6.3,4.4-12.6,6.6-18.9c0.1-0.2,0.2-0.5,0.2-0.7c-0.4-0.1-0.7,0.1-1,0.2
					c-8.2,2.6-16.3,5.1-24.5,7.7c-1.3,0.4-0.9,0.5-1.8-0.4c-0.5-0.5-1-1-1.5-1.5c0.2-0.3,0.6-0.3,0.9-0.4c9.5-3,19-6,28.4-9
					c0.7-0.2,1.1-0.1,1.6,0.4c0.3,0.4,0.8,0.8,1.2,1.2c0.4,0.3,0.4,0.7,0.3,1.1c-1.1,3-2.1,6-3.2,9c-2.2,6.3-4.4,12.6-6.6,18.8
					C78.29,68.83,78.19,69.13,77.99,69.43"/>
				<path id="Fill-18_00000179608812521043809110000007397563575503145873_" class="st2" d="M76.29,75.73c-0.2,1-0.3,1.9-0.4,2.9
					c0,0.4-0.3,0.4-0.6,0.5c-2.2,0.7-4.3,1.4-6.4,2c-6.2,2-12.5,3.9-18.7,5.9c-0.2,0.1-0.5,0.2-0.8,0.3c0.2,0.3,0.5,0.5,0.8,0.6
					c7,4.8,14,9.7,21,14.5c0.6,0.4,1,0.8,0.7,1.6c-0.2,0.7-0.2,1.4-0.4,2.1c-0.3,0-0.5-0.2-0.7-0.3c-8.2-5.6-16.4-11.3-24.6-16.9
					c-0.5-0.4-0.7-0.7-0.6-1.4c0.1-0.6,0.3-1.1,0.3-1.7c0-0.5,0.3-0.7,0.7-0.8c9.7-3.1,19.5-6.1,29.2-9.2
					C75.89,75.83,76.09,75.83,76.29,75.73"/>
				<path id="Fill-20_00000014623414193193742850000018215144583134120864_" class="st2" d="M54.09,14.43c-0.1,1-0.3,2-0.4,2.9
					c0,0.4-0.4,0.4-0.7,0.4c-1.8,0.6-3.7,1.1-5.5,1.7c-6.6,2-13.1,4-19.7,6c-0.2,0.1-0.5,0.1-0.7,0.4c0.3,0.2,0.5,0.4,0.8,0.6
					c7,4.9,13.9,9.9,20.9,14.8c0.5,0.4,0.7,0.7,0.6,1.4c-0.2,0.8-0.3,1.5-0.4,2.3c-0.3-0.1-0.5-0.3-0.8-0.4
					c-8.1-5.7-16.2-11.4-24.3-17.1c-0.6-0.4-0.8-0.8-0.6-1.4c0.1-0.6,0.2-1.1,0.3-1.7c0-0.4,0.2-0.6,0.7-0.8
					c2.3-0.7,4.6-1.4,6.9-2.1c7.4-2.2,14.7-4.5,22.1-6.7C53.49,14.53,53.79,14.53,54.09,14.43"/>
				<path id="Fill-22_00000014599377823789936680000002935014331008250269_" class="st2" d="M84.09,34.83c-0.8,0.3-1.6,0.5-2.4,0.8
					c-0.5,0.2-0.9,0.1-1.3-0.3c-2.7-2.8-5.5-5.5-8.3-8.3c-3.3-3.3-6.6-6.6-10-9.9c-0.2-0.2-0.3-0.5-0.7-0.6c-0.2,1-0.4,2.1-0.5,3.1
					c-0.8,4.7-1.5,9.4-2.3,14c-0.5,3-1,5.9-1.4,8.9c-0.1,0.5-0.2,0.7-0.7,0.8c-0.8,0.2-1.7,0.5-2.5,0.8c-0.1-0.6,0.1-1.1,0.2-1.5
					c1-6.2,2-12.4,3-18.6c0.5-3.3,1.1-6.6,1.6-9.9c0.1-0.4,0.2-0.6,0.6-0.7c0.7-0.2,1.3-0.4,2-0.6c0.5-0.2,0.8-0.1,1.2,0.3
					c2.7,2.7,5.4,5.4,8,8c4.3,4.3,8.7,8.6,13,12.9C83.69,34.23,83.99,34.43,84.09,34.83"/>
				
					<g id="Group_00000067948084546802051610000015500809267776119985_" transform="translate(110.475024, 41.357179) rotate(4.000000) translate(-110.475024, -41.357179) translate(80.975024, 2.857179)">
					<path id="Fill-7_00000085959836098658255240000010202089965274362544_" class="st2" d="M9.36,75.95c-0.5-1.4-0.8-2.7-1-4.1
						c-1-5.2-0.8-10.3,0.9-15.3c2.6-7.8,7.6-13.8,14.7-17.9c3.5-2,7.3-3.5,11.3-4.5c0.3,0.3,0.2,0.7,0.2,1c0.1,0.6,0.2,1.2,0.3,1.8
						c0.1,0.4-0.1,0.6-0.5,0.7c-2.6,0.8-5.2,1.8-7.6,3.1c-6.5,3.4-11.3,8.3-14.1,15.1c-1.9,4.5-2.5,9.2-1.9,14.1
						c0.2,1.3,0.4,2.6,0.7,3.9c0.1,0.4,0.1,0.7-0.4,0.9C11.16,75.05,10.26,75.45,9.36,75.95"/>
					<path id="Fill-9_00000003813906961767702550000015355486442619290001_" class="st2" d="M23.86,84.65c0-1-0.1-1.9-0.1-2.9
						c0-0.4,0.1-0.6,0.6-0.7c2.6-0.6,5.1-1.4,7.4-2.7c8.5-4.5,13.8-11.5,15.5-21c0.7-3.8,0.6-7.6,0-11.4c0-0.2-0.1-0.5-0.1-0.7
						c0-0.4-0.4-0.9-0.1-1.2c0.2-0.3,0.7-0.3,1.1-0.4c0.7-0.2,1.3-0.4,2-0.7c0.4,1.3,0.6,2.7,0.7,4c0.4,2.8,0.5,5.6,0.3,8.5
						c-0.5,6.5-2.8,12.3-6.9,17.4c-4.4,5.4-10.1,8.9-16.7,10.8C26.36,84.15,25.16,84.45,23.86,84.65"/>
					<path id="Fill-11_00000001621337222104315990000015848210386949765020_" class="st2" d="M49.06,25.55c0.3,0,0.4-0.2,0.6-0.3
						c3.9-2.7,7.9-5.2,11.9-7.7c0.2-0.2,0.5-0.3,0.8-0.1c0.9,0.5,1.9,1,2.9,1.5c-0.2,0.2-0.5,0.4-0.7,0.5c-5,3.1-10.1,6.1-15.1,9.2
						c-0.4,0.3-0.7,0.6-1,1c-1.7,3.1-3.5,6.3-5.2,9.4c-0.3,0.6-0.3,0.6-0.9,0.3c-0.6-0.3-1.1-0.6-1.7-0.9c-0.6-0.3-0.6-0.3-0.3-0.8
						c1.1-2,2.2-4,3.3-6c0.7-1.2,1.3-2.4,2-3.6c0.2-0.3,0.3-0.7,0.3-1.1c-0.1-5.8-0.1-11.5-0.1-17.3c0-0.3,0-0.5,0-0.8
						c0.8,0.3,1.5,0.8,2.3,1.1c0.9,0.4,1.1,0.9,1.1,1.9c-0.1,3.7-0.1,7.5-0.1,11.2C49.16,23.85,49.06,24.65,49.06,25.55"/>
					<path id="Fill-24_00000086688104033187150180000011771152319904385209_" class="st2" d="M29.56,51.45c0,1.4-1.5,3.4-2.9,3.7
						c-1,0.3-1.9,0-2.6-0.7c-0.7-0.7-0.9-1.6-0.6-2.5c0.4-1.2,1.1-2.2,2.2-2.8c0.9-0.5,1.8-0.5,2.6,0
						C29.16,49.75,29.66,50.45,29.56,51.45"/>
					<path id="Fill-26_00000058558149392513684180000006185553011507207313_" class="st2" d="M40.16,57.35c0,1.4-1.5,3.4-2.9,3.8
						c-1,0.3-1.8,0-2.6-0.7c-0.7-0.7-0.9-1.5-0.6-2.4c0.4-1.3,1.1-2.3,2.3-2.9C38.06,54.15,40.16,55.45,40.16,57.35"/>
				</g>
				<path id="Fill-20_00000021805328903218485010000003107422974805338272_" class="st2" d="M20.89,29.83c0.9,0.5,1.6,1.1,2.5,1.7
					c0.3,0.2,0.2,0.5,0.1,0.8c-0.3,1.9-0.6,3.8-0.9,5.7c-1.1,6.8-2.2,13.5-3.3,20.3c0,0.2-0.2,0.5,0,0.8c0.3-0.2,0.6-0.3,0.9-0.5
					c7.5-4.1,15-8.2,22.5-12.3c0.6-0.3,1-0.3,1.5,0.1c0.6,0.5,1.2,0.9,1.9,1.4c-0.2,0.3-0.5,0.4-0.7,0.5c-8.7,4.8-17.4,9.5-26,14.3
					c-0.6,0.3-1,0.4-1.5-0.1c-0.4-0.4-0.9-0.7-1.4-1c-0.4-0.2-0.5-0.5-0.4-0.9c0.4-2.4,0.8-4.7,1.1-7.1c1.2-7.6,2.5-15.2,3.7-22.8
					C20.79,30.43,20.79,30.13,20.89,29.83"/>
			</g>
		</g>
	</g>
</g>
<g>
	<g>
		<g>
			<g>
				<g>
					<path class="st3" d="M493.37,110.91c-0.19-0.28-0.37-0.56-0.84-0.56h-0.47c-0.47,0-0.75,0.28-0.84,0.56l-15.84,34.37
						c-0.28,0.65,0.09,1.3,0.84,1.3h4.47c0.84,0,1.3-0.47,1.49-1.02l2.52-5.5h15.28l2.52,5.5c0.37,0.75,0.75,1.02,1.49,1.02h4.47
						c0.75,0,1.21-0.65,0.84-1.3L493.37,110.91z M487.04,134.38l5.03-11.18h0.19l5.12,11.18H487.04z"/>
				</g>
				<g>
					<path class="st3" d="M541.91,110.91h-4.66c-0.56,0-0.93,0.47-0.93,0.93v21.05h-0.09l-21.24-22.54h-1.3
						c-0.47,0-0.93,0.37-0.93,0.93v34.28c0,0.47,0.47,0.93,0.93,0.93h4.66c0.56,0,0.93-0.47,0.93-0.93v-21.89h0.09l21.33,23.38h1.21
						c0.47,0,0.93-0.37,0.93-0.93v-34.28C542.93,111.37,542.47,110.91,541.91,110.91z"/>
				</g>
				<g>
					<path class="st3" d="M564.82,110.91c-0.19-0.28-0.37-0.56-0.84-0.56h-0.47c-0.47,0-0.75,0.28-0.84,0.56l-15.84,34.37
						c-0.28,0.65,0.09,1.3,0.84,1.3h4.47c0.84,0,1.3-0.47,1.49-1.02l2.52-5.5h15.28l2.52,5.5c0.37,0.75,0.75,1.02,1.49,1.02h4.47
						c0.75,0,1.21-0.65,0.84-1.3L564.82,110.91z M558.49,134.38l5.03-11.18h0.19l5.12,11.18H558.49z"/>
				</g>
				<g>
					<path class="st3" d="M608.42,137.45c-0.28-0.28-0.84-0.37-1.3,0c-2.14,1.77-4.75,2.89-7.82,2.89c-6.52,0-11.46-5.4-11.46-11.74
						c0-6.43,4.84-11.92,11.36-11.92c2.89,0,5.68,1.12,7.82,2.98c0.37,0.37,0.93,0.37,1.3,0l3.07-3.17c0.37-0.37,0.37-1.02-0.09-1.4
						c-3.45-3.07-7.17-4.75-12.3-4.75c-10.15,0-18.44,8.2-18.44,18.44c0,10.15,8.2,18.26,18.44,18.26c4.56,0,8.94-1.58,12.39-4.94
						c0.37-0.37,0.47-1.02,0.09-1.4L608.42,137.45z"/>
				</g>
				<g>
					<path class="st3" d="M632.54,110.35c-10.15,0-18.26,8.2-18.26,18.44c0,10.15,8.1,18.26,18.26,18.26
						c10.15,0,18.35-8.1,18.35-18.26C650.89,118.54,642.7,110.35,632.54,110.35z M632.54,140.44c-6.43,0-11.64-5.22-11.64-11.64
						c0-6.43,5.22-11.74,11.64-11.74s11.74,5.31,11.74,11.74C644.19,135.22,638.97,140.44,632.54,140.44z"/>
				</g>
				<g>
					<path class="st3" d="M685.64,110.91h-4.66c-0.56,0-0.93,0.47-0.93,0.93v21.05h-0.09l-21.24-22.54h-1.3
						c-0.47,0-0.93,0.37-0.93,0.93v34.28c0,0.47,0.47,0.93,0.93,0.93h4.66c0.56,0,0.93-0.47,0.93-0.93v-21.89h0.09l21.33,23.38h1.21
						c0.47,0,0.93-0.37,0.93-0.93v-34.28C686.57,111.37,686.1,110.91,685.64,110.91z"/>
				</g>
				<g>
					<path class="st3" d="M706.04,110.91h-12.11c-0.47,0-0.93,0.47-0.93,0.93v33.72c0,0.47,0.37,0.93,0.93,0.93h12.11
						c9.87,0,17.89-8.01,17.89-17.89C723.92,118.92,715.91,110.91,706.04,110.91z M705.48,140.34h-5.87v-23.29h5.78
						c6.61,0,11.46,5.03,11.46,11.64C716.94,135.31,712.09,140.34,705.48,140.34z"/>
				</g>
				<g>
					<path class="st3" d="M758.02,145.37l-15.74-34.28c-0.19-0.28-0.37-0.56-0.84-0.56h-0.47c-0.47,0-0.75,0.28-0.84,0.56
						l-15.84,34.28c-0.28,0.65,0.09,1.3,0.84,1.3h4.47c0.84,0,1.3-0.47,1.49-1.02l2.52-5.5h15.28l2.52,5.5
						c0.37,0.75,0.75,1.02,1.49,1.02h4.47C757.92,146.58,758.3,146.02,758.02,145.37z M736.03,134.38l5.03-11.18h0.19l5.12,11.18
						H736.03z"/>
				</g>
				<g>
					<g>
						<path class="st3" d="M764.35,146.02h0.28c0.09,0,0.19-0.09,0.19-0.19v-0.93h0.56l0.37,1.02c0,0.09,0.09,0.09,0.19,0.09h0.37
							c0.09,0,0.19-0.09,0.19-0.19c-0.19-0.28-0.28-0.65-0.47-0.93c0.28-0.09,0.65-0.37,0.65-0.93c0-0.65-0.47-1.02-1.02-1.02h-1.21
							c-0.09,0-0.19,0.09-0.19,0.19v2.7C764.26,146.02,764.26,146.02,764.35,146.02z M764.82,143.51h0.75
							c0.28,0,0.37,0.19,0.37,0.37s-0.19,0.37-0.37,0.37h-0.75V143.51z"/>
					</g>
					<g>
						<path class="st3" d="M765.28,147.51c1.68,0,2.98-1.3,2.98-2.98c0-1.68-1.4-2.98-2.98-2.98c-1.68,0-2.98,1.4-2.98,2.98
							S763.61,147.51,765.28,147.51z M765.28,142.02c1.3,0,2.42,1.12,2.42,2.42c0,1.3-1.12,2.42-2.42,2.42
							c-1.3,0-2.42-1.12-2.42-2.42C762.86,143.14,763.98,142.02,765.28,142.02z"/>
					</g>
				</g>
			</g>
		</g>
	</g>
</g>
<g>
	<path d="M404.32,111.62h3.37v12.1c0,1.14-0.1,2.03-0.1,2.03h0.1c0,0,2.08-4.81,8.48-4.81c6.69,0,10.86,5.36,10.86,13.09
		c0,7.88-4.71,13.04-11.26,13.04c-5.95,0-8.18-4.86-8.18-4.86h-0.1c0,0,0.1,0.84,0.1,2.03v2.23h-3.27V111.62z M415.53,144.1
		c4.41,0,8.03-3.72,8.03-10.07c0-6.1-3.22-10.02-7.88-10.02c-4.17,0-8.08,2.98-8.08,10.07C407.6,139.09,410.18,144.1,415.53,144.1z"
		/>
	<path d="M431.11,152.73c0,0,1.39,1.14,2.98,1.14c2.18,0,3.72-1.79,4.71-4.07l1.54-3.52l-10.41-24.75h3.72l7.34,18.2
		c0.5,1.24,0.89,2.63,0.89,2.63h0.1c0,0,0.35-1.39,0.84-2.63l7.19-18.2h3.67l-12.3,30.15c-1.29,3.17-3.87,5.21-7.19,5.21
		c-2.58,0-4.36-1.49-4.36-1.49L431.11,152.73z"/>
</g>
</svg>
