<svg width="128" height="128" viewBox="0 0 128 128" fill="none" xmlns="http://www.w3.org/2000/svg">
<path d="M81.5038 9.46489C82.4768 10.6719 82.9728 12.3009 83.9608 15.5549L105.617 86.6909C97.4828 82.4693 88.7524 79.5136 79.7268 77.9259L65.6288 30.2799C65.5175 29.899 65.2856 29.5645 64.9679 29.3267C64.6503 29.0889 64.2641 28.9606 63.8673 28.961C63.4705 28.9615 63.0845 29.0907 62.7674 29.3292C62.4503 29.5678 62.2192 29.9028 62.1088 30.2839L48.1798 77.9019C39.1147 79.4829 30.3453 82.4433 22.1768 86.6799L43.9348 15.5399C44.9308 12.2899 45.4268 10.6639 46.3988 9.45689C47.2579 8.39444 48.3742 7.56903 49.6418 7.05889C51.0748 6.48389 52.7778 6.48389 56.1768 6.48389H71.7198C75.1218 6.48389 76.8248 6.48389 78.2628 7.06289C79.5312 7.57293 80.6464 8.39998 81.5038 9.46489ZM84.0938 90.0749C80.5238 93.1289 73.3978 95.2109 65.1908 95.2109C55.1208 95.2109 46.6758 92.0739 44.4368 87.8549C43.6368 90.2729 43.4568 93.0389 43.4568 94.8089C43.4568 94.8089 42.9298 103.484 48.9648 109.519C48.9648 108.774 49.1115 108.037 49.3965 107.348C49.6816 106.66 50.0994 106.035 50.6261 105.509C51.1528 104.982 51.7781 104.564 52.4663 104.279C53.1544 103.994 53.8919 103.848 54.6368 103.848C60.0068 103.848 60.0038 108.531 59.9998 112.336V112.672C59.9998 118.445 63.5268 123.391 68.5428 125.477C67.7697 123.889 67.3689 122.145 67.3708 120.379C67.3708 114.871 70.6008 112.824 74.3588 110.441C77.3478 108.547 80.6678 106.441 82.9528 102.219C84.186 99.9439 84.8306 97.3966 84.8278 94.8089C84.8292 93.2021 84.5816 91.6058 84.0938 90.0749Z" fill="black"/>
</svg>
