<svg width="128" height="128" viewBox="0 0 128 128" fill="none" xmlns="http://www.w3.org/2000/svg">
<path d="M95.6722 112.555L78.2422 95.2148L77.9963 95.2578V95.0738L40.9303 58.4178L50.0823 49.5978L44.6993 18.7578L19.2303 50.3548C14.9063 54.7228 14.0743 61.8628 17.2073 67.1048L33.1253 93.5268C35.5593 97.5778 39.3833 100.184 44.7233 99.9918C56.0273 99.5898 60.9963 99.5898 60.9963 99.5898L95.6643 112.547L95.6722 112.559V112.555Z" fill="#18B6F6"/>
<path d="M104.285 63.9602C106.793 58.7852 107.691 54.2582 105.215 49.7072L101.691 43.2232L99.8626 39.8952L99.1526 38.5982L99.0856 38.6722L89.4996 22.0432C88.3131 19.9778 86.5974 18.266 84.5293 17.0843C82.4612 15.9026 80.1154 15.2936 77.7336 15.3202L69.3276 15.5592L44.2336 15.6252C41.905 15.6406 39.6203 16.2599 37.6027 17.4225C35.5851 18.5851 33.9036 20.2513 32.7226 22.2582L17.4766 52.5392L44.7616 18.5942L80.5546 57.9542L74.1476 64.4452L77.9726 95.2382L78.0266 95.1682V95.2582H77.9726L78.0466 95.3322L81.0306 98.2382L95.4696 112.34C96.0746 112.926 97.0596 112.223 96.6566 111.5L87.7296 93.9382" fill="#AC7EF4"/>
<path d="M80.6397 57.8553L44.7537 18.6953L49.8517 49.3593L40.7188 58.2233L77.9057 95.1803L74.5547 64.5003L80.6407 57.8673L80.6397 57.8553Z" fill="white"/>
</svg>
