<svg xmlns="http://www.w3.org/2000/svg" width="301.325" height="65.593"><g fill="#ffffff" transform="translate(247.371 -261.615)"><path d="M4.823 281.526h13.334v44.437H4.823z"/><path d="M-220.39 327.208c8.71 0 16.265-4.533 20.087-11.466l-11.643-6.666c-1.422 3.111-4.71 4.978-8.622 4.978-5.777 0-10.043-4.178-10.043-10.31 0-6.133 4.266-10.31 10.043-10.31 3.911 0 7.11 1.866 8.622 4.977l11.643-6.755c-3.822-6.844-11.466-11.376-20.087-11.376-13.51 0-23.553 10.22-23.553 23.464 0 13.243 10.044 23.464 23.553 23.464zM-174.561 327.208c13.065 0 23.553-10.221 23.553-23.464 0-13.243-10.488-23.464-23.553-23.464-13.066 0-23.553 10.22-23.553 23.464 0 13.243 10.487 23.464 23.553 23.464zm0-12.976c-5.778 0-10.221-4.178-10.221-10.488s4.443-10.488 10.22-10.488c5.778 0 10.222 4.177 10.222 10.488 0 6.31-4.444 10.488-10.221 10.488zM-94.98 280.28c-6.311 0-10.4 2.31-12.888 5.866-2.489-3.733-6.4-5.866-11.643-5.866-5.955 0-9.866 2.31-11.91 5.332v-4.088h-13.332v44.44h13.332V300.9c0-5.244 2.488-8.355 6.932-8.355 4.267 0 6.4 2.844 6.4 7.288v26.13h13.332V300.9c0-5.244 2.488-8.355 6.932-8.355 4.266 0 6.4 2.844 6.4 7.288v26.13h13.331v-27.285c0-11.11-6.666-18.398-16.887-18.398zM-20.192 280.28c-6.31 0-10.399 2.31-12.888 5.866-2.488-3.733-6.399-5.866-11.643-5.866-5.955 0-9.865 2.31-11.91 5.332v-4.088h-13.332v44.44h13.332V300.9c0-5.244 2.489-8.355 6.933-8.355 4.266 0 6.4 2.844 6.4 7.288v26.13h13.331V300.9c0-5.244 2.489-8.355 6.933-8.355 4.266 0 6.4 2.844 6.4 7.288v26.13h13.331v-27.285c0-11.11-6.666-18.398-16.887-18.398zM53.953 294.323v-12.8H44.8v-12.442l-13.332 4v8.443h-7.11v12.799h7.11v15.731c0 12.443 5.066 17.687 22.486 15.91v-12.088c-5.866.356-9.154 0-9.154-3.822v-15.731h9.154z" /><circle cx="11.543" cy="269.629" r="7.987" fill="#fe3600"/></g></svg>
