<svg class="logo" viewBox="0 0 896 422" fill="none" xmlns="http://www.w3.org/2000/svg"><g clip-path="url(#clip0_1_5)"><path fill-rule="evenodd" clip-rule="evenodd" d="M30.4662 171.419H46.5955C51.3744 171.419 55.5562 170.229 59.7379 168.443C63.9192 166.657 66.9061 164.276 69.893 160.705C72.8799 157.729 74.6724 154.158 76.4644 149.991C78.2565 145.825 78.8537 141.659 78.8537 137.492C78.8537 133.326 78.2565 129.159 76.4644 124.993C74.6724 120.826 72.2827 117.255 69.893 114.279C66.9061 111.303 63.322 108.327 59.7379 106.542C55.5562 104.756 51.3744 103.566 46.5955 103.566H3.58411V201.179H30.4662V171.419ZM30.4662 126.778H44.2058C45.9979 126.778 47.7903 127.374 48.9848 129.159C50.7772 130.35 51.3744 133.326 51.3744 137.492C51.3744 141.659 50.7772 144.039 48.9848 145.825C47.7903 147.611 45.9979 148.206 44.2058 148.206H29.8689V126.778H30.4662Z" fill="currentColor"></path><path d="M95.5806 187.489C99.1647 191.656 103.944 195.227 109.32 198.203C114.696 200.584 121.865 202.369 129.631 202.369C137.397 202.369 143.968 201.179 149.345 198.798C154.721 196.418 159.5 192.846 163.084 188.68C166.668 184.513 169.655 179.157 171.447 173.205C173.24 167.253 173.837 160.705 173.837 154.158V103.566H146.955V153.563C146.955 156.539 146.358 160.11 145.76 162.491C145.163 165.467 143.968 167.848 142.773 170.229C141.578 172.609 139.786 174.395 137.397 175.585C135.007 176.776 132.618 177.371 129.631 177.371C126.644 177.371 123.657 176.776 121.865 175.585C119.476 174.395 117.683 172.609 116.489 170.229C115.294 167.848 114.099 165.467 113.502 162.491C112.904 159.515 112.307 156.539 112.307 152.967V103.566H85.425V153.563C85.425 160.11 86.0223 166.062 87.8143 172.014C89.0092 177.966 91.9961 183.323 95.5806 187.489Z" fill="currentColor"></path><path d="M213.264 103.566H186.382V201.179H257.47V177.966H213.264V103.566Z" fill="currentColor"></path><path fill-rule="evenodd" clip-rule="evenodd" d="M330.351 114.279C327.364 111.303 323.779 108.327 320.195 106.542C316.013 104.756 311.832 103.566 307.053 103.566H264.639V201.179H291.521V171.419H307.65C312.429 171.419 316.611 170.229 320.792 168.443C324.974 166.657 327.961 164.276 330.948 160.705C333.935 157.729 335.727 154.158 337.519 149.991C339.311 145.825 339.908 141.659 339.908 137.492C339.908 133.326 339.311 129.159 337.519 124.993C335.129 120.826 333.337 117.255 330.351 114.279ZM310.039 145.825C308.845 147.611 307.053 148.206 305.26 148.206H290.923V127.374H304.663C306.455 127.374 308.247 127.969 309.442 129.755C311.234 130.945 311.832 133.921 311.832 138.087C312.429 141.063 311.234 144.039 310.039 145.825Z" fill="currentColor"></path><path fill-rule="evenodd" clip-rule="evenodd" d="M437.879 134.516C436.087 129.159 433.1 124.993 429.515 120.826L439.671 110.113L430.71 101.78L419.957 112.494C417.568 110.708 414.581 108.922 411.594 107.732C405.62 104.756 399.049 103.566 391.283 103.566C384.115 103.566 377.543 104.756 370.972 107.732C364.998 110.708 359.622 114.279 354.843 118.446C350.661 123.207 347.077 127.969 344.687 133.921C342.298 139.873 341.103 145.825 341.103 152.372C341.103 158.92 342.298 164.872 344.687 170.824C346.48 175.585 348.869 179.752 351.856 183.323L343.493 192.251L352.453 200.584L360.817 192.251C363.803 194.632 366.79 196.418 370.375 198.203C376.349 201.179 382.92 202.369 390.686 202.369C397.854 202.369 404.425 201.179 410.997 198.203C416.97 195.227 422.347 191.656 426.528 187.489C430.71 182.728 434.294 177.966 436.684 172.014C439.073 166.062 440.268 160.11 440.268 153.563C441.463 146.42 440.268 140.468 437.879 134.516ZM370.972 161.896C369.777 158.92 369.777 155.348 369.777 152.372C369.777 149.396 370.375 145.825 370.972 142.849C371.569 139.873 373.362 136.897 375.154 134.516C376.946 132.135 379.336 130.35 382.322 128.564C385.309 127.374 388.296 126.183 392.478 126.183C396.062 126.183 399.646 126.779 402.633 128.564C403.231 129.159 403.828 129.159 404.425 129.755L372.167 163.681C370.972 163.086 370.972 162.491 370.972 161.896ZM412.789 161.896C412.191 164.872 410.399 167.848 408.607 170.229C406.815 172.609 404.425 174.395 401.438 176.181C398.451 177.966 395.464 178.561 391.283 178.561C387.101 178.561 384.115 177.966 381.128 176.181C379.933 175.585 378.738 174.99 378.141 174.395L410.997 139.873C411.594 141.063 411.594 141.659 412.191 142.849C413.386 145.825 413.386 149.396 413.386 152.372C414.581 155.348 413.983 158.92 412.789 161.896Z" fill="currentColor"></path><path d="M19.1158 260.7C19.7134 258.914 20.9083 256.533 22.1027 255.343C23.2976 253.557 25.0896 252.367 26.882 251.176C28.6741 249.986 31.0634 249.986 33.4531 249.986C34.6479 249.986 35.8427 249.986 37.6348 250.581C38.8296 250.581 40.0241 251.176 41.2189 251.772C42.4138 252.367 43.6086 253.557 44.8034 254.152C45.9979 255.343 46.5955 256.533 47.1927 258.319L61.53 248.796C59.1403 244.629 55.5562 240.463 51.3744 238.082C46.5955 235.106 41.2189 233.916 34.6479 233.916C29.2713 233.916 24.4924 234.511 20.3107 236.296C16.1289 238.082 12.5448 240.463 9.55792 243.439C6.57102 246.415 4.18136 249.986 2.3893 254.152C0.597233 258.319 0 261.89 0 266.056C0 270.223 0.597233 274.389 2.3893 278.556C4.18136 282.722 5.97379 286.293 8.96068 289.865C11.9476 293.436 15.5317 295.817 19.7134 298.198C23.8952 299.983 28.0765 301.174 33.4531 301.174C36.44 301.174 39.4269 301.174 42.4138 300.578C45.4007 299.983 48.3875 298.793 50.7772 297.602C53.1665 296.412 55.5562 294.626 57.9455 292.841C59.7379 291.055 61.53 288.674 62.7248 286.293L47.7903 276.77C47.1927 278.556 46.5955 279.746 45.4007 280.341C44.2058 281.532 43.011 282.127 41.8165 282.722C40.6217 283.317 39.4269 283.913 38.232 283.913C37.0372 283.913 35.8427 284.508 34.6479 284.508C32.2582 284.508 29.8689 283.913 28.0765 282.722C26.2845 281.532 24.4924 280.341 23.2976 278.556C22.1027 276.77 20.9083 274.984 20.3107 272.604C19.7134 270.223 19.1158 268.437 19.7134 266.056C18.5186 264.866 18.5186 263.08 19.1158 260.7Z" fill="currentColor"></path><path fill-rule="evenodd" clip-rule="evenodd" d="M121.268 246.415L127.242 239.272L120.073 233.916L114.696 241.058C113.502 240.463 112.307 239.272 111.112 238.677C106.931 236.892 102.152 235.701 97.3726 235.701C92.5937 235.701 87.8144 236.296 83.633 238.082C79.4513 239.868 75.8668 242.248 72.8799 245.224C69.893 248.2 67.5037 251.772 65.7116 255.938C63.9192 260.104 62.7247 264.271 62.7247 268.437C62.7247 272.604 63.322 276.77 65.114 280.936C66.9061 285.103 68.6985 288.674 71.6854 291.65C72.2827 292.245 72.8799 292.841 73.4775 293.436L69.2958 298.793L76.4644 304.15L81.2433 298.198C81.8406 298.198 82.4382 298.793 83.0354 298.793C87.2171 300.578 91.9961 301.769 96.775 301.769C101.554 301.769 106.333 301.174 110.515 299.388C114.696 297.602 118.281 295.222 121.268 292.246C124.255 289.269 126.644 285.698 128.436 281.532C130.228 277.365 131.423 273.199 131.423 269.032C131.423 264.866 130.826 260.7 129.034 256.533C126.047 252.962 124.255 249.391 121.268 246.415ZM81.2433 274.984C80.6461 272.604 80.6461 270.818 80.6461 268.437C80.6461 266.056 81.2433 264.271 81.8406 261.89C82.4382 259.509 83.633 257.724 84.8275 256.533C86.0223 254.748 87.8144 253.557 89.6068 252.367C91.3989 251.176 93.7881 251.176 96.1778 251.176C98.5675 251.176 100.957 251.772 102.749 252.962C103.346 252.962 103.346 253.557 103.944 253.557L83.0354 279.746C82.4382 277.96 81.8406 276.77 81.2433 274.984ZM111.112 269.032C111.112 271.413 110.515 273.199 109.917 275.58C109.32 277.96 108.125 279.746 106.931 280.936C105.736 282.722 103.944 283.912 102.152 285.103C100.36 286.293 97.9699 286.293 94.983 286.293C93.1909 286.293 91.3989 285.698 89.6068 285.103L109.32 260.104C109.32 260.7 109.917 261.295 109.917 261.89C111.112 264.271 111.112 266.652 111.112 269.032Z" fill="currentColor"></path><path d="M176.824 271.413L151.137 236.892L136.8 236.296L135.007 302.959L153.526 303.554L154.124 270.818L179.811 304.15H194.745L195.94 237.487H178.019L176.824 271.413Z" fill="currentColor"></path><path d="M720.439 276.77C702.518 280.936 683.999 269.628 679.817 251.176C675.635 232.725 686.986 214.869 705.504 210.702C706.102 210.702 706.102 210.702 706.699 210.702C705.504 214.273 704.907 218.44 706.102 223.202C708.491 234.511 719.842 241.653 731.789 239.272C737.165 238.082 741.347 235.106 744.334 230.939C744.931 232.725 745.529 234.511 746.126 236.892C750.308 254.152 738.957 272.604 720.439 276.77Z" fill="currentColor"></path><path d="M880.537 61.306L879.939 60.7108C873.965 54.7587 866.797 49.4019 860.226 44.6403C858.433 43.4499 856.642 42.2596 854.849 41.0691C854.252 40.4738 853.057 39.8786 852.459 39.2835L849.473 37.4978C848.278 36.9026 847.681 36.3075 846.486 35.7123L845.291 35.117C844.694 35.117 844.096 34.5218 844.096 34.5218L841.109 32.7363L839.915 32.141L838.72 31.5458C836.33 30.3555 833.344 29.165 830.954 27.3794V26.7842C830.954 11.9041 819.006 0 804.072 0C794.514 0 786.151 4.76156 781.371 11.9041C780.774 11.9041 780.177 11.9041 779.579 11.9041C777.787 11.3089 775.397 11.3089 773.606 10.7136L770.619 10.1184C769.424 10.1184 768.826 10.1184 767.632 9.52331C759.268 8.92807 751.503 8.33283 743.139 8.33283C734.776 8.33283 727.01 8.92807 719.244 10.1184C711.478 11.3089 703.712 12.4993 695.946 14.2849C688.18 16.0704 680.414 18.4514 673.246 20.8322C666.675 23.2129 660.104 25.5937 654.13 28.5697C649.948 24.9985 644.572 22.6177 638.598 22.6177C626.053 22.6177 615.898 32.7363 615.898 45.2356C615.898 47.0211 615.898 48.2116 616.495 49.9971C615.3 51.1876 613.508 51.7827 612.313 52.9732C599.768 61.9012 588.418 72.0198 578.263 83.3286C568.107 94.0423 558.549 106.542 550.186 119.041C547.199 123.802 544.212 129.159 541.225 134.516C539.433 133.921 537.641 133.921 536.446 133.921C523.304 133.921 512.551 144.635 512.551 157.729C512.551 166.062 516.733 173.205 523.304 177.371C520.914 185.704 518.525 194.632 517.33 202.965C516.135 210.702 514.94 217.845 514.343 225.583V226.773V227.963V230.939C514.343 232.13 514.343 232.725 514.343 233.916V236.892V239.868C514.343 241.058 514.343 241.653 514.343 242.844C514.343 244.629 514.343 246.415 514.343 248.796C514.343 255.938 515.538 262.485 516.135 269.628C508.369 271.413 502.396 278.556 502.396 286.888C502.396 297.007 510.759 304.745 520.317 304.745C521.512 304.745 522.707 304.745 523.901 304.15C525.096 308.316 526.888 311.887 528.083 315.458C531.07 322.601 534.654 329.743 538.238 336.29C542.42 342.838 546.602 349.385 551.381 355.932C553.173 358.313 554.965 360.099 556.757 362.48C553.77 365.456 551.978 369.622 551.978 374.384C551.978 384.502 560.341 392.24 569.899 392.24C574.678 392.24 579.458 390.454 582.444 386.883C583.639 387.478 584.237 388.073 585.431 388.669C589.015 391.049 592.6 393.43 596.184 395.216C599.768 397.001 603.353 399.382 607.534 401.168C608.729 401.763 609.326 401.763 610.521 402.358L613.508 403.549L616.495 404.739C617.69 405.334 618.287 405.334 619.482 405.929C623.663 407.12 627.248 408.31 631.429 409.501C632.027 409.501 632.624 409.501 633.222 410.096C635.014 416.643 640.987 422 648.156 422C654.13 422 658.909 419.024 661.896 414.262C667.87 414.262 673.843 414.262 679.22 413.667C683.401 413.072 686.986 413.072 691.167 411.881C694.752 411.286 698.933 410.691 702.517 409.501C707.296 408.31 712.075 407.12 716.257 405.334C719.244 408.905 723.426 411.286 728.802 411.286C737.763 411.286 744.334 404.144 744.334 395.811C744.334 394.621 744.334 393.43 743.737 392.835C744.334 392.835 744.334 392.24 744.931 392.24C758.074 384.502 770.021 374.979 780.774 364.265C781.371 363.67 781.371 363.67 781.969 363.075C784.358 364.861 787.345 366.051 790.93 366.051C799.891 366.051 806.462 358.908 806.462 350.575C806.462 345.814 804.669 341.647 801.085 338.671C803.475 335.1 805.266 332.124 807.059 328.553C808.851 324.982 810.643 322.006 811.838 318.434C813.63 314.863 814.825 311.292 816.019 307.721C816.617 307.721 816.617 307.721 817.214 307.721C824.98 307.721 830.954 301.769 830.954 294.031C830.954 288.674 827.967 283.912 823.188 281.532V280.936L823.786 277.96C823.786 276.77 823.786 276.175 824.383 274.984C824.98 271.413 825.577 267.247 825.577 263.676C826.175 258.319 826.175 252.367 825.577 246.415C827.967 244.034 829.759 240.463 829.759 236.892C829.759 231.535 826.773 227.368 823.188 224.987C820.799 215.464 817.812 205.941 813.63 196.418C811.838 192.846 810.046 189.87 808.253 186.299C810.046 183.918 811.24 180.942 811.24 177.966C811.24 170.229 805.266 164.277 797.501 164.277C795.708 164.277 793.917 164.872 792.124 165.467C790.332 163.681 788.54 161.896 786.748 160.11L785.553 158.92L784.956 158.324L782.566 156.539L781.969 155.943L781.371 155.348L780.177 154.158L778.982 152.967C778.384 152.372 778.384 152.372 777.787 151.777C775.995 150.587 774.203 149.396 772.411 148.206C771.216 147.611 770.619 147.015 769.424 146.42L767.632 145.23C766.437 138.683 761.061 133.326 753.892 133.326C750.308 133.326 746.724 134.516 744.334 136.897C743.737 136.897 743.737 136.897 743.139 136.897C742.542 136.897 741.944 136.897 741.347 136.897H739.555H737.763H737.165H736.568L733.581 136.302H732.984H732.386H730.594C726.413 135.707 722.231 136.302 718.647 136.302C715.062 136.302 710.881 136.897 707.296 137.492C705.504 132.135 700.128 128.564 694.154 128.564C686.388 128.564 680.414 134.516 680.414 142.254C680.414 143.444 680.414 144.635 681.012 145.825C678.622 147.015 676.83 148.206 674.441 149.396C674.441 149.396 673.843 149.396 673.843 149.991L673.246 150.587L672.051 151.182C671.454 151.777 670.259 152.372 669.662 152.372L667.272 154.158C666.675 154.753 665.48 155.348 664.883 155.943C663.091 157.134 661.896 158.324 660.104 159.515L657.714 161.3C657.117 161.896 656.519 162.491 655.324 163.086C652.935 165.467 650.545 167.253 648.156 169.633C646.364 167.848 643.377 166.657 640.39 166.657C633.819 166.657 628.442 172.014 628.442 178.561C628.442 182.728 630.235 185.704 633.222 188.085C630.832 191.656 629.04 195.227 627.248 198.798L626.65 199.989C626.65 200.584 626.053 200.584 626.053 201.179L624.858 203.56V204.155V204.75L624.261 205.941C623.663 206.536 623.663 207.726 623.066 208.321C621.871 211.893 620.676 215.464 620.079 219.035L619.482 220.226C619.482 220.821 619.482 221.416 619.482 221.416V223.202C612.911 223.202 607.534 228.559 607.534 235.106C607.534 241.058 612.313 245.82 617.69 247.01V247.605C617.69 248.2 617.69 248.796 617.69 248.796V249.986L618.287 252.962L618.884 255.938V257.128C618.884 257.724 618.884 258.319 618.884 258.319L619.482 261.295C619.482 262.485 620.079 263.08 620.079 264.271C620.676 266.056 621.274 267.842 621.871 269.628C621.871 270.223 622.469 270.818 622.469 270.818L623.066 272.008L623.663 273.199C620.079 274.984 617.69 279.151 617.69 283.317C617.69 289.865 623.066 295.221 629.637 295.221C632.027 295.221 633.819 294.626 635.611 293.436L636.209 294.031L638.001 296.412C638.598 297.007 639.195 297.602 639.793 298.793L640.988 299.983C641.585 300.578 641.585 300.578 642.182 301.174L643.974 302.959C644.572 303.554 644.572 303.554 645.169 304.15C643.974 305.935 642.78 308.316 642.78 311.292C642.78 317.839 648.156 323.196 654.727 323.196C658.909 323.196 663.091 320.815 664.883 317.244L665.48 317.839C666.077 317.839 666.077 318.434 666.675 318.434L667.87 319.03C669.662 319.625 671.454 320.22 673.246 320.815H673.843C674.441 326.767 679.817 330.934 685.791 330.934C690.57 330.934 694.154 328.553 696.544 324.982H698.933H701.92H703.115H704.31H707.296C714.465 324.386 719.842 319.03 719.842 311.292C719.842 304.15 713.868 298.198 706.102 298.198H705.504C695.349 298.198 685.193 295.817 676.233 291.055C675.635 291.055 675.038 290.46 674.441 289.865L673.843 289.269H673.246C673.246 289.269 673.246 289.269 672.649 289.269L671.454 288.079H670.856C670.856 288.079 670.856 288.079 670.259 288.079L669.662 287.484L669.064 286.888H668.467C668.467 286.888 668.467 286.889 667.87 286.293L666.675 285.103H666.077C666.077 285.103 666.077 285.103 665.48 284.508L664.883 283.912L664.285 283.317L663.688 282.722L662.493 281.532L661.896 280.936L661.298 280.341L660.104 279.151L658.909 277.96L658.311 277.365L657.714 276.77L656.519 274.984C655.922 274.389 655.922 273.794 655.922 273.199C655.922 272.604 655.324 272.008 655.324 271.413C652.935 267.247 651.74 262.485 650.545 257.724C650.545 257.128 650.545 256.533 649.948 255.938V254.152C649.948 253.557 649.948 253.557 649.948 252.962V251.772V249.986C649.948 247.605 649.948 245.224 649.948 242.844V241.653V241.058V240.463V238.677C649.948 238.082 649.948 237.487 649.948 236.892C649.948 236.296 649.948 235.701 649.948 235.106L650.545 233.32V232.13V230.939L651.143 229.154C651.143 228.559 651.143 228.559 651.143 227.963V227.368C651.74 224.987 652.935 222.606 653.532 220.226C653.532 219.63 654.13 219.035 654.13 218.44L654.727 217.845C654.727 217.845 654.727 217.845 654.727 217.249V216.654L655.324 214.869C655.324 214.869 655.324 214.273 655.922 214.273L656.519 213.678C658.909 209.512 661.896 205.345 664.883 201.179C668.467 197.608 672.051 194.037 675.635 191.061C676.233 190.465 676.83 190.465 676.83 189.87L678.622 188.68C679.817 188.085 680.414 187.489 681.609 186.894C682.206 186.299 682.804 186.299 683.401 185.704L685.193 184.513C685.791 184.513 686.388 183.918 686.986 183.918L687.583 183.323H688.18C688.18 183.323 688.18 183.323 688.778 183.323C692.96 181.537 697.739 179.752 702.517 178.561C707.296 177.371 712.075 176.776 716.257 176.776C718.647 176.776 721.036 176.776 722.828 177.371H723.426C723.426 177.371 723.426 177.371 724.023 177.371H724.621L726.413 177.966H727.01C727.01 177.966 727.01 177.966 727.607 177.966H728.205H728.802H729.4C730.594 178.561 731.789 178.561 732.386 179.157C732.984 179.157 733.581 179.752 734.178 179.752C734.776 179.752 735.373 180.347 735.373 180.347C735.373 180.347 735.971 180.347 735.971 180.942L736.568 181.537L737.763 182.133C738.36 182.133 738.957 182.728 738.957 182.728L739.555 183.323C739.555 183.323 740.152 183.323 740.152 183.918C740.75 183.918 740.75 184.513 741.347 184.513C741.944 184.513 741.944 185.109 742.542 185.704C743.139 186.299 744.334 186.894 744.931 187.489L745.529 188.085L746.126 188.68L746.724 189.275C747.321 189.87 747.321 189.87 747.918 190.465L748.516 191.061C752.1 194.632 754.49 198.203 757.476 202.369C758.671 204.155 759.866 206.536 761.061 208.917C762.255 211.297 762.853 213.083 764.047 215.464C767.632 224.392 769.424 233.916 770.021 244.034C770.021 248.796 770.021 254.152 769.424 258.914C768.826 261.295 768.826 263.676 768.229 266.056C768.229 266.652 768.229 267.247 767.632 267.842L767.034 269.628L766.437 271.413C766.437 272.008 765.839 272.604 765.839 273.199C765.242 275.58 764.645 277.96 763.45 280.341C762.853 282.722 761.658 285.103 760.463 287.484C759.268 289.865 758.074 292.245 756.879 294.031C755.684 296.412 754.49 298.198 753.295 300.578C747.918 308.911 741.347 316.649 734.178 323.791C727.01 330.338 718.647 336.29 709.686 340.457C700.725 344.623 691.765 348.194 682.206 349.98C672.648 351.766 663.688 351.766 654.727 350.575C652.337 349.98 650.545 349.98 648.156 349.385C645.766 348.79 643.974 348.194 641.585 347.599C639.793 347.004 637.403 346.409 635.611 345.218C635.014 345.218 634.416 344.623 634.416 344.623L633.222 344.028L632.027 343.433C631.429 343.433 630.832 342.838 630.832 342.838C629.04 341.647 627.248 341.052 625.455 339.862C623.663 338.671 621.871 337.481 620.676 336.29C618.884 335.1 617.69 333.91 615.898 332.124C615.3 331.529 615.3 331.529 614.703 330.934L614.105 330.338L613.508 329.743C612.911 329.148 611.716 327.958 611.119 327.362C598.573 313.078 589.613 295.817 586.029 276.77C584.834 272.008 584.236 267.247 583.639 262.485C583.042 257.724 583.042 252.962 583.042 248.2C583.042 247.01 583.042 245.82 583.042 244.629C583.042 244.034 583.042 243.439 583.042 242.844V241.058V239.272C583.042 238.677 583.042 238.082 583.042 237.487V235.701V234.511V233.32C583.639 228.559 584.834 223.797 586.029 219.035C590.808 199.989 599.171 181.537 611.119 165.467C617.092 157.729 623.663 149.991 630.832 143.444C638.001 136.897 645.766 130.35 654.13 125.588C662.493 120.231 670.856 116.065 679.817 112.494C683.999 110.708 688.778 109.518 693.557 107.732C698.336 106.542 702.517 105.351 707.296 104.756C712.075 104.161 716.257 103.566 721.036 102.97C725.815 102.97 729.997 102.97 734.776 102.97C739.555 102.97 743.737 103.566 747.918 104.756C748.516 104.756 749.113 104.756 749.711 104.756L751.503 105.351C752.697 105.351 753.892 105.946 754.49 105.946C755.087 105.946 755.684 105.946 756.282 106.542L758.074 107.137L759.866 107.732C760.463 107.732 761.061 107.732 761.658 108.327C765.839 109.518 770.021 111.303 773.606 112.494C777.19 114.279 781.371 116.065 784.358 118.446L784.956 119.041L785.553 119.636L786.748 120.231C786.748 120.231 787.345 120.231 787.345 120.826L787.943 121.422L789.137 122.017L790.332 123.207C790.93 123.802 790.93 123.802 791.527 124.398C792.124 124.993 793.319 125.588 793.917 126.183C796.904 128.564 799.891 131.54 802.877 134.516C803.475 135.111 804.669 136.302 805.266 136.897C826.175 155.943 858.433 154.158 876.952 133.921C902.639 111.898 900.847 80.3526 880.537 61.306Z" fill="currentColor"></path><path d="M221.951 345C221.951 338.777 222.414 333.216 223.341 328.318C224.4 323.419 226.055 318.983 228.306 315.011C230.689 310.907 233.801 307.134 237.64 303.691C241.612 300.116 246.577 296.74 252.535 293.563C258.758 290.253 263.922 287.472 268.026 285.221C272.263 282.838 275.639 280.852 278.155 279.263C280.67 277.675 282.392 276.152 283.318 274.696C284.378 273.107 284.907 271.386 284.907 269.532C284.907 267.016 284.311 264.832 283.12 262.978C281.928 261.125 280.207 259.734 277.956 258.808C275.705 257.748 272.925 257.219 269.615 257.219C266.967 257.219 264.451 257.55 262.068 258.212C259.685 258.874 257.368 259.867 255.117 261.191C252.999 262.515 250.947 264.104 248.961 265.957C246.975 267.678 244.989 269.664 243.003 271.915L222.944 248.48C225.195 246.23 228.041 243.979 231.484 241.728C235.059 239.477 239.097 237.491 243.598 235.77C248.1 233.916 252.999 232.46 258.295 231.401C263.723 230.209 269.35 229.613 275.176 229.613C284.709 229.613 292.719 231.07 299.206 233.983C305.826 236.763 310.858 240.735 314.3 245.899C317.742 251.062 319.464 257.153 319.464 264.17C319.464 268.671 318.735 272.643 317.279 276.086C315.955 279.396 314.168 282.375 311.917 285.023C309.666 287.671 307.084 290.054 304.171 292.172C301.391 294.291 298.611 296.211 295.83 297.932C292.653 299.521 289.674 301.109 286.893 302.698C284.113 304.155 281.531 305.611 279.148 307.067C276.765 308.391 274.514 309.848 272.395 311.437C270.409 312.893 268.49 314.548 266.636 316.402H321.648V345H221.951Z" fill="currentColor"></path><path d="M408.253 297.932C413.814 298.859 418.647 301.043 422.751 304.486C426.988 307.796 430.232 311.966 432.483 316.997C434.866 321.896 436.057 327.457 436.057 333.68C436.057 341.889 433.873 349.038 429.504 355.129C425.134 361.219 418.912 365.919 410.835 369.229C402.759 372.539 393.226 374.194 382.237 374.194C372.174 374.194 363.171 372.672 355.227 369.626C347.416 366.714 340.663 362.344 334.97 356.519L352.05 333.878C355.624 337.453 359.729 340.234 364.363 342.22C368.997 344.206 374.425 345.199 380.648 345.199C388.195 345.199 393.822 343.875 397.529 341.227C401.236 338.446 403.09 334.276 403.09 328.715C403.09 322.757 400.839 318.255 396.337 315.21C391.968 312.165 385.017 310.642 375.484 310.642H369.526V287.803H376.08C383.362 287.803 389.122 286.281 393.358 283.235C397.595 280.058 399.714 276.02 399.714 271.121C399.714 268.208 398.985 265.759 397.529 263.773C396.205 261.787 394.285 260.33 391.77 259.403C389.386 258.344 386.474 257.815 383.031 257.815C377.735 257.815 372.836 259.072 368.335 261.588C363.833 264.104 360.06 267.811 357.015 272.71L336.956 249.672C339.869 245.832 343.841 242.522 348.872 239.742C354.036 236.829 359.861 234.578 366.349 232.99C372.836 231.401 379.589 230.606 386.606 230.606C396.006 230.606 404.215 232.063 411.232 234.976C418.382 237.888 423.877 241.993 427.716 247.289C431.688 252.452 433.674 258.609 433.674 265.759C433.674 270.922 432.615 275.821 430.497 280.455C428.378 284.957 425.399 288.796 421.56 291.974C417.72 295.019 413.285 297.005 408.253 297.932Z" fill="currentColor"></path></g><defs><clipPath id="clip0_1_5"><rect width="896" height="422" fill="currentColor"></rect></clipPath></defs></svg>